<svg xmlns="http://www.w3.org/2000/svg" xmlns:xlink="http://www.w3.org/1999/xlink" contentStyleType="text/css" data-diagram-type="DESCRIPTION" height="917px" preserveAspectRatio="none" style="width:1787px;height:917px;background:#FFFFFF;" version="1.1" viewBox="0 0 1787 917" width="1787px" zoomAndPan="magnify"><?plantuml 1.2026.3?><defs/><g><g class="title" data-source-line="3"><text fill="#1F2937" font-family="Arial" font-size="20" font-weight="700" lengthAdjust="spacing" textLength="636.4551" x="571.7725" y="28.5645">EZTrade Backend - Patron de componentes hexagonales</text></g><rect fill="#FFFFCC" height="16.6406" rx="2.5" ry="2.5" style="stroke:#FFDD88;stroke-width:3;" width="1771" x="3" y="47.2813"/><text fill="#000000" font-family="monospace" font-size="10" lengthAdjust="spacing" textLength="355.21" x="10" y="57.9219">Please&#160;use&#160;'!option&#160;handwritten&#160;true'&#160;to&#160;enable&#160;handwritten</text><!--cluster InLayer--><g class="cluster" data-qualified-name="InLayer" data-source-line="5" id="ent0002"><path d="M357.5,71.9219 L536.8564,71.9219 A3.75,3.75 0 0 1 539.3564,74.4219 L546.3564,93.0547 L1150.5,93.0547 A2.5,2.5 0 0 1 1153,95.5547 L1153,194.8219 A2.5,2.5 0 0 1 1150.5,197.3219 L357.5,197.3219 A2.5,2.5 0 0 1 355,194.8219 L355,74.4219 A2.5,2.5 0 0 1 357.5,71.9219" fill="#F8FAFC" style="stroke:#CBD5E1;stroke-width:1.5;"/><line style="stroke:#CBD5E1;stroke-width:1.5;" x1="355" x2="546.3564" y1="93.0547" y2="93.0547"/><text fill="#1F2937" font-family="Arial" font-size="13" font-weight="700" lengthAdjust="spacing" textLength="178.3564" x="359" y="85.9888">Adaptadores de entrada</text></g><!--cluster AppLayer--><g class="cluster" data-qualified-name="AppLayer" data-source-line="11" id="ent0006"><path d="M556.5,221.3219 L694.8823,221.3219 A3.75,3.75 0 0 1 697.3823,223.8219 L704.3823,242.4547 L929.5,242.4547 A2.5,2.5 0 0 1 932,244.9547 L932,630.1519 A2.5,2.5 0 0 1 929.5,632.6519 L556.5,632.6519 A2.5,2.5 0 0 1 554,630.1519 L554,223.8219 A2.5,2.5 0 0 1 556.5,221.3219" fill="#DCFCE7" style="stroke:#CBD5E1;stroke-width:1.5;"/><line style="stroke:#CBD5E1;stroke-width:1.5;" x1="554" x2="704.3823" y1="242.4547" y2="242.4547"/><text fill="#1F2937" font-family="Arial" font-size="13" font-weight="700" lengthAdjust="spacing" textLength="137.3823" x="558" y="235.3888">Capa de aplicacion</text></g><!--cluster DomainLayer--><g class="cluster" data-qualified-name="DomainLayer" data-source-line="17" id="ent0010"><path d="M958.5,507.2519 L1081.9463,507.2519 A3.75,3.75 0 0 1 1084.4463,509.7519 L1091.4463,528.3847 L1769.5,528.3847 A2.5,2.5 0 0 1 1772,530.8847 L1772,630.1519 A2.5,2.5 0 0 1 1769.5,632.6519 L958.5,632.6519 A2.5,2.5 0 0 1 956,630.1519 L956,509.7519 A2.5,2.5 0 0 1 958.5,507.2519" fill="#FEF3C7" style="stroke:#CBD5E1;stroke-width:1.5;"/><line style="stroke:#CBD5E1;stroke-width:1.5;" x1="956" x2="1091.4463" y1="528.3847" y2="528.3847"/><text fill="#1F2937" font-family="Arial" font-size="13" font-weight="700" lengthAdjust="spacing" textLength="122.4463" x="960" y="521.3188">Capa de dominio</text></g><!--cluster OutLayer--><g class="cluster" data-qualified-name="OutLayer" data-source-line="23" id="ent0014"><path d="M8.5,656.6519 L173.8091,656.6519 A3.75,3.75 0 0 1 176.3091,659.1519 L183.3091,677.7847 L1095.5,677.7847 A2.5,2.5 0 0 1 1098,680.2847 L1098,899.8119 A2.5,2.5 0 0 1 1095.5,902.3119 L8.5,902.3119 A2.5,2.5 0 0 1 6,899.8119 L6,659.1519 A2.5,2.5 0 0 1 8.5,656.6519" fill="#F8FAFC" style="stroke:#CBD5E1;stroke-width:1.5;"/><line style="stroke:#CBD5E1;stroke-width:1.5;" x1="6" x2="183.3091" y1="677.7847" y2="677.7847"/><text fill="#1F2937" font-family="Arial" font-size="13" font-weight="700" lengthAdjust="spacing" textLength="164.3091" x="10" y="670.7188">Adaptadores de salida</text></g><!--entity RestIn--><g class="entity" data-qualified-name="InLayer.RestIn" data-source-line="6" id="ent0003"><rect fill="#DBEAFE" height="75.3984" rx="2.5" ry="2.5" style="stroke:#475569;stroke-width:0.5;" width="212.377" x="370.81" y="105.9219"/><rect fill="#DBEAFE" height="10" style="stroke:#475569;stroke-width:0.5;" width="15" x="563.187" y="110.9219"/><rect fill="#DBEAFE" height="2" style="stroke:#475569;stroke-width:0.5;" width="4" x="561.187" y="112.9219"/><rect fill="#DBEAFE" height="2" style="stroke:#475569;stroke-width:0.5;" width="4" x="561.187" y="116.9219"/><text fill="#1F2937" font-family="Arial" font-size="13" lengthAdjust="spacing" textLength="129.1367" x="385.81" y="137.9888">Controladores REST</text><text fill="#1F2937" font-family="Arial" font-size="13" lengthAdjust="spacing" textLength="172.377" x="385.81" y="153.1216">Auth/User/Market/Trading/</text><text fill="#1F2937" font-family="Arial" font-size="13" lengthAdjust="spacing" textLength="99.4614" x="385.81" y="168.2544">Wallet/Portfolio</text></g><!--entity EventIn--><g class="entity" data-qualified-name="InLayer.EventIn" data-source-line="7" id="ent0004"><rect fill="#DBEAFE" height="60.2656" rx="2.5" ry="2.5" style="stroke:#475569;stroke-width:0.5;" width="229.6807" x="618.16" y="113.4919"/><rect fill="#DBEAFE" height="10" style="stroke:#475569;stroke-width:0.5;" width="15" x="827.8407" y="118.4919"/><rect fill="#DBEAFE" height="2" style="stroke:#475569;stroke-width:0.5;" width="4" x="825.8407" y="120.4919"/><rect fill="#DBEAFE" height="2" style="stroke:#475569;stroke-width:0.5;" width="4" x="825.8407" y="124.4919"/><text fill="#1F2937" font-family="Arial" font-size="13" lengthAdjust="spacing" textLength="181.4287" x="633.16" y="145.5588">Listeners de eventos Spring</text><text fill="#1F2937" font-family="Arial" font-size="13" lengthAdjust="spacing" textLength="189.6807" x="633.16" y="160.6916">wallet, portfolio, notifications</text></g><!--entity StompIn--><g class="entity" data-qualified-name="InLayer.StompIn" data-source-line="8" id="ent0005"><rect fill="#DBEAFE" height="60.2656" rx="2.5" ry="2.5" style="stroke:#475569;stroke-width:0.5;" width="254.2334" x="882.88" y="113.4919"/><rect fill="#DBEAFE" height="10" style="stroke:#475569;stroke-width:0.5;" width="15" x="1117.1134" y="118.4919"/><rect fill="#DBEAFE" height="2" style="stroke:#475569;stroke-width:0.5;" width="4" x="1115.1134" y="120.4919"/><rect fill="#DBEAFE" height="2" style="stroke:#475569;stroke-width:0.5;" width="4" x="1115.1134" y="124.4919"/><text fill="#1F2937" font-family="Arial" font-size="13" lengthAdjust="spacing" textLength="214.2334" x="897.88" y="145.5588">Autenticacion STOMP de entrada</text><text fill="#1F2937" font-family="Arial" font-size="13" lengthAdjust="spacing" textLength="198.3643" x="897.88" y="160.6916">StompAuthChannelInterceptor</text></g><!--entity PortsIn--><g class="entity" data-qualified-name="AppLayer.PortsIn" data-source-line="12" id="ent0007"><rect fill="#F8FAFC" height="60.2656" rx="2.5" ry="2.5" style="stroke:#475569;stroke-width:0.5;" width="213.3608" x="626.32" y="255.3219"/><rect fill="#F8FAFC" height="10" style="stroke:#475569;stroke-width:0.5;" width="15" x="819.6808" y="260.3219"/><rect fill="#F8FAFC" height="2" style="stroke:#475569;stroke-width:0.5;" width="4" x="817.6808" y="262.3219"/><rect fill="#F8FAFC" height="2" style="stroke:#475569;stroke-width:0.5;" width="4" x="817.6808" y="266.3219"/><text fill="#1F2937" font-family="Arial" font-size="13" lengthAdjust="spacing" textLength="124.6235" x="641.32" y="287.3888">Puertos de entrada</text><text fill="#1F2937" font-family="Arial" font-size="13" lengthAdjust="spacing" textLength="173.3608" x="641.32" y="302.5216">interfaces de casos de uso</text></g><!--entity AppServices--><g class="entity" data-qualified-name="AppLayer.AppServices" data-source-line="13" id="ent0008"><rect fill="#F8FAFC" height="105.6641" rx="2.5" ry="2.5" style="stroke:#475569;stroke-width:0.5;" width="253.2051" x="662.4" y="375.5819"/><rect fill="#F8FAFC" height="10" style="stroke:#475569;stroke-width:0.5;" width="15" x="895.6051" y="380.5819"/><rect fill="#F8FAFC" height="2" style="stroke:#475569;stroke-width:0.5;" width="4" x="893.6051" y="382.5819"/><rect fill="#F8FAFC" height="2" style="stroke:#475569;stroke-width:0.5;" width="4" x="893.6051" y="386.5819"/><text fill="#1F2937" font-family="Arial" font-size="13" lengthAdjust="spacing" textLength="148.4082" x="677.4" y="407.6488">Servicios de aplicacion</text><text fill="#1F2937" font-family="Arial" font-size="13" lengthAdjust="spacing" textLength="168.5874" x="677.4" y="422.7816">AuthService, UserService,</text><text fill="#1F2937" font-family="Arial" font-size="13" lengthAdjust="spacing" textLength="213.2051" x="677.4" y="437.9144">GetPriceService, TradingService,</text><text fill="#1F2937" font-family="Arial" font-size="13" lengthAdjust="spacing" textLength="203.5693" x="677.4" y="453.0472">WalletService, PortfolioService,</text><text fill="#1F2937" font-family="Arial" font-size="13" lengthAdjust="spacing" textLength="122.6367" x="677.4" y="468.18">NotificationService</text></g><!--entity PortsOut--><g class="entity" data-qualified-name="AppLayer.PortsOut" data-source-line="14" id="ent0009"><rect fill="#F8FAFC" height="75.3984" rx="2.5" ry="2.5" style="stroke:#475569;stroke-width:0.5;" width="346.2681" x="569.87" y="541.2519"/><rect fill="#F8FAFC" height="10" style="stroke:#475569;stroke-width:0.5;" width="15" x="896.1381" y="546.2519"/><rect fill="#F8FAFC" height="2" style="stroke:#475569;stroke-width:0.5;" width="4" x="894.1381" y="548.2519"/><rect fill="#F8FAFC" height="2" style="stroke:#475569;stroke-width:0.5;" width="4" x="894.1381" y="552.2519"/><text fill="#1F2937" font-family="Arial" font-size="13" lengthAdjust="spacing" textLength="111.9409" x="584.87" y="573.3188">Puertos de salida</text><text fill="#1F2937" font-family="Arial" font-size="13" lengthAdjust="spacing" textLength="233.9619" x="584.87" y="588.4516">repositorios, publicador de eventos,</text><text fill="#1F2937" font-family="Arial" font-size="13" lengthAdjust="spacing" textLength="306.2681" x="584.87" y="603.5844">proveedor de mercado, canales de notificacion</text></g><!--entity Aggregates--><g class="entity" data-qualified-name="DomainLayer.Aggregates" data-source-line="18" id="ent0011"><rect fill="#F8FAFC" height="75.3984" rx="2.5" ry="2.5" style="stroke:#475569;stroke-width:0.5;" width="220.9272" x="971.54" y="541.2519"/><rect fill="#F8FAFC" height="10" style="stroke:#475569;stroke-width:0.5;" width="15" x="1172.4672" y="546.2519"/><rect fill="#F8FAFC" height="2" style="stroke:#475569;stroke-width:0.5;" width="4" x="1170.4672" y="548.2519"/><rect fill="#F8FAFC" height="2" style="stroke:#475569;stroke-width:0.5;" width="4" x="1170.4672" y="552.2519"/><text fill="#1F2937" font-family="Arial" font-size="13" lengthAdjust="spacing" textLength="69.6846" x="986.54" y="573.3188">Agregados</text><text fill="#1F2937" font-family="Arial" font-size="13" lengthAdjust="spacing" textLength="180.9272" x="986.54" y="588.4516">TradeOrder, WalletAccount,</text><text fill="#1F2937" font-family="Arial" font-size="13" lengthAdjust="spacing" textLength="88.9751" x="986.54" y="603.5844">Position, User</text></g><!--entity ValueObjects--><g class="entity" data-qualified-name="DomainLayer.ValueObjects" data-source-line="19" id="ent0012"><rect fill="#F8FAFC" height="75.3984" rx="2.5" ry="2.5" style="stroke:#475569;stroke-width:0.5;" width="217.436" x="1227.28" y="541.2519"/><rect fill="#F8FAFC" height="10" style="stroke:#475569;stroke-width:0.5;" width="15" x="1424.716" y="546.2519"/><rect fill="#F8FAFC" height="2" style="stroke:#475569;stroke-width:0.5;" width="4" x="1422.716" y="548.2519"/><rect fill="#F8FAFC" height="2" style="stroke:#475569;stroke-width:0.5;" width="4" x="1422.716" y="552.2519"/><text fill="#1F2937" font-family="Arial" font-size="13" lengthAdjust="spacing" textLength="152.4453" x="1242.28" y="573.3188">Value objects y records</text><text fill="#1F2937" font-family="Arial" font-size="13" lengthAdjust="spacing" textLength="168.3652" x="1242.28" y="588.4516">Money, Quantity, Symbol,</text><text fill="#1F2937" font-family="Arial" font-size="13" lengthAdjust="spacing" textLength="177.436" x="1242.28" y="603.5844">WalletTransaction, eventos</text></g><!--entity Exceptions--><g class="entity" data-qualified-name="DomainLayer.Exceptions" data-source-line="20" id="ent0013"><rect fill="#F8FAFC" height="60.2656" rx="2.5" ry="2.5" style="stroke:#475569;stroke-width:0.5;" width="276.9897" x="1479.51" y="548.8119"/><rect fill="#F8FAFC" height="10" style="stroke:#475569;stroke-width:0.5;" width="15" x="1736.4997" y="553.8119"/><rect fill="#F8FAFC" height="2" style="stroke:#475569;stroke-width:0.5;" width="4" x="1734.4997" y="555.8119"/><rect fill="#F8FAFC" height="2" style="stroke:#475569;stroke-width:0.5;" width="4" x="1734.4997" y="559.8119"/><text fill="#1F2937" font-family="Arial" font-size="13" lengthAdjust="spacing" textLength="157.8281" x="1494.51" y="580.8788">Excepciones de dominio</text><text fill="#1F2937" font-family="Arial" font-size="13" lengthAdjust="spacing" textLength="236.9897" x="1494.51" y="596.0116">Trading/Wallet/Portfolio/Market/User</text></g><!--entity Jpa--><g class="entity" data-qualified-name="OutLayer.Jpa" data-source-line="24" id="ent0015"><path d="M22.21,708.7119 C22.21,698.7119 161.9974,698.7119 161.9974,698.7119 C161.9974,698.7119 301.7847,698.7119 301.7847,708.7119 L301.7847,747.9775 C301.7847,757.9775 161.9974,757.9775 161.9974,757.9775 C161.9974,757.9775 22.21,757.9775 22.21,747.9775 L22.21,708.7119" fill="#ECFEFF" style="stroke:#0891B2;stroke-width:0.5;"/><path d="M22.21,708.7119 C22.21,718.7119 161.9974,718.7119 161.9974,718.7119 C161.9974,718.7119 301.7847,718.7119 301.7847,708.7119" fill="none" style="stroke:#0891B2;stroke-width:0.5;"/><text fill="#164E63" font-family="Arial" font-size="13" lengthAdjust="spacing" textLength="101.8228" x="32.21" y="734.7788">Spring Data JPA</text><text fill="#164E63" font-family="Arial" font-size="13" lengthAdjust="spacing" textLength="259.5747" x="32.21" y="749.9116">adaptadores de repositorio + entidades</text></g><!--entity AlphaAdapter--><g class="entity" data-qualified-name="OutLayer.AlphaAdapter" data-source-line="25" id="ent0016"><rect fill="#FCE7F3" height="60.2656" rx="2.5" ry="2.5" style="stroke:#475569;stroke-width:0.5;" width="177.7188" x="640.14" y="826.0419"/><rect fill="#FCE7F3" height="10" style="stroke:#475569;stroke-width:0.5;" width="15" x="797.8588" y="831.0419"/><rect fill="#FCE7F3" height="2" style="stroke:#475569;stroke-width:0.5;" width="4" x="795.8588" y="833.0419"/><rect fill="#FCE7F3" height="2" style="stroke:#475569;stroke-width:0.5;" width="4" x="795.8588" y="837.0419"/><text fill="#1F2937" font-family="Arial" font-size="13" lengthAdjust="spacing" textLength="111.9409" x="655.14" y="858.1088">AlphaVantageAPI</text><text fill="#1F2937" font-family="Arial" font-size="13" lengthAdjust="spacing" textLength="137.7188" x="655.14" y="873.2416">adaptador RestClient</text></g><!--entity CacheAdapter--><g class="entity" data-qualified-name="OutLayer.CacheAdapter" data-source-line="26" id="ent0017"><rect fill="#F8FAFC" height="60.2656" rx="2.5" ry="2.5" style="stroke:#475569;stroke-width:0.5;" width="258.8291" x="336.59" y="698.2119"/><rect fill="#F8FAFC" height="10" style="stroke:#475569;stroke-width:0.5;" width="15" x="575.4191" y="703.2119"/><rect fill="#F8FAFC" height="2" style="stroke:#475569;stroke-width:0.5;" width="4" x="573.4191" y="705.2119"/><rect fill="#F8FAFC" height="2" style="stroke:#475569;stroke-width:0.5;" width="4" x="573.4191" y="709.2119"/><text fill="#1F2937" font-family="Arial" font-size="13" lengthAdjust="spacing" textLength="218.8291" x="351.59" y="730.2788">Proveedor cacheado con Caffeine</text><text fill="#1F2937" font-family="Arial" font-size="13" lengthAdjust="spacing" textLength="133.8086" x="351.59" y="745.4116">decorador @Primary</text></g><!--entity SpringPublisher--><g class="entity" data-qualified-name="OutLayer.SpringPublisher" data-source-line="27" id="ent0018"><rect fill="#F8FAFC" height="60.2656" rx="2.5" ry="2.5" style="stroke:#475569;stroke-width:0.5;" width="225.1738" x="630.41" y="698.2119"/><rect fill="#F8FAFC" height="10" style="stroke:#475569;stroke-width:0.5;" width="15" x="835.5838" y="703.2119"/><rect fill="#F8FAFC" height="2" style="stroke:#475569;stroke-width:0.5;" width="4" x="833.5838" y="705.2119"/><rect fill="#F8FAFC" height="2" style="stroke:#475569;stroke-width:0.5;" width="4" x="833.5838" y="709.2119"/><text fill="#1F2937" font-family="Arial" font-size="13" lengthAdjust="spacing" textLength="185.1738" x="645.41" y="730.2788">Publicadores Eventos Spring</text><text fill="#1F2937" font-family="Arial" font-size="13" lengthAdjust="spacing" textLength="169.7871" x="645.41" y="745.4116">ApplicationEventPublisher</text></g><!--entity NotificationAdapters--><g class="entity" data-qualified-name="OutLayer.NotificationAdapters" data-source-line="28" id="ent0019"><rect fill="#F8FAFC" height="75.3984" rx="2.5" ry="2.5" style="stroke:#475569;stroke-width:0.5;" width="191.5122" x="890.24" y="690.6519"/><rect fill="#F8FAFC" height="10" style="stroke:#475569;stroke-width:0.5;" width="15" x="1061.7522" y="695.6519"/><rect fill="#F8FAFC" height="2" style="stroke:#475569;stroke-width:0.5;" width="4" x="1059.7522" y="697.6519"/><rect fill="#F8FAFC" height="2" style="stroke:#475569;stroke-width:0.5;" width="4" x="1059.7522" y="701.6519"/><text fill="#1F2937" font-family="Arial" font-size="13" lengthAdjust="spacing" textLength="151.3027" x="905.24" y="722.7188">Canales de notificacion</text><text fill="#1F2937" font-family="Arial" font-size="13" lengthAdjust="spacing" textLength="121.2275" x="905.24" y="737.8516">WebSocket, inbox,</text><text fill="#1F2937" font-family="Arial" font-size="13" lengthAdjust="spacing" textLength="151.5122" x="905.24" y="752.9844">email/push con logging</text></g><g class="entity" data-qualified-name="GMN34" data-source-line="47" id="ent0035"><path d="M950.6,400.7219 L950.6,424.3119 L916.08,428.3119 L950.6,432.3119 L950.6,456.1203 A0,0 0 0 0 950.6,456.1203 L1241.4008,456.1203 A0,0 0 0 0 1241.4008,456.1203 L1241.4008,410.7219 L1231.4008,400.7219 L950.6,400.7219 A0,0 0 0 0 950.6,400.7219" fill="#FFF7ED" style="stroke:#F97316;stroke-width:0.5;"/><path d="M1231.4008,400.7219 L1231.4008,410.7219 L1241.4008,410.7219 L1231.4008,400.7219" fill="#FFF7ED" style="stroke:#F97316;stroke-width:0.5;"/><text fill="#7C2D12" font-family="Arial" font-size="13" lengthAdjust="spacing" textLength="269.8008" x="956.6" y="417.7888">Each business module follows this shape,</text><text fill="#7C2D12" font-family="Arial" font-size="13" lengthAdjust="spacing" textLength="259.4414" x="956.6" y="432.9216">aunque security y notifications son mas</text><text fill="#7C2D12" font-family="Arial" font-size="13" lengthAdjust="spacing" textLength="268.582" x="956.6" y="448.0544">cross-cutting than pure domain modules.</text></g><!--link RestIn to PortsIn--><g class="link" data-entity-1="ent0003" data-entity-2="ent0007" data-link-type="dependency" data-source-line="31" id="lnk20"><path d="M576.53,181.5919 C576.53,223.5619 576.53,285.3119 576.53,285.3119 C576.53,285.3119 592.53,285.3119 620.04,285.3119" fill="none" id="RestIn-to-PortsIn" style="stroke:#394150;stroke-width:1.2;"/><polygon fill="#394150" points="626.04,285.3119,617.04,281.3119,621.04,285.3119,617.04,289.3119,626.04,285.3119" style="stroke:#394150;stroke-width:1.2;"/></g><!--link EventIn to PortsIn--><g class="link" data-entity-1="ent0004" data-entity-2="ent0007" data-link-type="dependency" data-source-line="32" id="lnk21"><path d="M733,174.0519 C733,197.9819 733,225.1619 733,249.0719" fill="none" id="EventIn-to-PortsIn" style="stroke:#394150;stroke-width:1.2;"/><polygon fill="#394150" points="733,255.0719,737,246.0719,733,250.0719,729,246.0719,733,255.0719" style="stroke:#394150;stroke-width:1.2;"/></g><!--link StompIn to AppServices--><g class="link" data-entity-1="ent0005" data-entity-2="ent0008" data-link-type="dependency" data-source-line="33" id="lnk22"><path d="M899.24,174.1019 C899.24,222.1019 899.24,309.9319 899.24,369.2219" fill="none" id="StompIn-to-AppServices" style="stroke:#394150;stroke-width:1.2;"/><polygon fill="#394150" points="899.24,375.2219,903.24,366.2219,899.24,370.2219,895.24,366.2219,899.24,375.2219" style="stroke:#394150;stroke-width:1.2;"/><text fill="#000000" font-family="Arial" font-size="13" lengthAdjust="spacing" textLength="188.5381" x="900.24" y="270.7288">authenticates STOMP frames</text></g><!--link PortsIn to AppServices--><g class="link" data-entity-1="ent0007" data-entity-2="ent0008" data-link-type="dependency" data-source-line="34" id="lnk23"><path d="M751.04,315.7719 C751.04,333.0619 751.04,349.2419 751.04,369.3319" fill="none" id="PortsIn-to-AppServices" style="stroke:#394150;stroke-width:1.2;"/><polygon fill="#394150" points="751.04,375.3319,755.04,366.3319,751.04,370.3319,747.04,366.3319,751.04,375.3319" style="stroke:#394150;stroke-width:1.2;"/></g><!--link AppServices to Aggregates--><g class="link" data-entity-1="ent0008" data-entity-2="ent0011" data-link-type="dependency" data-source-line="35" id="lnk24"><path d="M915.81,475.3119 C995,475.3119 1082,475.3119 1082,475.3119 C1082,475.3119 1082,505.3719 1082,534.9419" fill="none" id="AppServices-to-Aggregates" style="stroke:#394150;stroke-width:1.2;"/><polygon fill="#394150" points="1082,540.9419,1086,531.9419,1082,535.9419,1078,531.9419,1082,540.9419" style="stroke:#394150;stroke-width:1.2;"/></g><!--link AppServices to ValueObjects--><g class="link" data-entity-1="ent0008" data-entity-2="ent0012" data-link-type="dependency" data-source-line="36" id="lnk25"><path d="M916.02,468.3119 C1047.65,468.3119 1234.34,468.3119 1234.34,468.3119 C1234.34,468.3119 1234.34,502.8719 1234.34,534.8719" fill="none" id="AppServices-to-ValueObjects" style="stroke:#394150;stroke-width:1.2;"/><polygon fill="#394150" points="1234.34,540.8719,1238.34,531.8719,1234.34,535.8719,1230.34,531.8719,1234.34,540.8719" style="stroke:#394150;stroke-width:1.2;"/></g><!--link AppServices to Exceptions--><g class="link" data-entity-1="ent0008" data-entity-2="ent0013" data-link-type="dependency" data-source-line="37" id="lnk26"><path d="M915.81,462.3119 C1148.04,462.3119 1618,462.3119 1618,462.3119 C1618,462.3119 1618,508.0519 1618,542.6119" fill="none" id="AppServices-to-Exceptions" style="stroke:#394150;stroke-width:1.2;"/><polygon fill="#394150" points="1618,548.6119,1622,539.6119,1618,543.6119,1614,539.6119,1618,548.6119" style="stroke:#394150;stroke-width:1.2;"/></g><!--link AppServices to PortsOut--><g class="link" data-entity-1="ent0008" data-entity-2="ent0009" data-link-type="dependency" data-source-line="38" id="lnk27"><path d="M789,481.4919 C789,501.1219 789,516.9819 789,535.0019" fill="none" id="AppServices-to-PortsOut" style="stroke:#394150;stroke-width:1.2;"/><polygon fill="#394150" points="789,541.0019,793,532.0019,789,536.0019,785,532.0019,789,541.0019" style="stroke:#394150;stroke-width:1.2;"/></g><!--reverse link PortsOut to Jpa--><g class="link" data-entity-1="ent0009" data-entity-2="ent0015" data-link-type="extension" data-source-line="39" id="lnk28"><path d="M551.47,579.3119 C380.27,579.3119 162,579.3119 162,579.3119 C162,579.3119 162,655.0519 162,698.5419" fill="none" id="PortsOut-backto-Jpa" style="stroke:#394150;stroke-width:1.2;stroke-dasharray:7,7;"/><polygon fill="none" points="569.47,579.3119,551.47,573.3119,551.47,585.3119,569.47,579.3119" style="stroke:#394150;stroke-width:1.2;"/></g><!--reverse link PortsOut to AlphaAdapter--><g class="link" data-entity-1="ent0009" data-entity-2="ent0016" data-link-type="extension" data-source-line="40" id="lnk29"><path d="M612.91,634.9719 C612.91,708.7819 612.91,846.3119 612.91,846.3119 C612.91,846.3119 624.25,846.3119 639.84,846.3119" fill="none" id="PortsOut-backto-AlphaAdapter" style="stroke:#394150;stroke-width:1.2;stroke-dasharray:7,7;"/><polygon fill="none" points="612.91,616.9719,606.91,634.9719,618.91,634.9719,612.91,616.9719" style="stroke:#394150;stroke-width:1.2;"/></g><!--reverse link PortsOut to CacheAdapter--><g class="link" data-entity-1="ent0009" data-entity-2="ent0017" data-link-type="extension" data-source-line="41" id="lnk30"><path d="M582.64,635.0319 C582.64,660.1019 582.64,674.4819 582.64,697.8519" fill="none" id="PortsOut-backto-CacheAdapter" style="stroke:#394150;stroke-width:1.2;stroke-dasharray:7,7;"/><polygon fill="none" points="582.64,617.0319,576.64,635.0319,588.64,635.0319,582.64,617.0319" style="stroke:#394150;stroke-width:1.2;"/></g><!--reverse link PortsOut to SpringPublisher--><g class="link" data-entity-1="ent0009" data-entity-2="ent0018" data-link-type="extension" data-source-line="42" id="lnk31"><path d="M743,635.0319 C743,660.1019 743,674.4819 743,697.8519" fill="none" id="PortsOut-backto-SpringPublisher" style="stroke:#394150;stroke-width:1.2;stroke-dasharray:7,7;"/><polygon fill="none" points="743,617.0319,737,635.0319,749,635.0319,743,617.0319" style="stroke:#394150;stroke-width:1.2;"/></g><!--reverse link PortsOut to NotificationAdapters--><g class="link" data-entity-1="ent0009" data-entity-2="ent0019" data-link-type="extension" data-source-line="43" id="lnk32"><path d="M903.19,635.0319 C903.19,657.5119 903.19,667.8619 903.19,690.3319" fill="none" id="PortsOut-backto-NotificationAdapters" style="stroke:#394150;stroke-width:1.2;stroke-dasharray:7,7;"/><polygon fill="none" points="903.19,617.0319,897.19,635.0319,909.19,635.0319,903.19,617.0319" style="stroke:#394150;stroke-width:1.2;"/></g><!--link CacheAdapter to AlphaAdapter--><g class="link" data-entity-1="ent0017" data-entity-2="ent0016" data-link-type="dependency" data-source-line="44" id="lnk33"><path d="M466,758.9619 C466,799.6119 466,866.3119 466,866.3119 C466,866.3119 557.66,866.3119 633.96,866.3119" fill="none" id="CacheAdapter-to-AlphaAdapter" style="stroke:#394150;stroke-width:1.2;"/><polygon fill="#394150" points="639.96,866.3119,630.96,862.3119,634.96,866.3119,630.96,870.3119,639.96,866.3119" style="stroke:#394150;stroke-width:1.2;"/></g><?plantuml-src VLRRRkCs47tNLx1vhI_lYwAeudWNtYQs6xlReZ1GqD9OOfSYLPBAnhtyUmz9IPQ4T043bkS-vyoC_8rGcMnoOel54fzCLvLMI_hB6PxJtBghf4NTL399d72IsFgtezUmUvvz9fMpETjpPxHYaC6vregK8yjAUkM5LboIJP8QnhmWTfVcl7OyrmOMS80fWl4xnYtRg4T-9SF-JjWj4BjRQTXesVeyhm_7aqeRLov_jcIMJzny9hVq9GbLB4_g5oub17jjt4LBeKFePx9ker3wx--VTzlZUlimpl4eh2D59jRq0fcsx50RX3ofBo7YZDLTo1bJsecBoBWJMjcGOUsTlfO29UCRFXbysE6uUzeF03YfWuEjxsjLSgL8RW2YoQXsseG4GJz9yEy0s1MlkG_8Qzac2MvfNKTKuNUVhdw4snJWVKF6zpkiHlZi5vv5bZ9kexwn4K-FhjseSPm3cHU1n7PSHcGhAcd6F6lTZvFwG6vlyDYhMo9l5f7FNj_pUhFO3iXefLthxK_xlmrRBeNlrr2jhG3MA1zCDsTVFIPkC0_8L1lzGjIAAz03andG2KFkPTrSzF07e7QDUvEgN5T2jHFwe2ikL4_Lm-uftModJAM5eG8vxKc57ToPdCoCHOZIBDEDSYXpxrj11H7iY4KHNDqKYazSDiJq-G_Ad6LNPYZJ9aVy9nXSP-odXcDe7PuEr-giPKy8yYlBivYcHIXa2X5tCU0ur_eLu-oHYLYrtSTM_EvEDxVRxRw9422it0ZEoKc9b0O707yxAJbt_Cmj7E9YimS8sCTzUb9y764m3EnRlnE8brDixoEey_pSJvYHTSa_0IjKbEutWv3XzgoaW5bambk6aYFJwr-Fw-Tj-ZWPqNxIC4mb8H2qYgtuvK92qKdbdgWG_mSiKCNDDKHVUUis-dJekvcczbeDJXnMHROR55J1s9Ojxj6gbqtEyzlJZpcXyq7Z5O7BATHPls9q23CkbtLZoz2Dr4M1m277S8dR-WFBxUMUpx_lZqvtQeUoxZfwsM3lsJl6SNpYuVKlfNXtBuPNs8JMUUgK30C4tMrvfghHj4-LWtcTglgxq3smx_vPBFnqJIJ3SPceHboFLLF6njetiHv6YrqFCoVW5eiXYj8nVHcXjOOZEpSMOsajgtJUu4y25bZgBvQvKbXcIrxJBE6D-XF7nbBM69mKN9lHQvHPZ4J5RP8PRUqyQvppM-hmEiH1Dk5Wu4Is6UmYyNy-V5d9Vm00?></g></svg>