<svg xmlns="http://www.w3.org/2000/svg" xmlns:xlink="http://www.w3.org/1999/xlink" contentStyleType="text/css" data-diagram-type="DESCRIPTION" height="759px" preserveAspectRatio="none" style="width:3520px;height:759px;background:#FFFFFF;" version="1.1" viewBox="0 0 3520 759" width="3520px" zoomAndPan="magnify"><?plantuml 1.2026.6?><defs/><g><g class="title" data-source-line="3"><text fill="#1F2937" font-family="Arial" font-size="20" font-weight="700" lengthAdjust="spacing" textLength="479.0137" x="1516.9978" y="28.7598">EZTrade Backend - Package and Module Structure</text></g><rect fill="#FFFFCC" height="18.0566" rx="2.5" ry="2.5" style="stroke:#FFDD88;stroke-width:3;" width="3504.0093" x="3" y="46.998"/><text fill="#000000" font-family="monospace" font-size="10" lengthAdjust="spacing" textLength="354.0576" x="10" y="59.0547">Please&#160;use&#160;'!option&#160;handwritten&#160;true'&#160;to&#160;enable&#160;handwritten</text><!--cluster com.trading.platform.eztrade--><g class="cluster" data-qualified-name="com.trading.platform.eztrade" data-source-line="5" id="ent0001"><path d="M8.5,73.0547 L188.6372,73.0547 A3.75,3.75 0 0 1 191.1372,75.5547 L198.1372,94.0034 L2963.5,94.0034 A2.5,2.5 0 0 1 2966,96.5034 L2966,741.5547 A2.5,2.5 0 0 1 2963.5,744.0547 L8.5,744.0547 A2.5,2.5 0 0 1 6,741.5547 L6,75.5547 A2.5,2.5 0 0 1 8.5,73.0547" fill="#F8FAFC" style="stroke:#CBD5E1;stroke-width:1.5;"/><line style="stroke:#CBD5E1;stroke-width:1.5;" x1="6" x2="198.1372" y1="94.0034" y2="94.0034"/><text fill="#1F2937" font-family="Arial" font-size="13" font-weight="700" lengthAdjust="spacing" textLength="179.1372" x="10" y="87.2485">com.trading.platform.eztrade</text></g><!--cluster user--><g class="cluster" data-qualified-name="com.trading.platform.eztrade.user" data-source-line="8" id="ent0003"><path d="M32.5,200.5547 L60.96,200.5547 A3.75,3.75 0 0 1 63.46,203.0547 L70.46,221.5034 L653.5,221.5034 A2.5,2.5 0 0 1 656,224.0034 L656,442.0547 A2.5,2.5 0 0 1 653.5,444.5547 L32.5,444.5547 A2.5,2.5 0 0 1 30,442.0547 L30,203.0547 A2.5,2.5 0 0 1 32.5,200.5547" fill="#F8FAFC" style="stroke:#CBD5E1;stroke-width:1.5;"/><line style="stroke:#CBD5E1;stroke-width:1.5;" x1="30" x2="70.46" y1="221.5034" y2="221.5034"/><text fill="#1F2937" font-family="Arial" font-size="13" font-weight="700" lengthAdjust="spacing" textLength="27.46" x="34" y="214.7485">user</text></g><!--cluster security--><g class="cluster" data-qualified-name="com.trading.platform.eztrade.security" data-source-line="16" id="ent0009"><path d="M682.5,193.0547 L733.3608,193.0547 A3.75,3.75 0 0 1 735.8608,195.5547 L742.8608,214.0034 L1213.5,214.0034 A2.5,2.5 0 0 1 1216,216.5034 L1216,449.5547 A2.5,2.5 0 0 1 1213.5,452.0547 L682.5,452.0547 A2.5,2.5 0 0 1 680,449.5547 L680,195.5547 A2.5,2.5 0 0 1 682.5,193.0547" fill="#F8FAFC" style="stroke:#CBD5E1;stroke-width:1.5;"/><line style="stroke:#CBD5E1;stroke-width:1.5;" x1="680" x2="742.8608" y1="214.0034" y2="214.0034"/><text fill="#1F2937" font-family="Arial" font-size="13" font-weight="700" lengthAdjust="spacing" textLength="49.8608" x="684" y="207.2485">security</text></g><!--cluster market--><g class="cluster" data-qualified-name="com.trading.platform.eztrade.market" data-source-line="24" id="ent0015"><path d="M1242.5,193.0547 L1286.1372,193.0547 A3.75,3.75 0 0 1 1288.6372,195.5547 L1295.6372,214.0034 L2016.5,214.0034 A2.5,2.5 0 0 1 2019,216.5034 L2019,442.0547 A2.5,2.5 0 0 1 2016.5,444.5547 L1242.5,444.5547 A2.5,2.5 0 0 1 1240,442.0547 L1240,195.5547 A2.5,2.5 0 0 1 1242.5,193.0547" fill="#F8FAFC" style="stroke:#CBD5E1;stroke-width:1.5;"/><line style="stroke:#CBD5E1;stroke-width:1.5;" x1="1240" x2="1295.6372" y1="214.0034" y2="214.0034"/><text fill="#1F2937" font-family="Arial" font-size="13" font-weight="700" lengthAdjust="spacing" textLength="42.6372" x="1244" y="207.2485">market</text></g><!--cluster trading--><g class="cluster" data-qualified-name="com.trading.platform.eztrade.trading" data-source-line="33" id="ent0022"><path d="M625.5,476.0547 L670.5527,476.0547 A3.75,3.75 0 0 1 673.0527,478.5547 L680.0527,497.0034 L1218.5,497.0034 A2.5,2.5 0 0 1 1221,499.5034 L1221,717.5547 A2.5,2.5 0 0 1 1218.5,720.0547 L625.5,720.0547 A2.5,2.5 0 0 1 623,717.5547 L623,478.5547 A2.5,2.5 0 0 1 625.5,476.0547" fill="#F8FAFC" style="stroke:#CBD5E1;stroke-width:1.5;"/><line style="stroke:#CBD5E1;stroke-width:1.5;" x1="623" x2="680.0527" y1="497.0034" y2="497.0034"/><text fill="#1F2937" font-family="Arial" font-size="13" font-weight="700" lengthAdjust="spacing" textLength="44.0527" x="627" y="490.2485">trading</text></g><!--cluster wallet--><g class="cluster" data-qualified-name="com.trading.platform.eztrade.wallet" data-source-line="41" id="ent0028"><path d="M1247.5,476.0547 L1284.6245,476.0547 A3.75,3.75 0 0 1 1287.1245,478.5547 L1294.1245,497.0034 L2035.5,497.0034 A2.5,2.5 0 0 1 2038,499.5034 L2038,717.5547 A2.5,2.5 0 0 1 2035.5,720.0547 L1247.5,720.0547 A2.5,2.5 0 0 1 1245,717.5547 L1245,478.5547 A2.5,2.5 0 0 1 1247.5,476.0547" fill="#F8FAFC" style="stroke:#CBD5E1;stroke-width:1.5;"/><line style="stroke:#CBD5E1;stroke-width:1.5;" x1="1245" x2="1294.1245" y1="497.0034" y2="497.0034"/><text fill="#1F2937" font-family="Arial" font-size="13" font-weight="700" lengthAdjust="spacing" textLength="36.1245" x="1249" y="490.2485">wallet</text></g><!--cluster portfolio--><g class="cluster" data-qualified-name="com.trading.platform.eztrade.portfolio" data-source-line="50" id="ent0035"><path d="M2064.5,476.0547 L2118.2046,476.0547 A3.75,3.75 0 0 1 2120.7046,478.5547 L2127.7046,497.0034 L2880.5,497.0034 A2.5,2.5 0 0 1 2883,499.5034 L2883,717.5547 A2.5,2.5 0 0 1 2880.5,720.0547 L2064.5,720.0547 A2.5,2.5 0 0 1 2062,717.5547 L2062,478.5547 A2.5,2.5 0 0 1 2064.5,476.0547" fill="#F8FAFC" style="stroke:#CBD5E1;stroke-width:1.5;"/><line style="stroke:#CBD5E1;stroke-width:1.5;" x1="2062" x2="2127.7046" y1="497.0034" y2="497.0034"/><text fill="#1F2937" font-family="Arial" font-size="13" font-weight="700" lengthAdjust="spacing" textLength="52.7046" x="2066" y="490.2485">portfolio</text></g><!--cluster notifications--><g class="cluster" data-qualified-name="com.trading.platform.eztrade.notifications" data-source-line="59" id="ent0042"><path d="M2135.5,193.0547 L2213.7764,193.0547 A3.75,3.75 0 0 1 2216.2764,195.5547 L2223.2764,214.0034 L2939.5,214.0034 A2.5,2.5 0 0 1 2942,216.5034 L2942,314.5547 A2.5,2.5 0 0 1 2939.5,317.0547 L2135.5,317.0547 A2.5,2.5 0 0 1 2133,314.5547 L2133,195.5547 A2.5,2.5 0 0 1 2135.5,193.0547" fill="#F8FAFC" style="stroke:#CBD5E1;stroke-width:1.5;"/><line style="stroke:#CBD5E1;stroke-width:1.5;" x1="2133" x2="2223.2764" y1="214.0034" y2="214.0034"/><text fill="#1F2937" font-family="Arial" font-size="13" font-weight="700" lengthAdjust="spacing" textLength="77.2764" x="2137" y="207.2485">notifications</text></g><!--entity App--><g class="entity" data-qualified-name="com.trading.platform.eztrade.App" data-source-line="6" id="ent0002"><rect fill="#DCFCE7" height="59.8975" rx="2.5" ry="2.5" style="stroke:#475569;stroke-width:0.5;" width="181.1147" x="1948.5" y="106.0547"/><rect fill="#DCFCE7" height="10" style="stroke:#475569;stroke-width:0.5;" width="15" x="2109.6147" y="111.0547"/><rect fill="#DCFCE7" height="2" style="stroke:#475569;stroke-width:0.5;" width="4" x="2107.6147" y="113.0547"/><rect fill="#DCFCE7" height="2" style="stroke:#475569;stroke-width:0.5;" width="4" x="2107.6147" y="117.0547"/><text fill="#1F2937" font-family="Arial" font-size="13" lengthAdjust="spacing" textLength="112.728" x="1963.5" y="138.2485">EzTradeApplication</text><text fill="#1F2937" font-family="Arial" font-size="13" lengthAdjust="spacing" textLength="141.1147" x="1963.5" y="153.1973">@SpringBootApplication</text></g><!--entity UserDomain--><g class="entity" data-qualified-name="com.trading.platform.eztrade.user.UserDomain" data-source-line="9" id="ent0004"><rect fill="#FEF3C7" height="59.8975" rx="2.5" ry="2.5" style="stroke:#475569;stroke-width:0.5;" width="170.7808" x="46.5" y="233.5547"/><rect fill="#FEF3C7" height="10" style="stroke:#475569;stroke-width:0.5;" width="15" x="197.2808" y="238.5547"/><rect fill="#FEF3C7" height="2" style="stroke:#475569;stroke-width:0.5;" width="4" x="195.2808" y="240.5547"/><rect fill="#FEF3C7" height="2" style="stroke:#475569;stroke-width:0.5;" width="4" x="195.2808" y="244.5547"/><text fill="#1F2937" font-family="Arial" font-size="13" lengthAdjust="spacing" textLength="42.6372" x="61.5" y="265.7485">domain</text><text fill="#1F2937" font-family="Arial" font-size="13" lengthAdjust="spacing" textLength="130.7808" x="61.5" y="280.6973">User, Role, exceptions</text></g><!--entity UserApp--><g class="entity" data-qualified-name="com.trading.platform.eztrade.user.UserApp" data-source-line="10" id="ent0005"><rect fill="#F8FAFC" height="59.8975" rx="2.5" ry="2.5" style="stroke:#475569;stroke-width:0.5;" width="182.3335" x="253" y="233.5547"/><rect fill="#F8FAFC" height="10" style="stroke:#475569;stroke-width:0.5;" width="15" x="415.3335" y="238.5547"/><rect fill="#F8FAFC" height="2" style="stroke:#475569;stroke-width:0.5;" width="4" x="413.3335" y="240.5547"/><rect fill="#F8FAFC" height="2" style="stroke:#475569;stroke-width:0.5;" width="4" x="413.3335" y="244.5547"/><text fill="#1F2937" font-family="Arial" font-size="13" lengthAdjust="spacing" textLength="62.1563" x="268" y="265.7485">application</text><text fill="#1F2937" font-family="Arial" font-size="13" lengthAdjust="spacing" textLength="142.3335" x="268" y="280.6973">ports in/out, UserService</text></g><!--entity UserIn--><g class="entity" data-qualified-name="com.trading.platform.eztrade.user.UserIn" data-source-line="11" id="ent0006"><rect fill="#F8FAFC" height="59.8975" rx="2.5" ry="2.5" style="stroke:#475569;stroke-width:0.5;" width="168.6035" x="470.5" y="233.5547"/><rect fill="#F8FAFC" height="10" style="stroke:#475569;stroke-width:0.5;" width="15" x="619.1035" y="238.5547"/><rect fill="#F8FAFC" height="2" style="stroke:#475569;stroke-width:0.5;" width="4" x="617.1035" y="240.5547"/><rect fill="#F8FAFC" height="2" style="stroke:#475569;stroke-width:0.5;" width="4" x="617.1035" y="244.5547"/><text fill="#1F2937" font-family="Arial" font-size="13" lengthAdjust="spacing" textLength="57.8208" x="485.5" y="265.7485">adapter/in</text><text fill="#1F2937" font-family="Arial" font-size="13" lengthAdjust="spacing" textLength="128.6035" x="485.5" y="280.6973">UserController, advice</text></g><!--entity UserOut--><g class="entity" data-qualified-name="com.trading.platform.eztrade.user.UserOut" data-source-line="12" id="ent0007"><rect fill="#F8FAFC" height="59.8975" rx="2.5" ry="2.5" style="stroke:#475569;stroke-width:0.5;" width="157.7744" x="285" y="368.5547"/><rect fill="#F8FAFC" height="10" style="stroke:#475569;stroke-width:0.5;" width="15" x="422.7744" y="373.5547"/><rect fill="#F8FAFC" height="2" style="stroke:#475569;stroke-width:0.5;" width="4" x="420.7744" y="375.5547"/><rect fill="#F8FAFC" height="2" style="stroke:#475569;stroke-width:0.5;" width="4" x="420.7744" y="379.5547"/><text fill="#1F2937" font-family="Arial" font-size="13" lengthAdjust="spacing" textLength="65.7744" x="300" y="400.7485">adapter/out</text><text fill="#1F2937" font-family="Arial" font-size="13" lengthAdjust="spacing" textLength="117.7744" x="300" y="415.6973">JPA, security lookup</text></g><!--entity UserApi--><g class="entity" data-qualified-name="com.trading.platform.eztrade.user.UserApi" data-source-line="13" id="ent0008"><rect fill="#F8FAFC" height="59.8975" rx="2.5" ry="2.5" style="stroke:#475569;stroke-width:0.5;" width="141.8799" x="478" y="368.5547"/><rect fill="#F8FAFC" height="10" style="stroke:#475569;stroke-width:0.5;" width="15" x="599.8799" y="373.5547"/><rect fill="#F8FAFC" height="2" style="stroke:#475569;stroke-width:0.5;" width="4" x="597.8799" y="375.5547"/><rect fill="#F8FAFC" height="2" style="stroke:#475569;stroke-width:0.5;" width="4" x="597.8799" y="379.5547"/><text fill="#1F2937" font-family="Arial" font-size="13" lengthAdjust="spacing" textLength="17.3481" x="493" y="400.7485">api</text><text fill="#1F2937" font-family="Arial" font-size="13" lengthAdjust="spacing" textLength="101.8799" x="493" y="415.6973">Named interfaces</text></g><!--entity SecController--><g class="entity" data-qualified-name="com.trading.platform.eztrade.security.SecController" data-source-line="17" id="ent0010"><rect fill="#F8FAFC" height="59.8975" rx="2.5" ry="2.5" style="stroke:#475569;stroke-width:0.5;" width="123.0972" x="931.5" y="233.5547"/><rect fill="#F8FAFC" height="10" style="stroke:#475569;stroke-width:0.5;" width="15" x="1034.5972" y="238.5547"/><rect fill="#F8FAFC" height="2" style="stroke:#475569;stroke-width:0.5;" width="4" x="1032.5972" y="240.5547"/><rect fill="#F8FAFC" height="2" style="stroke:#475569;stroke-width:0.5;" width="4" x="1032.5972" y="244.5547"/><text fill="#1F2937" font-family="Arial" font-size="13" lengthAdjust="spacing" textLength="53.4663" x="946.5" y="265.7485">controller</text><text fill="#1F2937" font-family="Arial" font-size="13" lengthAdjust="spacing" textLength="83.0972" x="946.5" y="280.6973">AuthController</text></g><!--entity SecService--><g class="entity" data-qualified-name="com.trading.platform.eztrade.security.SecService" data-source-line="18" id="ent0011"><rect fill="#F8FAFC" height="59.8975" rx="2.5" ry="2.5" style="stroke:#475569;stroke-width:0.5;" width="110.0908" x="1090" y="233.5547"/><rect fill="#F8FAFC" height="10" style="stroke:#475569;stroke-width:0.5;" width="15" x="1180.0908" y="238.5547"/><rect fill="#F8FAFC" height="2" style="stroke:#475569;stroke-width:0.5;" width="4" x="1178.0908" y="240.5547"/><rect fill="#F8FAFC" height="2" style="stroke:#475569;stroke-width:0.5;" width="4" x="1178.0908" y="244.5547"/><text fill="#1F2937" font-family="Arial" font-size="13" lengthAdjust="spacing" textLength="41.1772" x="1105" y="265.7485">service</text><text fill="#1F2937" font-family="Arial" font-size="13" lengthAdjust="spacing" textLength="70.0908" x="1105" y="280.6973">AuthService</text></g><!--entity SecJwt--><g class="entity" data-qualified-name="com.trading.platform.eztrade.security.SecJwt" data-source-line="19" id="ent0012"><rect fill="#F8FAFC" height="59.8975" rx="2.5" ry="2.5" style="stroke:#475569;stroke-width:0.5;" width="157.0381" x="783.5" y="368.5547"/><rect fill="#F8FAFC" height="10" style="stroke:#475569;stroke-width:0.5;" width="15" x="920.5381" y="373.5547"/><rect fill="#F8FAFC" height="2" style="stroke:#475569;stroke-width:0.5;" width="4" x="918.5381" y="375.5547"/><rect fill="#F8FAFC" height="2" style="stroke:#475569;stroke-width:0.5;" width="4" x="918.5381" y="379.5547"/><text fill="#1F2937" font-family="Arial" font-size="13" lengthAdjust="spacing" textLength="15.8882" x="798.5" y="400.7485">jwt</text><text fill="#1F2937" font-family="Arial" font-size="13" lengthAdjust="spacing" textLength="117.0381" x="798.5" y="415.6973">JwtService, provider</text></g><!--entity SecFilter--><g class="entity" data-qualified-name="com.trading.platform.eztrade.security.SecFilter" data-source-line="20" id="ent0013"><rect fill="#F8FAFC" height="74.8462" rx="2.5" ry="2.5" style="stroke:#475569;stroke-width:0.5;" width="224.2026" x="976" y="361.0547"/><rect fill="#F8FAFC" height="10" style="stroke:#475569;stroke-width:0.5;" width="15" x="1180.2026" y="366.0547"/><rect fill="#F8FAFC" height="2" style="stroke:#475569;stroke-width:0.5;" width="4" x="1178.2026" y="368.0547"/><rect fill="#F8FAFC" height="2" style="stroke:#475569;stroke-width:0.5;" width="4" x="1178.2026" y="372.0547"/><text fill="#1F2937" font-family="Arial" font-size="13" lengthAdjust="spacing" textLength="24.5591" x="991" y="393.2485">filter</text><text fill="#1F2937" font-family="Arial" font-size="13" lengthAdjust="spacing" textLength="184.2026" x="991" y="408.1973">JwtAuthFilter, UserAccessFilter,</text><text fill="#1F2937" font-family="Arial" font-size="13" lengthAdjust="spacing" textLength="174.8843" x="991" y="423.146">StompAuthChannelInterceptor</text></g><!--entity SecConfig--><g class="entity" data-qualified-name="com.trading.platform.eztrade.security.SecConfig" data-source-line="21" id="ent0014"><rect fill="#F8FAFC" height="74.8462" rx="2.5" ry="2.5" style="stroke:#475569;stroke-width:0.5;" width="199.7007" x="696" y="226.0547"/><rect fill="#F8FAFC" height="10" style="stroke:#475569;stroke-width:0.5;" width="15" x="875.7007" y="231.0547"/><rect fill="#F8FAFC" height="2" style="stroke:#475569;stroke-width:0.5;" width="4" x="873.7007" y="233.0547"/><rect fill="#F8FAFC" height="2" style="stroke:#475569;stroke-width:0.5;" width="4" x="873.7007" y="237.0547"/><text fill="#1F2937" font-family="Arial" font-size="13" lengthAdjust="spacing" textLength="74.439" x="711" y="258.2485">configuration</text><text fill="#1F2937" font-family="Arial" font-size="13" lengthAdjust="spacing" textLength="159.7007" x="711" y="273.1973">Authentication, WebSocket,</text><text fill="#1F2937" font-family="Arial" font-size="13" lengthAdjust="spacing" textLength="79.479" x="711" y="288.146">HTTP logging</text></g><!--entity MarketDomain--><g class="entity" data-qualified-name="com.trading.platform.eztrade.market.MarketDomain" data-source-line="25" id="ent0016"><rect fill="#FEF3C7" height="74.8462" rx="2.5" ry="2.5" style="stroke:#475569;stroke-width:0.5;" width="163.5317" x="1256" y="226.0547"/><rect fill="#FEF3C7" height="10" style="stroke:#475569;stroke-width:0.5;" width="15" x="1399.5317" y="231.0547"/><rect fill="#FEF3C7" height="2" style="stroke:#475569;stroke-width:0.5;" width="4" x="1397.5317" y="233.0547"/><rect fill="#FEF3C7" height="2" style="stroke:#475569;stroke-width:0.5;" width="4" x="1397.5317" y="237.0547"/><text fill="#1F2937" font-family="Arial" font-size="13" lengthAdjust="spacing" textLength="42.6372" x="1271" y="258.2485">domain</text><text fill="#1F2937" font-family="Arial" font-size="13" lengthAdjust="spacing" textLength="123.5317" x="1271" y="273.1973">Symbol, MarketPrice,</text><text fill="#1F2937" font-family="Arial" font-size="13" lengthAdjust="spacing" textLength="109.8335" x="1271" y="288.146">Instrument, Candle</text></g><!--entity MarketApp--><g class="entity" data-qualified-name="com.trading.platform.eztrade.market.MarketApp" data-source-line="26" id="ent0017"><rect fill="#F8FAFC" height="59.8975" rx="2.5" ry="2.5" style="stroke:#475569;stroke-width:0.5;" width="185.5898" x="1455" y="233.5547"/><rect fill="#F8FAFC" height="10" style="stroke:#475569;stroke-width:0.5;" width="15" x="1620.5898" y="238.5547"/><rect fill="#F8FAFC" height="2" style="stroke:#475569;stroke-width:0.5;" width="4" x="1618.5898" y="240.5547"/><rect fill="#F8FAFC" height="2" style="stroke:#475569;stroke-width:0.5;" width="4" x="1618.5898" y="244.5547"/><text fill="#1F2937" font-family="Arial" font-size="13" lengthAdjust="spacing" textLength="62.1563" x="1470" y="265.7485">application</text><text fill="#1F2937" font-family="Arial" font-size="13" lengthAdjust="spacing" textLength="145.5898" x="1470" y="280.6973">market use cases + ports</text></g><!--entity MarketIn--><g class="entity" data-qualified-name="com.trading.platform.eztrade.market.MarketIn" data-source-line="27" id="ent0018"><rect fill="#F8FAFC" height="59.8975" rx="2.5" ry="2.5" style="stroke:#475569;stroke-width:0.5;" width="136.0845" x="1676" y="233.5547"/><rect fill="#F8FAFC" height="10" style="stroke:#475569;stroke-width:0.5;" width="15" x="1792.0845" y="238.5547"/><rect fill="#F8FAFC" height="2" style="stroke:#475569;stroke-width:0.5;" width="4" x="1790.0845" y="240.5547"/><rect fill="#F8FAFC" height="2" style="stroke:#475569;stroke-width:0.5;" width="4" x="1790.0845" y="244.5547"/><text fill="#1F2937" font-family="Arial" font-size="13" lengthAdjust="spacing" textLength="57.8208" x="1691" y="265.7485">adapter/in</text><text fill="#1F2937" font-family="Arial" font-size="13" lengthAdjust="spacing" textLength="96.0845" x="1691" y="280.6973">MarketController</text></g><!--entity MarketExternal--><g class="entity" data-qualified-name="com.trading.platform.eztrade.market.MarketExternal" data-source-line="28" id="ent0019"><rect fill="#F8FAFC" height="59.8975" rx="2.5" ry="2.5" style="stroke:#475569;stroke-width:0.5;" width="155.6353" x="1847" y="233.5547"/><rect fill="#F8FAFC" height="10" style="stroke:#475569;stroke-width:0.5;" width="15" x="1982.6353" y="238.5547"/><rect fill="#F8FAFC" height="2" style="stroke:#475569;stroke-width:0.5;" width="4" x="1980.6353" y="240.5547"/><rect fill="#F8FAFC" height="2" style="stroke:#475569;stroke-width:0.5;" width="4" x="1980.6353" y="244.5547"/><text fill="#1F2937" font-family="Arial" font-size="13" lengthAdjust="spacing" textLength="115.6353" x="1862" y="265.7485">adapter/out/external</text><text fill="#1F2937" font-family="Arial" font-size="13" lengthAdjust="spacing" textLength="102.6353" x="1862" y="280.6973">AlphaVantageAPI</text></g><!--entity MarketCache--><g class="entity" data-qualified-name="com.trading.platform.eztrade.market.MarketCache" data-source-line="29" id="ent0020"><rect fill="#F8FAFC" height="59.8975" rx="2.5" ry="2.5" style="stroke:#475569;stroke-width:0.5;" width="200.4053" x="1448" y="368.5547"/><rect fill="#F8FAFC" height="10" style="stroke:#475569;stroke-width:0.5;" width="15" x="1628.4053" y="373.5547"/><rect fill="#F8FAFC" height="2" style="stroke:#475569;stroke-width:0.5;" width="4" x="1626.4053" y="375.5547"/><rect fill="#F8FAFC" height="2" style="stroke:#475569;stroke-width:0.5;" width="4" x="1626.4053" y="379.5547"/><text fill="#1F2937" font-family="Arial" font-size="13" lengthAdjust="spacing" textLength="104.0762" x="1463" y="400.7485">adapter/out/cache</text><text fill="#1F2937" font-family="Arial" font-size="13" lengthAdjust="spacing" textLength="160.4053" x="1463" y="415.6973">CachedMarketDataProvider</text></g><!--entity MarketApi--><g class="entity" data-qualified-name="com.trading.platform.eztrade.market.MarketApi" data-source-line="30" id="ent0021"><rect fill="#F8FAFC" height="59.8975" rx="2.5" ry="2.5" style="stroke:#475569;stroke-width:0.5;" width="175.8398" x="1683" y="368.5547"/><rect fill="#F8FAFC" height="10" style="stroke:#475569;stroke-width:0.5;" width="15" x="1838.8398" y="373.5547"/><rect fill="#F8FAFC" height="2" style="stroke:#475569;stroke-width:0.5;" width="4" x="1836.8398" y="375.5547"/><rect fill="#F8FAFC" height="2" style="stroke:#475569;stroke-width:0.5;" width="4" x="1836.8398" y="379.5547"/><text fill="#1F2937" font-family="Arial" font-size="13" lengthAdjust="spacing" textLength="17.3481" x="1698" y="400.7485">api</text><text fill="#1F2937" font-family="Arial" font-size="13" lengthAdjust="spacing" textLength="135.8398" x="1698" y="415.6973">MarketPriceLookupPort</text></g><!--entity TradingDomain--><g class="entity" data-qualified-name="com.trading.platform.eztrade.trading.TradingDomain" data-source-line="34" id="ent0023"><rect fill="#FEF3C7" height="74.8462" rx="2.5" ry="2.5" style="stroke:#475569;stroke-width:0.5;" width="157.0444" x="1047.5" y="509.0547"/><rect fill="#FEF3C7" height="10" style="stroke:#475569;stroke-width:0.5;" width="15" x="1184.5444" y="514.0547"/><rect fill="#FEF3C7" height="2" style="stroke:#475569;stroke-width:0.5;" width="4" x="1182.5444" y="516.0547"/><rect fill="#FEF3C7" height="2" style="stroke:#475569;stroke-width:0.5;" width="4" x="1182.5444" y="520.0547"/><text fill="#1F2937" font-family="Arial" font-size="13" lengthAdjust="spacing" textLength="42.6372" x="1062.5" y="541.2485">domain</text><text fill="#1F2937" font-family="Arial" font-size="13" lengthAdjust="spacing" textLength="117.0444" x="1062.5" y="556.1973">TradeOrder, Money,</text><text fill="#1F2937" font-family="Arial" font-size="13" lengthAdjust="spacing" textLength="93.939" x="1062.5" y="571.146">Quantity, events</text></g><!--entity TradingApp--><g class="entity" data-qualified-name="com.trading.platform.eztrade.trading.TradingApp" data-source-line="35" id="ent0024"><rect fill="#F8FAFC" height="59.8975" rx="2.5" ry="2.5" style="stroke:#475569;stroke-width:0.5;" width="171.1426" x="639.5" y="516.5547"/><rect fill="#F8FAFC" height="10" style="stroke:#475569;stroke-width:0.5;" width="15" x="790.6426" y="521.5547"/><rect fill="#F8FAFC" height="2" style="stroke:#475569;stroke-width:0.5;" width="4" x="788.6426" y="523.5547"/><rect fill="#F8FAFC" height="2" style="stroke:#475569;stroke-width:0.5;" width="4" x="788.6426" y="527.5547"/><text fill="#1F2937" font-family="Arial" font-size="13" lengthAdjust="spacing" textLength="62.1563" x="654.5" y="548.7485">application</text><text fill="#1F2937" font-family="Arial" font-size="13" lengthAdjust="spacing" textLength="131.1426" x="654.5" y="563.6973">TradingService + ports</text></g><!--entity TradingIn--><g class="entity" data-qualified-name="com.trading.platform.eztrade.trading.TradingIn" data-source-line="36" id="ent0025"><rect fill="#F8FAFC" height="74.8462" rx="2.5" ry="2.5" style="stroke:#475569;stroke-width:0.5;" width="167.1626" x="845.5" y="509.0547"/><rect fill="#F8FAFC" height="10" style="stroke:#475569;stroke-width:0.5;" width="15" x="992.6626" y="514.0547"/><rect fill="#F8FAFC" height="2" style="stroke:#475569;stroke-width:0.5;" width="4" x="990.6626" y="516.0547"/><rect fill="#F8FAFC" height="2" style="stroke:#475569;stroke-width:0.5;" width="4" x="990.6626" y="520.0547"/><text fill="#1F2937" font-family="Arial" font-size="13" lengthAdjust="spacing" textLength="85.2808" x="860.5" y="541.2485">adapter/in/web</text><text fill="#1F2937" font-family="Arial" font-size="13" lengthAdjust="spacing" textLength="104.0444" x="860.5" y="556.1973">TradingController,</text><text fill="#1F2937" font-family="Arial" font-size="13" lengthAdjust="spacing" textLength="127.1626" x="860.5" y="571.146">MarketplaceController</text></g><!--entity TradingPersistence--><g class="entity" data-qualified-name="com.trading.platform.eztrade.trading.TradingPersistence" data-source-line="37" id="ent0026"><rect fill="#F8FAFC" height="59.8975" rx="2.5" ry="2.5" style="stroke:#475569;stroke-width:0.5;" width="175.8652" x="639" y="644.0547"/><rect fill="#F8FAFC" height="10" style="stroke:#475569;stroke-width:0.5;" width="15" x="794.8652" y="649.0547"/><rect fill="#F8FAFC" height="2" style="stroke:#475569;stroke-width:0.5;" width="4" x="792.8652" y="651.0547"/><rect fill="#F8FAFC" height="2" style="stroke:#475569;stroke-width:0.5;" width="4" x="792.8652" y="655.0547"/><text fill="#1F2937" font-family="Arial" font-size="13" lengthAdjust="spacing" textLength="135.8652" x="654" y="676.2485">adapter/out/persistence</text><text fill="#1F2937" font-family="Arial" font-size="13" lengthAdjust="spacing" textLength="94.6499" x="654" y="691.1973">JPA repositories</text></g><!--entity TradingEvents--><g class="entity" data-qualified-name="com.trading.platform.eztrade.trading.TradingEvents" data-source-line="38" id="ent0027"><rect fill="#F8FAFC" height="59.8975" rx="2.5" ry="2.5" style="stroke:#475569;stroke-width:0.5;" width="147.688" x="850" y="644.0547"/><rect fill="#F8FAFC" height="10" style="stroke:#475569;stroke-width:0.5;" width="15" x="977.688" y="649.0547"/><rect fill="#F8FAFC" height="2" style="stroke:#475569;stroke-width:0.5;" width="4" x="975.688" y="651.0547"/><rect fill="#F8FAFC" height="2" style="stroke:#475569;stroke-width:0.5;" width="4" x="975.688" y="655.0547"/><text fill="#1F2937" font-family="Arial" font-size="13" lengthAdjust="spacing" textLength="107.688" x="865" y="676.2485">adapter/out/events</text><text fill="#1F2937" font-family="Arial" font-size="13" lengthAdjust="spacing" textLength="93.9453" x="865" y="691.1973">Spring publisher</text></g><!--entity WalletDomain--><g class="entity" data-qualified-name="com.trading.platform.eztrade.wallet.WalletDomain" data-source-line="42" id="ent0029"><rect fill="#FEF3C7" height="74.8462" rx="2.5" ry="2.5" style="stroke:#475569;stroke-width:0.5;" width="189.5635" x="1261" y="509.0547"/><rect fill="#FEF3C7" height="10" style="stroke:#475569;stroke-width:0.5;" width="15" x="1430.5635" y="514.0547"/><rect fill="#FEF3C7" height="2" style="stroke:#475569;stroke-width:0.5;" width="4" x="1428.5635" y="516.0547"/><rect fill="#FEF3C7" height="2" style="stroke:#475569;stroke-width:0.5;" width="4" x="1428.5635" y="520.0547"/><text fill="#1F2937" font-family="Arial" font-size="13" lengthAdjust="spacing" textLength="42.6372" x="1276" y="541.2485">domain</text><text fill="#1F2937" font-family="Arial" font-size="13" lengthAdjust="spacing" textLength="86.7026" x="1276" y="556.1973">WalletAccount,</text><text fill="#1F2937" font-family="Arial" font-size="13" lengthAdjust="spacing" textLength="149.5635" x="1276" y="571.146">WalletTransaction, events</text></g><!--entity WalletApp--><g class="entity" data-qualified-name="com.trading.platform.eztrade.wallet.WalletApp" data-source-line="43" id="ent0030"><rect fill="#F8FAFC" height="59.8975" rx="2.5" ry="2.5" style="stroke:#475569;stroke-width:0.5;" width="163.1826" x="1486.5" y="516.5547"/><rect fill="#F8FAFC" height="10" style="stroke:#475569;stroke-width:0.5;" width="15" x="1629.6826" y="521.5547"/><rect fill="#F8FAFC" height="2" style="stroke:#475569;stroke-width:0.5;" width="4" x="1627.6826" y="523.5547"/><rect fill="#F8FAFC" height="2" style="stroke:#475569;stroke-width:0.5;" width="4" x="1627.6826" y="527.5547"/><text fill="#1F2937" font-family="Arial" font-size="13" lengthAdjust="spacing" textLength="62.1563" x="1501.5" y="548.7485">application</text><text fill="#1F2937" font-family="Arial" font-size="13" lengthAdjust="spacing" textLength="123.1826" x="1501.5" y="563.6973">WalletService + ports</text></g><!--entity WalletWeb--><g class="entity" data-qualified-name="com.trading.platform.eztrade.wallet.WalletWeb" data-source-line="44" id="ent0031"><rect fill="#F8FAFC" height="59.8975" rx="2.5" ry="2.5" style="stroke:#475569;stroke-width:0.5;" width="132.4727" x="1685" y="516.5547"/><rect fill="#F8FAFC" height="10" style="stroke:#475569;stroke-width:0.5;" width="15" x="1797.4727" y="521.5547"/><rect fill="#F8FAFC" height="2" style="stroke:#475569;stroke-width:0.5;" width="4" x="1795.4727" y="523.5547"/><rect fill="#F8FAFC" height="2" style="stroke:#475569;stroke-width:0.5;" width="4" x="1795.4727" y="527.5547"/><text fill="#1F2937" font-family="Arial" font-size="13" lengthAdjust="spacing" textLength="85.2808" x="1700" y="548.7485">adapter/in/web</text><text fill="#1F2937" font-family="Arial" font-size="13" lengthAdjust="spacing" textLength="92.4727" x="1700" y="563.6973">WalletController</text></g><!--entity WalletEventIn--><g class="entity" data-qualified-name="com.trading.platform.eztrade.wallet.WalletEventIn" data-source-line="45" id="ent0032"><rect fill="#F8FAFC" height="59.8975" rx="2.5" ry="2.5" style="stroke:#475569;stroke-width:0.5;" width="170.0698" x="1852" y="516.5547"/><rect fill="#F8FAFC" height="10" style="stroke:#475569;stroke-width:0.5;" width="15" x="2002.0698" y="521.5547"/><rect fill="#F8FAFC" height="2" style="stroke:#475569;stroke-width:0.5;" width="4" x="2000.0698" y="523.5547"/><rect fill="#F8FAFC" height="2" style="stroke:#475569;stroke-width:0.5;" width="4" x="2000.0698" y="527.5547"/><text fill="#1F2937" font-family="Arial" font-size="13" lengthAdjust="spacing" textLength="99.7344" x="1867" y="548.7485">adapter/in/events</text><text fill="#1F2937" font-family="Arial" font-size="13" lengthAdjust="spacing" textLength="130.0698" x="1867" y="563.6973">TradingEventsListener</text></g><!--entity WalletPersistence--><g class="entity" data-qualified-name="com.trading.platform.eztrade.wallet.WalletPersistence" data-source-line="46" id="ent0033"><rect fill="#F8FAFC" height="59.8975" rx="2.5" ry="2.5" style="stroke:#475569;stroke-width:0.5;" width="175.8652" x="1480" y="644.0547"/><rect fill="#F8FAFC" height="10" style="stroke:#475569;stroke-width:0.5;" width="15" x="1635.8652" y="649.0547"/><rect fill="#F8FAFC" height="2" style="stroke:#475569;stroke-width:0.5;" width="4" x="1633.8652" y="651.0547"/><rect fill="#F8FAFC" height="2" style="stroke:#475569;stroke-width:0.5;" width="4" x="1633.8652" y="655.0547"/><text fill="#1F2937" font-family="Arial" font-size="13" lengthAdjust="spacing" textLength="135.8652" x="1495" y="676.2485">adapter/out/persistence</text><text fill="#1F2937" font-family="Arial" font-size="13" lengthAdjust="spacing" textLength="94.6499" x="1495" y="691.1973">JPA repositories</text></g><!--entity WalletEvents--><g class="entity" data-qualified-name="com.trading.platform.eztrade.wallet.WalletEvents" data-source-line="47" id="ent0034"><rect fill="#F8FAFC" height="59.8975" rx="2.5" ry="2.5" style="stroke:#475569;stroke-width:0.5;" width="147.688" x="1691" y="644.0547"/><rect fill="#F8FAFC" height="10" style="stroke:#475569;stroke-width:0.5;" width="15" x="1818.688" y="649.0547"/><rect fill="#F8FAFC" height="2" style="stroke:#475569;stroke-width:0.5;" width="4" x="1816.688" y="651.0547"/><rect fill="#F8FAFC" height="2" style="stroke:#475569;stroke-width:0.5;" width="4" x="1816.688" y="655.0547"/><text fill="#1F2937" font-family="Arial" font-size="13" lengthAdjust="spacing" textLength="107.688" x="1706" y="676.2485">adapter/out/events</text><text fill="#1F2937" font-family="Arial" font-size="13" lengthAdjust="spacing" textLength="93.9453" x="1706" y="691.1973">Spring publisher</text></g><!--entity PortfolioDomain--><g class="entity" data-qualified-name="com.trading.platform.eztrade.portfolio.PortfolioDomain" data-source-line="51" id="ent0036"><rect fill="#FEF3C7" height="74.8462" rx="2.5" ry="2.5" style="stroke:#475569;stroke-width:0.5;" width="188.1479" x="2078" y="509.0547"/><rect fill="#FEF3C7" height="10" style="stroke:#475569;stroke-width:0.5;" width="15" x="2246.1479" y="514.0547"/><rect fill="#FEF3C7" height="2" style="stroke:#475569;stroke-width:0.5;" width="4" x="2244.1479" y="516.0547"/><rect fill="#FEF3C7" height="2" style="stroke:#475569;stroke-width:0.5;" width="4" x="2244.1479" y="520.0547"/><text fill="#1F2937" font-family="Arial" font-size="13" lengthAdjust="spacing" textLength="42.6372" x="2093" y="541.2485">domain</text><text fill="#1F2937" font-family="Arial" font-size="13" lengthAdjust="spacing" textLength="145.2407" x="2093" y="556.1973">Position, CashProjection,</text><text fill="#1F2937" font-family="Arial" font-size="13" lengthAdjust="spacing" textLength="148.1479" x="2093" y="571.146">PortfolioSnapshot, events</text></g><!--entity PortfolioApp--><g class="entity" data-qualified-name="com.trading.platform.eztrade.portfolio.PortfolioApp" data-source-line="52" id="ent0037"><rect fill="#F8FAFC" height="59.8975" rx="2.5" ry="2.5" style="stroke:#475569;stroke-width:0.5;" width="174.7544" x="2301.5" y="516.5547"/><rect fill="#F8FAFC" height="10" style="stroke:#475569;stroke-width:0.5;" width="15" x="2456.2544" y="521.5547"/><rect fill="#F8FAFC" height="2" style="stroke:#475569;stroke-width:0.5;" width="4" x="2454.2544" y="523.5547"/><rect fill="#F8FAFC" height="2" style="stroke:#475569;stroke-width:0.5;" width="4" x="2454.2544" y="527.5547"/><text fill="#1F2937" font-family="Arial" font-size="13" lengthAdjust="spacing" textLength="62.1563" x="2316.5" y="548.7485">application</text><text fill="#1F2937" font-family="Arial" font-size="13" lengthAdjust="spacing" textLength="134.7544" x="2316.5" y="563.6973">PortfolioService + ports</text></g><!--entity PortfolioWeb--><g class="entity" data-qualified-name="com.trading.platform.eztrade.portfolio.PortfolioWeb" data-source-line="53" id="ent0038"><rect fill="#F8FAFC" height="59.8975" rx="2.5" ry="2.5" style="stroke:#475569;stroke-width:0.5;" width="144.0444" x="2512" y="516.5547"/><rect fill="#F8FAFC" height="10" style="stroke:#475569;stroke-width:0.5;" width="15" x="2636.0444" y="521.5547"/><rect fill="#F8FAFC" height="2" style="stroke:#475569;stroke-width:0.5;" width="4" x="2634.0444" y="523.5547"/><rect fill="#F8FAFC" height="2" style="stroke:#475569;stroke-width:0.5;" width="4" x="2634.0444" y="527.5547"/><text fill="#1F2937" font-family="Arial" font-size="13" lengthAdjust="spacing" textLength="85.2808" x="2527" y="548.7485">adapter/in/web</text><text fill="#1F2937" font-family="Arial" font-size="13" lengthAdjust="spacing" textLength="104.0444" x="2527" y="563.6973">PortfolioController</text></g><!--entity PortfolioEventIn--><g class="entity" data-qualified-name="com.trading.platform.eztrade.portfolio.PortfolioEventIn" data-source-line="54" id="ent0039"><rect fill="#F8FAFC" height="59.8975" rx="2.5" ry="2.5" style="stroke:#475569;stroke-width:0.5;" width="175.8271" x="2691" y="516.5547"/><rect fill="#F8FAFC" height="10" style="stroke:#475569;stroke-width:0.5;" width="15" x="2846.8271" y="521.5547"/><rect fill="#F8FAFC" height="2" style="stroke:#475569;stroke-width:0.5;" width="4" x="2844.8271" y="523.5547"/><rect fill="#F8FAFC" height="2" style="stroke:#475569;stroke-width:0.5;" width="4" x="2844.8271" y="527.5547"/><text fill="#1F2937" font-family="Arial" font-size="13" lengthAdjust="spacing" textLength="99.7344" x="2706" y="548.7485">adapter/in/events</text><text fill="#1F2937" font-family="Arial" font-size="13" lengthAdjust="spacing" textLength="135.8271" x="2706" y="563.6973">Trading/Wallet listeners</text></g><!--entity PortfolioPersistence--><g class="entity" data-qualified-name="com.trading.platform.eztrade.portfolio.PortfolioPersistence" data-source-line="55" id="ent0040"><rect fill="#F8FAFC" height="59.8975" rx="2.5" ry="2.5" style="stroke:#475569;stroke-width:0.5;" width="175.8652" x="2301" y="644.0547"/><rect fill="#F8FAFC" height="10" style="stroke:#475569;stroke-width:0.5;" width="15" x="2456.8652" y="649.0547"/><rect fill="#F8FAFC" height="2" style="stroke:#475569;stroke-width:0.5;" width="4" x="2454.8652" y="651.0547"/><rect fill="#F8FAFC" height="2" style="stroke:#475569;stroke-width:0.5;" width="4" x="2454.8652" y="655.0547"/><text fill="#1F2937" font-family="Arial" font-size="13" lengthAdjust="spacing" textLength="135.8652" x="2316" y="676.2485">adapter/out/persistence</text><text fill="#1F2937" font-family="Arial" font-size="13" lengthAdjust="spacing" textLength="94.6499" x="2316" y="691.1973">JPA repositories</text></g><!--entity PortfolioEvents--><g class="entity" data-qualified-name="com.trading.platform.eztrade.portfolio.PortfolioEvents" data-source-line="56" id="ent0041"><rect fill="#F8FAFC" height="59.8975" rx="2.5" ry="2.5" style="stroke:#475569;stroke-width:0.5;" width="147.688" x="2512" y="644.0547"/><rect fill="#F8FAFC" height="10" style="stroke:#475569;stroke-width:0.5;" width="15" x="2639.688" y="649.0547"/><rect fill="#F8FAFC" height="2" style="stroke:#475569;stroke-width:0.5;" width="4" x="2637.688" y="651.0547"/><rect fill="#F8FAFC" height="2" style="stroke:#475569;stroke-width:0.5;" width="4" x="2637.688" y="655.0547"/><text fill="#1F2937" font-family="Arial" font-size="13" lengthAdjust="spacing" textLength="107.688" x="2527" y="676.2485">adapter/out/events</text><text fill="#1F2937" font-family="Arial" font-size="13" lengthAdjust="spacing" textLength="93.9453" x="2527" y="691.1973">Spring publisher</text></g><!--entity NotificationsDomain--><g class="entity" data-qualified-name="com.trading.platform.eztrade.notifications.NotificationsDomain" data-source-line="60" id="ent0043"><rect fill="#FEF3C7" height="74.8462" rx="2.5" ry="2.5" style="stroke:#475569;stroke-width:0.5;" width="160.6689" x="2764.5" y="226.0547"/><rect fill="#FEF3C7" height="10" style="stroke:#475569;stroke-width:0.5;" width="15" x="2905.1689" y="231.0547"/><rect fill="#FEF3C7" height="2" style="stroke:#475569;stroke-width:0.5;" width="4" x="2903.1689" y="233.0547"/><rect fill="#FEF3C7" height="2" style="stroke:#475569;stroke-width:0.5;" width="4" x="2903.1689" y="237.0547"/><text fill="#1F2937" font-family="Arial" font-size="13" lengthAdjust="spacing" textLength="42.6372" x="2779.5" y="258.2485">domain</text><text fill="#1F2937" font-family="Arial" font-size="13" lengthAdjust="spacing" textLength="120.6689" x="2779.5" y="273.1973">NotificationMessage,</text><text fill="#1F2937" font-family="Arial" font-size="13" lengthAdjust="spacing" textLength="93.209" x="2779.5" y="288.146">NotificationType</text></g><!--entity NotificationsApp--><g class="entity" data-qualified-name="com.trading.platform.eztrade.notifications.NotificationsApp" data-source-line="61" id="ent0044"><rect fill="#F8FAFC" height="59.8975" rx="2.5" ry="2.5" style="stroke:#475569;stroke-width:0.5;" width="191.3726" x="2538.5" y="233.5547"/><rect fill="#F8FAFC" height="10" style="stroke:#475569;stroke-width:0.5;" width="15" x="2709.8726" y="238.5547"/><rect fill="#F8FAFC" height="2" style="stroke:#475569;stroke-width:0.5;" width="4" x="2707.8726" y="240.5547"/><rect fill="#F8FAFC" height="2" style="stroke:#475569;stroke-width:0.5;" width="4" x="2707.8726" y="244.5547"/><text fill="#1F2937" font-family="Arial" font-size="13" lengthAdjust="spacing" textLength="62.1563" x="2553.5" y="265.7485">application</text><text fill="#1F2937" font-family="Arial" font-size="13" lengthAdjust="spacing" textLength="151.3726" x="2553.5" y="280.6973">NotificationService + ports</text></g><!--entity NotificationsIn--><g class="entity" data-qualified-name="com.trading.platform.eztrade.notifications.NotificationsIn" data-source-line="62" id="ent0045"><rect fill="#F8FAFC" height="59.8975" rx="2.5" ry="2.5" style="stroke:#475569;stroke-width:0.5;" width="170.7871" x="2332.5" y="233.5547"/><rect fill="#F8FAFC" height="10" style="stroke:#475569;stroke-width:0.5;" width="15" x="2483.2871" y="238.5547"/><rect fill="#F8FAFC" height="2" style="stroke:#475569;stroke-width:0.5;" width="4" x="2481.2871" y="240.5547"/><rect fill="#F8FAFC" height="2" style="stroke:#475569;stroke-width:0.5;" width="4" x="2481.2871" y="244.5547"/><text fill="#1F2937" font-family="Arial" font-size="13" lengthAdjust="spacing" textLength="99.7344" x="2347.5" y="265.7485">adapter/in/events</text><text fill="#1F2937" font-family="Arial" font-size="13" lengthAdjust="spacing" textLength="130.7871" x="2347.5" y="280.6973">DomainEventsListener</text></g><!--entity NotificationsOut--><g class="entity" data-qualified-name="com.trading.platform.eztrade.notifications.NotificationsOut" data-source-line="63" id="ent0046"><rect fill="#F8FAFC" height="74.8462" rx="2.5" ry="2.5" style="stroke:#475569;stroke-width:0.5;" width="148.4053" x="2149" y="226.0547"/><rect fill="#F8FAFC" height="10" style="stroke:#475569;stroke-width:0.5;" width="15" x="2277.4053" y="231.0547"/><rect fill="#F8FAFC" height="2" style="stroke:#475569;stroke-width:0.5;" width="4" x="2275.4053" y="233.0547"/><rect fill="#F8FAFC" height="2" style="stroke:#475569;stroke-width:0.5;" width="4" x="2275.4053" y="237.0547"/><text fill="#1F2937" font-family="Arial" font-size="13" lengthAdjust="spacing" textLength="65.7744" x="2164" y="258.2485">adapter/out</text><text fill="#1F2937" font-family="Arial" font-size="13" lengthAdjust="spacing" textLength="108.3862" x="2164" y="273.1973">WebSocket, inbox,</text><text fill="#1F2937" font-family="Arial" font-size="13" lengthAdjust="spacing" textLength="108.4053" x="2164" y="288.146">logging email/push</text></g><g class="entity" data-qualified-name="GMN54" data-source-line="76" id="ent0055"><path d="M2982.5,378.5547 L2982.5,418.4521 L3505.0093,418.4521 L3505.0093,388.5547 L3495.0093,378.5547 L2982.5,378.5547" fill="#FFF7ED" style="stroke:#F97316;stroke-width:0.5;"/><path d="M3495.0093,378.5547 L3495.0093,388.5547 L3505.0093,388.5547 L3495.0093,378.5547" fill="#FFF7ED" style="stroke:#F97316;stroke-width:1;"/><text fill="#7C2D12" font-family="Arial" font-size="13" lengthAdjust="spacing" textLength="501.5093" x="2988.5" y="395.7485">Evidence: backend/src/main/java package tree, package-info.java module declarations,</text><text fill="#7C2D12" font-family="Arial" font-size="13" lengthAdjust="spacing" textLength="377.1841" x="2988.5" y="410.6973">controllers, application services, ports, adapters, and JPA folders.</text></g><!--link App to UserDomain--><g class="link" data-entity-1="ent0002" data-entity-2="ent0004" data-link-type="dependency" data-source-line="67" id="lnk47"><path d="M1948.3,118.0547 C1569.32,118.0547 132,118.0547 132,118.0547 C132,118.0547 132,185.7847 132,228.4047" fill="none" id="App-to-UserDomain" style="stroke:#394150;stroke-width:1.2;"/><polygon fill="#394150" points="132,233.4047,136,224.4047,132,228.4047,128,224.4047,132,233.4047" style="stroke:#394150;stroke-width:1.2;stroke-linejoin:miter;stroke-miterlimit:10;"/></g><!--link App to SecConfig--><g class="link" data-entity-1="ent0002" data-entity-2="ent0014" data-link-type="dependency" data-source-line="68" id="lnk48"><path d="M1948.35,130.0547 C1662.06,130.0547 796,130.0547 796,130.0547 C796,130.0547 796,181.5247 796,221.0147" fill="none" id="App-to-SecConfig" style="stroke:#394150;stroke-width:1.2;"/><polygon fill="#394150" points="796,226.0147,800,217.0147,796,221.0147,792,217.0147,796,226.0147" style="stroke:#394150;stroke-width:1.2;stroke-linejoin:miter;stroke-miterlimit:10;"/></g><!--link App to MarketDomain--><g class="link" data-entity-1="ent0002" data-entity-2="ent0016" data-link-type="dependency" data-source-line="69" id="lnk49"><path d="M1975.75,166.0547 C1975.75,193.5647 1975.75,230.0547 1975.75,230.0547 C1975.75,230.0547 1597.32,230.0547 1425.07,230.0547" fill="none" id="App-to-MarketDomain" style="stroke:#394150;stroke-width:1.2;"/><polygon fill="#394150" points="1420.07,230.0547,1429.07,234.0547,1425.07,230.0547,1429.07,226.0547,1420.07,230.0547" style="stroke:#394150;stroke-width:1.2;stroke-linejoin:miter;stroke-miterlimit:10;"/></g><!--link App to TradingDomain--><g class="link" data-entity-1="ent0002" data-entity-2="ent0023" data-link-type="dependency" data-source-line="70" id="lnk50"><path d="M1948.19,142.0547 C1736.91,142.0547 1230.25,142.0547 1230.25,142.0547 C1230.25,142.0547 1230.25,547.0547 1230.25,547.0547 C1230.25,547.0547 1224.42,547.0547 1209.75,547.0547" fill="none" id="App-to-TradingDomain" style="stroke:#394150;stroke-width:1.2;"/><polygon fill="#394150" points="1204.75,547.0547,1213.75,551.0547,1209.75,547.0547,1213.75,543.0547,1204.75,547.0547" style="stroke:#394150;stroke-width:1.2;stroke-linejoin:miter;stroke-miterlimit:10;"/></g><!--link App to WalletDomain--><g class="link" data-entity-1="ent0002" data-entity-2="ent0029" data-link-type="dependency" data-source-line="71" id="lnk51"><path d="M1948.43,154.0547 C1779.65,154.0547 1434,154.0547 1434,154.0547 C1434,154.0547 1434,405.6847 1434,503.9247" fill="none" id="App-to-WalletDomain" style="stroke:#394150;stroke-width:1.2;"/><polygon fill="#394150" points="1434,508.9247,1438,499.9247,1434,503.9247,1430,499.9247,1434,508.9247" style="stroke:#394150;stroke-width:1.2;stroke-linejoin:miter;stroke-miterlimit:10;"/></g><!--link App to PortfolioDomain--><g class="link" data-entity-1="ent0002" data-entity-2="ent0036" data-link-type="dependency" data-source-line="72" id="lnk52"><path d="M2103.75,166.2447 C2103.75,239.8347 2103.75,423.3947 2103.75,504.0447" fill="none" id="App-to-PortfolioDomain" style="stroke:#394150;stroke-width:1.2;"/><polygon fill="#394150" points="2103.75,509.0447,2107.75,500.0447,2103.75,504.0447,2099.75,500.0447,2103.75,509.0447" style="stroke:#394150;stroke-width:1.2;stroke-linejoin:miter;stroke-miterlimit:10;"/></g><!--link App to NotificationsDomain--><g class="link" data-entity-1="ent0002" data-entity-2="ent0043" data-link-type="dependency" data-source-line="73" id="lnk53"><path d="M2129.5,136.0547 C2340.06,136.0547 2845,136.0547 2845,136.0547 C2845,136.0547 2845,183.3847 2845,220.9947" fill="none" id="App-to-NotificationsDomain" style="stroke:#394150;stroke-width:1.2;"/><polygon fill="#394150" points="2845,225.9947,2849,216.9947,2845,220.9947,2841,216.9947,2845,225.9947" style="stroke:#394150;stroke-width:1.2;stroke-linejoin:miter;stroke-miterlimit:10;"/></g><!--link NotificationsOut to GMN54--><g class="link" data-entity-1="ent0046" data-entity-2="ent0055" data-link-type="association" data-source-line="76" id="lnk56"><path d="M2281.5,301.2947 C2281.5,341.3947 2281.5,399.0547 2281.5,399.0547 C2281.5,399.0547 2697.25,399.0547 2982.26,399.0547" fill="none" id="NotificationsOut-GMN54" style="stroke:#394150;stroke-width:1.2;stroke-dasharray:7,7;"/></g><?plantuml-src hLVVRzis47xNNy7bjRBrteUXZkEXxkh4cxqL60mCD4NRJ2cI8Aaaxj3_VSSVbYZPLMOiG81OnxkFn--xequ_CK5uNL8q7XVmHsHLIL7GRrRZaewCFN8wLdN5iymooocQ_RLsA-WMawzKb6Y4bl0Bxod2yBIGPGrEAwjhOcjDiqp5rHj07ZjG9lPZnR7TILsDuputw9yC8V1GKb1XqSticzzbeXHd15icnKPyM2aDmRTIsiH-Wx11y0o9_NqxcVuwkx_B0AlPjZPK1_ZE1gMiC0FGFs0vHxzBJdD4NmXL3jDuKBTqvzqSzjt3OZA_xyFWD44bjJM8YKBMDlVXAwgV6A4D7EHvXb1YPQakJibCfR1QSkxImcKdUYv-50mRRiIdvIH7Xf9QCtj4NCgljMfY7sfxdZlRY7jSqH9o1fGT9jGagJ88-DxXyWH-WK_IfBqHazeUscDun1KbhQKVQm9B8J2b3ABYOp_ayTaT-Dd6vHmfBPzOsUu6Q_sO7UFMfGTBRgDV_6FGQKBWw2PQDc9b8SgVue25e7pkw76r8Hlyu7k1XHtRrpeMX8C0UooG77sXsvM4jh6mnyVrUWaYxVTGqWb547v6UuKrn0mKyUfORINFqS8xBhLZP2Fcma0RLk2Peoaq9m-a1gUh2ZiaWA2L4C666lGE-LfFy5wfxE3KAufW7ApgWhx0Bu4vaCdL0V-9XGLE9ijvWZ2BFaCu19C3LDZK_IiZ1TZYPLesCKddSh5N4de_--vQ0WaT3ivR9jvu0-BvY-v1bwuM5x1s1Eb-g-6Sq6Xm9ps1So1w7Q2kKYx6n3Rfw1QN1eKhdkcs0KbkfXCNS8yJsbCrUW_BggWsp5WgNDl3nOKqLT8mQ316E-ajMyV1Cl4qGIVuLmHIzPOpS-XcDFC-PmezOqXzgBk-U0Uu8cGjNEU6Pm0L1fFGs8bAOVKgaKB89OtYrgzB51nxIWGZN3e3qIVYEXnzzentKFp2_zKqGBs5f4bIvuew_dQICpaWwj9bvhMROdE0Q-2H1YtTKWnV2QpCGTgElitgLHAtc1TKRXR_Wz2DRq_hndwLt4NW4V4eU2-VDn6zGNiBtRkfdKilf6MxoBePaFy-yLl0gn-2ywvrVLJXVPaQpLMYfv6NTEyW3sj_8YNiVw5BErYl38hj60A3trQ-mCdZ888emFD2rUPmZXf6oEyPCExcxT7evsH4Rapj67Eof0D7O-oyp1fhUdasnbx7DVOBmcGP5015MsbXWijcxjKErVOURSF7Ic4qAPnVyOYVS5CrLbCtGOQd4HCxEVRhLVYOAIdXE8nq9i_QGTV0WDxAZU8K2rQli9lUFUVk5tmPkTw0Ky1htempz-7aCit-1G00?></g></svg>