<svg xmlns="http://www.w3.org/2000/svg" xmlns:xlink="http://www.w3.org/1999/xlink" contentStyleType="text/css" data-diagram-type="DESCRIPTION" height="730px" preserveAspectRatio="none" style="width:757px;height:730px;background:#FFFFFF;" version="1.1" viewBox="0 0 757 730" width="757px" zoomAndPan="magnify"><?plantuml 1.2026.6?><defs/><g><g class="title" data-source-line="3"><text fill="#1F2937" font-family="Arial" font-size="20" font-weight="700" lengthAdjust="spacing" textLength="466.709" x="141.6924" y="28.7598">EZTrade - Logical Spring Modulith Dependencies</text></g><rect fill="#FFFFCC" height="18.0566" rx="2.5" ry="2.5" style="stroke:#FFDD88;stroke-width:3;" width="741.0938" x="3" y="46.998"/><text fill="#000000" font-family="monospace" font-size="10" lengthAdjust="spacing" textLength="354.0576" x="10" y="59.0547">Please&#160;use&#160;'!option&#160;handwritten&#160;true'&#160;to&#160;enable&#160;handwritten</text><!--cluster Spring Modulith application--><g class="cluster" data-qualified-name="Spring Modulith application" data-source-line="5" id="ent0001"><path d="M128,73.0547 L300.1519,73.0547 A3.75,3.75 0 0 1 302.6519,75.5547 L309.6519,94.0034 L588,94.0034 A2.5,2.5 0 0 1 590.5,96.5034 L590.5,614.5547 A2.5,2.5 0 0 1 588,617.0547 L128,617.0547 A2.5,2.5 0 0 1 125.5,614.5547 L125.5,75.5547 A2.5,2.5 0 0 1 128,73.0547" fill="#F8FAFC" style="stroke:#CBD5E1;stroke-width:1.5;"/><line style="stroke:#CBD5E1;stroke-width:1.5;" x1="125.5" x2="309.6519" y1="94.0034" y2="94.0034"/><text fill="#1F2937" font-family="Arial" font-size="13" font-weight="700" lengthAdjust="spacing" textLength="171.1519" x="129.5" y="87.2485">Spring Modulith application</text></g><!--entity User--><g class="entity" data-qualified-name="Spring Modulith application.User" data-source-line="6" id="ent0002"><rect fill="#DCFCE7" height="59.8975" rx="2.5" ry="2.5" style="stroke:#475569;stroke-width:0.5;" width="159.4312" x="415" y="241.0547"/><rect fill="#DCFCE7" height="10" style="stroke:#475569;stroke-width:0.5;" width="15" x="554.4312" y="246.0547"/><rect fill="#DCFCE7" height="2" style="stroke:#475569;stroke-width:0.5;" width="4" x="552.4312" y="248.0547"/><rect fill="#DCFCE7" height="2" style="stroke:#475569;stroke-width:0.5;" width="4" x="552.4312" y="252.0547"/><text fill="#1F2937" font-family="Arial" font-size="13" lengthAdjust="spacing" textLength="25.2891" x="430" y="273.2485">user</text><text fill="#1F2937" font-family="Arial" font-size="13" lengthAdjust="spacing" textLength="119.4312" x="430" y="288.1973">@ApplicationModule</text></g><!--entity Security--><g class="entity" data-qualified-name="Spring Modulith application.Security" data-source-line="7" id="ent0003"><rect fill="#DCFCE7" height="59.8975" rx="2.5" ry="2.5" style="stroke:#475569;stroke-width:0.5;" width="148.3926" x="420.5" y="113.5547"/><rect fill="#DCFCE7" height="10" style="stroke:#475569;stroke-width:0.5;" width="15" x="548.8926" y="118.5547"/><rect fill="#DCFCE7" height="2" style="stroke:#475569;stroke-width:0.5;" width="4" x="546.8926" y="120.5547"/><rect fill="#DCFCE7" height="2" style="stroke:#475569;stroke-width:0.5;" width="4" x="546.8926" y="124.5547"/><text fill="#1F2937" font-family="Arial" font-size="13" lengthAdjust="spacing" textLength="44.7891" x="435.5" y="145.7485">security</text><text fill="#1F2937" font-family="Arial" font-size="13" lengthAdjust="spacing" textLength="108.3926" x="435.5" y="160.6973">allowed: user :: api</text></g><!--entity Market--><g class="entity" data-qualified-name="Spring Modulith application.Market" data-source-line="8" id="ent0004"><rect fill="#DCFCE7" height="59.8975" rx="2.5" ry="2.5" style="stroke:#475569;stroke-width:0.5;" width="159.4312" x="152" y="526.0547"/><rect fill="#DCFCE7" height="10" style="stroke:#475569;stroke-width:0.5;" width="15" x="291.4312" y="531.0547"/><rect fill="#DCFCE7" height="2" style="stroke:#475569;stroke-width:0.5;" width="4" x="289.4312" y="533.0547"/><rect fill="#DCFCE7" height="2" style="stroke:#475569;stroke-width:0.5;" width="4" x="289.4312" y="537.0547"/><text fill="#1F2937" font-family="Arial" font-size="13" lengthAdjust="spacing" textLength="39.73" x="167" y="558.2485">market</text><text fill="#1F2937" font-family="Arial" font-size="13" lengthAdjust="spacing" textLength="119.4312" x="167" y="573.1973">@ApplicationModule</text></g><!--entity Trading--><g class="entity" data-qualified-name="Spring Modulith application.Trading" data-source-line="9" id="ent0005"><rect fill="#DCFCE7" height="59.8975" rx="2.5" ry="2.5" style="stroke:#475569;stroke-width:0.5;" width="162.8335" x="179" y="241.0547"/><rect fill="#DCFCE7" height="10" style="stroke:#475569;stroke-width:0.5;" width="15" x="321.8335" y="246.0547"/><rect fill="#DCFCE7" height="2" style="stroke:#475569;stroke-width:0.5;" width="4" x="319.8335" y="248.0547"/><rect fill="#DCFCE7" height="2" style="stroke:#475569;stroke-width:0.5;" width="4" x="319.8335" y="252.0547"/><text fill="#1F2937" font-family="Arial" font-size="13" lengthAdjust="spacing" textLength="39.749" x="194" y="273.2485">trading</text><text fill="#1F2937" font-family="Arial" font-size="13" lengthAdjust="spacing" textLength="122.8335" x="194" y="288.1973">allowed: market :: api</text></g><!--entity Wallet--><g class="entity" data-qualified-name="Spring Modulith application.Wallet" data-source-line="10" id="ent0006"><rect fill="#DCFCE7" height="74.8462" rx="2.5" ry="2.5" style="stroke:#475569;stroke-width:0.5;" width="187.418" x="167" y="106.0547"/><rect fill="#DCFCE7" height="10" style="stroke:#475569;stroke-width:0.5;" width="15" x="334.418" y="111.0547"/><rect fill="#DCFCE7" height="2" style="stroke:#475569;stroke-width:0.5;" width="4" x="332.418" y="113.0547"/><rect fill="#DCFCE7" height="2" style="stroke:#475569;stroke-width:0.5;" width="4" x="332.418" y="117.0547"/><text fill="#1F2937" font-family="Arial" font-size="13" lengthAdjust="spacing" textLength="33.2363" x="182" y="138.2485">wallet</text><text fill="#1F2937" font-family="Arial" font-size="13" lengthAdjust="spacing" textLength="147.418" x="182" y="153.1973">allowed: trading :: events,</text><text fill="#1F2937" font-family="Arial" font-size="13" lengthAdjust="spacing" textLength="57.0845" x="182" y="168.146">user :: api</text></g><!--entity Portfolio--><g class="entity" data-qualified-name="Spring Modulith application.Portfolio" data-source-line="11" id="ent0007"><rect fill="#DCFCE7" height="89.7949" rx="2.5" ry="2.5" style="stroke:#475569;stroke-width:0.5;" width="187.418" x="142" y="361.0547"/><rect fill="#DCFCE7" height="10" style="stroke:#475569;stroke-width:0.5;" width="15" x="309.418" y="366.0547"/><rect fill="#DCFCE7" height="2" style="stroke:#475569;stroke-width:0.5;" width="4" x="307.418" y="368.0547"/><rect fill="#DCFCE7" height="2" style="stroke:#475569;stroke-width:0.5;" width="4" x="307.418" y="372.0547"/><text fill="#1F2937" font-family="Arial" font-size="13" lengthAdjust="spacing" textLength="46.249" x="157" y="393.2485">portfolio</text><text fill="#1F2937" font-family="Arial" font-size="13" lengthAdjust="spacing" textLength="147.418" x="157" y="408.1973">allowed: trading :: events,</text><text fill="#1F2937" font-family="Arial" font-size="13" lengthAdjust="spacing" textLength="89.5972" x="157" y="423.146">wallet :: events,</text><text fill="#1F2937" font-family="Arial" font-size="13" lengthAdjust="spacing" textLength="71.5254" x="157" y="438.0947">market :: api</text></g><!--entity Notifications--><g class="entity" data-qualified-name="Spring Modulith application.Notifications" data-source-line="12" id="ent0008"><rect fill="#DCFCE7" height="89.7949" rx="2.5" ry="2.5" style="stroke:#475569;stroke-width:0.5;" width="187.418" x="346" y="511.0547"/><rect fill="#DCFCE7" height="10" style="stroke:#475569;stroke-width:0.5;" width="15" x="513.418" y="516.0547"/><rect fill="#DCFCE7" height="2" style="stroke:#475569;stroke-width:0.5;" width="4" x="511.418" y="518.0547"/><rect fill="#DCFCE7" height="2" style="stroke:#475569;stroke-width:0.5;" width="4" x="511.418" y="522.0547"/><text fill="#1F2937" font-family="Arial" font-size="13" lengthAdjust="spacing" textLength="68.6499" x="361" y="543.2485">notifications</text><text fill="#1F2937" font-family="Arial" font-size="13" lengthAdjust="spacing" textLength="147.418" x="361" y="558.1973">allowed: trading :: events,</text><text fill="#1F2937" font-family="Arial" font-size="13" lengthAdjust="spacing" textLength="102.6099" x="361" y="573.146">portfolio :: events,</text><text fill="#1F2937" font-family="Arial" font-size="13" lengthAdjust="spacing" textLength="85.9854" x="361" y="588.0947">wallet :: events</text></g><g class="entity" data-qualified-name="GMN20" data-source-line="29" id="ent0021"><path d="M136.5,661.0547 L136.5,715.9009 A0,0 0 0 0 136.5,715.9009 L742.0938,715.9009 A0,0 0 0 0 742.0938,715.9009 L742.0938,671.0547 L732.0938,661.0547 L443.5,661.0547 L439.5,601.2847 L435.5,661.0547 L136.5,661.0547 A0,0 0 0 0 136.5,661.0547" fill="#FFF7ED" style="stroke:#F97316;stroke-width:0.5;"/><path d="M732.0938,661.0547 L732.0938,671.0547 L742.0938,671.0547 L732.0938,661.0547" fill="#FFF7ED" style="stroke:#F97316;stroke-width:0.5;"/><text fill="#7C2D12" font-family="Arial" font-size="13" lengthAdjust="spacing" textLength="370.0049" x="142.5" y="678.2485">Evidence: package-info.java files declare allowedDependencies.</text><text fill="#7C2D12" font-family="Arial" font-size="13" lengthAdjust="spacing" textLength="405.3867" x="142.5" y="693.1973">ModulithStructureTest verifies the module graph during the test phase.</text><text fill="#7C2D12" font-family="Arial" font-size="13" lengthAdjust="spacing" textLength="584.5938" x="142.5" y="708.146">Solid arrows represent direct port/API dependencies; dashed arrows represent Spring domain events.</text></g><!--link Security to User--><g class="link" data-entity-1="ent0003" data-entity-2="ent0002" data-link-type="dependency" data-source-line="15" id="lnk9"><path d="M494.5,173.7747 C494.5,193.9447 494.5,215.3947 494.5,235.6147" fill="none" id="Security-to-User" style="stroke:#394150;stroke-width:1.2;"/><polygon fill="#394150" points="494.5,240.6147,498.5,231.6147,494.5,235.6147,490.5,231.6147,494.5,240.6147" style="stroke:#394150;stroke-width:1.2;stroke-linejoin:miter;stroke-miterlimit:10;"/><text fill="#000000" font-family="Arial" font-size="13" lengthAdjust="spacing" textLength="146.6689" x="345.9536" y="220.3885">LoadUserForSecurityPort</text><text fill="#000000" font-family="Arial" font-size="13" lengthAdjust="spacing" textLength="149.5762" x="344.5" y="235.3373">UserOwnerLookup via api</text></g><!--link Trading to Market--><g class="link" data-entity-1="ent0005" data-entity-2="ent0004" data-link-type="dependency" data-source-line="16" id="lnk10"><path d="M333.33,301.2847 C333.33,374.6347 333.33,556.0547 333.33,556.0547 C333.33,556.0547 329.12,556.0547 316.24,556.0547" fill="none" id="Trading-to-Market" style="stroke:#394150;stroke-width:1.2;"/><polygon fill="#394150" points="311.24,556.0547,320.24,560.0547,316.24,556.0547,320.24,552.0547,311.24,556.0547" style="stroke:#394150;stroke-width:1.2;stroke-linejoin:miter;stroke-miterlimit:10;"/><text fill="#000000" font-family="Arial" font-size="13" lengthAdjust="spacing" textLength="135.8398" x="334.33" y="452.9085">MarketPriceLookupPort</text><text fill="#000000" font-family="Arial" font-size="13" lengthAdjust="spacing" textLength="119.9136" x="342.2931" y="467.8573">currentPrice(symbol)</text></g><!--link Portfolio to Market--><g class="link" data-entity-1="ent0007" data-entity-2="ent0004" data-link-type="dependency" data-source-line="17" id="lnk11"><path d="M231.5,451.0547 C231.5,475.2247 231.5,499.3547 231.5,520.8047" fill="none" id="Portfolio-to-Market" style="stroke:#394150;stroke-width:1.2;"/><polygon fill="#394150" points="231.5,525.8047,235.5,516.8047,231.5,520.8047,227.5,516.8047,231.5,525.8047" style="stroke:#394150;stroke-width:1.2;stroke-linejoin:miter;stroke-miterlimit:10;"/><text fill="#000000" font-family="Arial" font-size="13" lengthAdjust="spacing" textLength="135.8398" x="95.5" y="470.6285">MarketPriceLookupPort</text><text fill="#000000" font-family="Arial" font-size="13" lengthAdjust="spacing" textLength="52.0381" x="137.4009" y="485.5773">valuation</text></g><!--link Wallet to User--><g class="link" data-entity-1="ent0006" data-entity-2="ent0002" data-link-type="dependency" data-source-line="18" id="lnk12"><path d="M351.33,181.1147 C351.33,218.7247 351.33,271.0547 351.33,271.0547 C351.33,271.0547 377.01,271.0547 409.96,271.0547" fill="none" id="Wallet-to-User" style="stroke:#394150;stroke-width:1.2;"/><polygon fill="#394150" points="414.96,271.0547,405.96,267.0547,409.96,271.0547,405.96,275.0547,414.96,271.0547" style="stroke:#394150;stroke-width:1.2;stroke-linejoin:miter;stroke-miterlimit:10;"/><text fill="#000000" font-family="Arial" font-size="13" lengthAdjust="spacing" textLength="132.228" x="355.5863" y="271.0985">UserOwnerLookupPort</text><text fill="#000000" font-family="Arial" font-size="13" lengthAdjust="spacing" textLength="138.7407" x="352.33" y="286.0473">transfer recipient lookup</text></g><!--link Trading to Wallet--><g class="link" data-entity-1="ent0005" data-entity-2="ent0006" data-link-type="dependency" data-source-line="20" id="lnk13"><path d="M287.67,240.8347 C287.67,223.0147 287.67,205.3147 287.67,186.3147" fill="none" id="Trading-to-Wallet" style="stroke:#394150;stroke-width:1.2;stroke-dasharray:7,7;"/><polygon fill="#394150" points="287.67,181.3147,283.67,190.3147,287.67,186.3147,291.67,190.3147,287.67,181.3147" style="stroke:#394150;stroke-width:1.2;stroke-linejoin:miter;stroke-miterlimit:10;"/><text fill="#000000" font-family="Arial" font-size="13" lengthAdjust="spacing" textLength="106.2217" x="148.5509" y="178.2685">OrderPlacedEvent</text><text fill="#000000" font-family="Arial" font-size="13" lengthAdjust="spacing" textLength="124.2871" x="139.5181" y="193.2173">OrderCancelledEvent</text><text fill="#000000" font-family="Arial" font-size="13" lengthAdjust="spacing" textLength="171.9834" x="115.67" y="208.166">OrderExecutionRequestEvent</text></g><!--link Wallet to Trading--><g class="link" data-entity-1="ent0006" data-entity-2="ent0005" data-link-type="dependency" data-source-line="21" id="lnk14"><path d="M233.33,181.1147 C233.33,200.2147 233.33,218.1147 233.33,236.0247" fill="none" id="Wallet-to-Trading" style="stroke:#394150;stroke-width:1.2;stroke-dasharray:7,7;"/><polygon fill="#394150" points="233.33,241.0247,237.33,232.0247,233.33,236.0247,229.33,232.0247,233.33,241.0247" style="stroke:#394150;stroke-width:1.2;stroke-linejoin:miter;stroke-miterlimit:10;"/><text fill="#000000" font-family="Arial" font-size="13" lengthAdjust="spacing" textLength="120.6753" x="112.33" y="224.2685">OrderExecutedEvent</text><text fill="#000000" font-family="Arial" font-size="13" lengthAdjust="spacing" textLength="98.2554" x="123.54" y="239.2173">(after settlement)</text></g><!--link Trading to Portfolio--><g class="link" data-entity-1="ent0005" data-entity-2="ent0007" data-link-type="dependency" data-source-line="22" id="lnk15"><path d="M254,301.3547 C254,318.9247 254,336.3747 254,355.9847" fill="none" id="Trading-to-Portfolio" style="stroke:#394150;stroke-width:1.2;stroke-dasharray:7,7;"/><polygon fill="#394150" points="254,360.9847,258,351.9847,254,355.9847,250,351.9847,254,360.9847" style="stroke:#394150;stroke-width:1.2;stroke-linejoin:miter;stroke-miterlimit:10;"/><text fill="#000000" font-family="Arial" font-size="13" lengthAdjust="spacing" textLength="120.6753" x="133" y="328.3685">OrderExecutedEvent</text></g><!--link Wallet to Portfolio--><g class="link" data-entity-1="ent0006" data-entity-2="ent0007" data-link-type="dependency" data-source-line="23" id="lnk16"><path d="M173,181.1647 C173,228.6547 173,305.2747 173,356.0347" fill="none" id="Wallet-to-Portfolio" style="stroke:#394150;stroke-width:1.2;stroke-dasharray:7,7;"/><polygon fill="#394150" points="173,361.0347,177,352.0347,173,356.0347,169,352.0347,173,361.0347" style="stroke:#394150;stroke-width:1.2;stroke-linejoin:miter;stroke-miterlimit:10;"/><text fill="#000000" font-family="Arial" font-size="13" lengthAdjust="spacing" textLength="165.4961" x="7" y="268.2885">AvailableCashUpdatedEvent</text></g><!--link Trading to Notifications--><g class="link" data-entity-1="ent0005" data-entity-2="ent0008" data-link-type="dependency" data-source-line="24" id="lnk17"><path d="M337.67,301.0947 C337.67,366.5147 337.67,516.0547 337.67,516.0547 C337.67,516.0547 335.67,516.0547 340.66,516.0547" fill="none" id="Trading-to-Notifications" style="stroke:#394150;stroke-width:1.2;stroke-dasharray:7,7;"/><polygon fill="#394150" points="345.66,516.0547,336.66,512.0547,340.66,516.0547,336.66,520.0547,345.66,516.0547" style="stroke:#394150;stroke-width:1.2;stroke-linejoin:miter;stroke-miterlimit:10;"/><text fill="#000000" font-family="Arial" font-size="13" lengthAdjust="spacing" textLength="72.2617" x="338.67" y="409.7685">order events</text></g><!--link Wallet to Notifications--><g class="link" data-entity-1="ent0006" data-entity-2="ent0008" data-link-type="dependency" data-source-line="25" id="lnk18"><path d="M348.67,181.2547 C348.67,257.3247 348.67,423.9147 348.67,505.8547" fill="none" id="Wallet-to-Notifications" style="stroke:#394150;stroke-width:1.2;stroke-dasharray:7,7;"/><polygon fill="#394150" points="348.67,510.8547,352.67,501.8547,348.67,505.8547,344.67,501.8547,348.67,510.8547" style="stroke:#394150;stroke-width:1.2;stroke-linejoin:miter;stroke-miterlimit:10;"/><text fill="#000000" font-family="Arial" font-size="13" lengthAdjust="spacing" textLength="131.5171" x="349.67" y="343.2485">InsufficientFundsEvent</text></g><!--link Portfolio to Notifications--><g class="link" data-entity-1="ent0007" data-entity-2="ent0008" data-link-type="dependency" data-source-line="26" id="lnk19"><path d="M320,451.1747 C320,483.3947 320,521.0547 320,521.0547 C320,521.0547 325.81,521.0547 340.93,521.0547" fill="none" id="Portfolio-to-Notifications" style="stroke:#394150;stroke-width:1.2;stroke-dasharray:7,7;"/><polygon fill="#394150" points="345.93,521.0547,336.93,517.0547,340.93,521.0547,336.93,525.0547,345.93,521.0547" style="stroke:#394150;stroke-width:1.2;stroke-linejoin:miter;stroke-miterlimit:10;"/><text fill="#000000" font-family="Arial" font-size="13" lengthAdjust="spacing" textLength="184.2915" x="135" y="512.2785">PortfolioValuationUpdatedEvent</text></g><?plantuml-src ZLJRRjim37tNLt1vQe75UVU0ObcR0iLw2PPq0uO0WshHYLPPqYJPMJVqtqVv5YThrW5vCCXp3WyfXc-apbGf499aGh_C58NH4_mL71Suzk59OMBBGZ4MP508iw_Bc84nN9krpBY2XNLIh-76Y5B9i84BjAW5waoYPypox96l4KQ7C6wj8dwGHe_WDmEWqjPer056fKUtqk-dEqXDmn5m3_UK91lVFapFFyvkB_QP7hFIoV2qqbmfiqMHGXI3DAM2ikOlMiXHZOAxHmn7wz_KwQFiE3XgT62WqHjQM3QOenfRuaO7lKGh6ZMm8eX_kzA7VNsfIKSrhN4XDqgQLsIRsdkXlnkOTs97osaJPDuEpxzIihVsJoDruTkXxB3uCsFzmux7PysMfBIaNCJFI-EwTFI-qZ5ujzNehervB2rKaiVkMFSqKQDzwRJzc3kPOGDlD4ZFaRCwVkAVYWUZJjbkDFyZKN5Lrismzla6tWyiDWIQd_OvvHrcqieuQrMdMMyzISwwPKZXpWbqSyKp5BCunfMk8-TSPqYGlU3i9uqeclc4FqhqeSvrng9gLw6LRV2znWdF0ndp6EXG51GwtREq6ynBz66P8N9QSQduWy9pxZVtLl2UCDJUNuiKJDHlzsQeV8YxqhxCAH3dU5bguHlfdO6NI7tsS_TuUxuOhJx2Wmd156nMoNWACONs48wbpatodLSSSgdGWy1CSOVG_aE6rpDXtRLS15TceNIuf6U12XqP8cxO81JrPOArutO3egoFR8o7YBGRxZ5X2t8hW3jdjfuMnphqSN64f2KY4FKpcSwloCgkzZiGD71yWTKUSc4ABdKxuuGH4MBZx0y0?></g></svg>