<svg xmlns="http://www.w3.org/2000/svg" xmlns:xlink="http://www.w3.org/1999/xlink" contentStyleType="text/css" data-diagram-type="DESCRIPTION" height="727px" preserveAspectRatio="none" style="width:705px;height:727px;background:#FFFFFF;" version="1.1" viewBox="0 0 705 727" width="705px" zoomAndPan="magnify"><?plantuml 1.2026.3?><defs/><g><g class="title" data-source-line="3"><text fill="#1F2937" font-family="Arial" font-size="20" font-weight="700" lengthAdjust="spacing" textLength="647.1191" x="25.6925" y="28.5645">EZTrade Operations - Evidencia de ramas y publicaciones</text></g><rect fill="#FFFFCC" height="16.6406" rx="2.5" ry="2.5" style="stroke:#FFDD88;stroke-width:3;" width="689.504" x="3" y="47.2813"/><text fill="#000000" font-family="monospace" font-size="10" lengthAdjust="spacing" textLength="355.21" x="10" y="57.9219">Please&#160;use&#160;'!option&#160;handwritten&#160;true'&#160;to&#160;enable&#160;handwritten</text><!--entity Developer--><g class="entity" data-qualified-name="Developer" data-source-line="5" id="ent0002"><ellipse cx="279.6885" cy="79.9219" fill="#FFFFFF" rx="8" ry="8" style="stroke:#475569;stroke-width:0.5;"/><path d="M279.6885,87.9219 L279.6885,114.9219 M266.6885,95.9219 L292.6885,95.9219 M279.6885,114.9219 L266.6885,129.9219 M279.6885,114.9219 L292.6885,129.9219" fill="none" style="stroke:#475569;stroke-width:0.5;"/><text fill="#1F2937" font-family="Arial" font-size="13" lengthAdjust="spacing" textLength="100.4771" x="229.45" y="143.4888">Desarrollador/a</text></g><!--entity Main--><g class="entity" data-qualified-name="Main" data-source-line="6" id="ent0003"><rect fill="#EDE9FE" height="45.1328" rx="2.5" ry="2.5" style="stroke:#475569;stroke-width:0.5;" width="137.1572" x="150.11" y="206.5519"/><rect fill="#EDE9FE" height="10" style="stroke:#475569;stroke-width:0.5;" width="15" x="267.2672" y="211.5519"/><rect fill="#EDE9FE" height="2" style="stroke:#475569;stroke-width:0.5;" width="4" x="265.2672" y="213.5519"/><rect fill="#EDE9FE" height="2" style="stroke:#475569;stroke-width:0.5;" width="4" x="265.2672" y="217.5519"/><text fill="#1F2937" font-family="Arial" font-size="13" lengthAdjust="spacing" textLength="97.1572" x="165.11" y="238.6188">Rama Git main</text></g><!--entity PushCi--><g class="entity" data-qualified-name="PushCi" data-source-line="7" id="ent0004"><rect fill="#EDE9FE" height="60.2656" rx="2.5" ry="2.5" style="stroke:#475569;stroke-width:0.5;" width="136.897" x="116.24" y="311.6919"/><rect fill="#EDE9FE" height="10" style="stroke:#475569;stroke-width:0.5;" width="15" x="233.137" y="316.6919"/><rect fill="#EDE9FE" height="2" style="stroke:#475569;stroke-width:0.5;" width="4" x="231.137" y="318.6919"/><rect fill="#EDE9FE" height="2" style="stroke:#475569;stroke-width:0.5;" width="4" x="231.137" y="322.6919"/><text fill="#1F2937" font-family="Arial" font-size="13" lengthAdjust="spacing" textLength="96.897" x="131.24" y="343.7588">GitHub Actions</text><text fill="#1F2937" font-family="Arial" font-size="13" lengthAdjust="spacing" textLength="85.2998" x="131.24" y="358.8916">push to main</text></g><!--entity PrCi--><g class="entity" data-qualified-name="PrCi" data-source-line="8" id="ent0005"><rect fill="#EDE9FE" height="60.2656" rx="2.5" ry="2.5" style="stroke:#475569;stroke-width:0.5;" width="173.7134" x="287.83" y="311.6919"/><rect fill="#EDE9FE" height="10" style="stroke:#475569;stroke-width:0.5;" width="15" x="441.5434" y="316.6919"/><rect fill="#EDE9FE" height="2" style="stroke:#475569;stroke-width:0.5;" width="4" x="439.5434" y="318.6919"/><rect fill="#EDE9FE" height="2" style="stroke:#475569;stroke-width:0.5;" width="4" x="439.5434" y="322.6919"/><text fill="#1F2937" font-family="Arial" font-size="13" lengthAdjust="spacing" textLength="96.897" x="302.83" y="343.7588">GitHub Actions</text><text fill="#1F2937" font-family="Arial" font-size="13" lengthAdjust="spacing" textLength="133.7134" x="302.83" y="358.8916">pull_request to main</text></g><!--entity Verify--><g class="entity" data-qualified-name="Verify" data-source-line="9" id="ent0006"><rect fill="#DCFCE7" height="45.1328" rx="2.5" ry="2.5" style="stroke:#475569;stroke-width:0.5;" width="184.3457" x="187.51" y="431.9519"/><rect fill="#DCFCE7" height="10" style="stroke:#475569;stroke-width:0.5;" width="15" x="351.8557" y="436.9519"/><rect fill="#DCFCE7" height="2" style="stroke:#475569;stroke-width:0.5;" width="4" x="349.8557" y="438.9519"/><rect fill="#DCFCE7" height="2" style="stroke:#475569;stroke-width:0.5;" width="4" x="349.8557" y="442.9519"/><text fill="#1F2937" font-family="Arial" font-size="13" lengthAdjust="spacing" textLength="144.3457" x="202.51" y="464.0188">Backend Maven verify</text></g><!--entity DeployMissing--><g class="entity" data-qualified-name="DeployMissing" data-source-line="10" id="ent0007"><rect fill="#FEE2E2" height="60.2656" rx="2.5" ry="2.5" style="stroke:#475569;stroke-width:0.5;" width="207.6099" x="42.88" y="537.0919"/><rect fill="#FEE2E2" height="10" style="stroke:#475569;stroke-width:0.5;" width="15" x="230.4899" y="542.0919"/><rect fill="#FEE2E2" height="2" style="stroke:#475569;stroke-width:0.5;" width="4" x="228.4899" y="544.0919"/><rect fill="#FEE2E2" height="2" style="stroke:#475569;stroke-width:0.5;" width="4" x="228.4899" y="548.0919"/><text fill="#1F2937" font-family="Arial" font-size="13" lengthAdjust="spacing" textLength="167.6099" x="57.88" y="569.1588">Job de despliegue/release</text><text fill="#1F2937" font-family="Arial" font-size="13" lengthAdjust="spacing" textLength="94.5166" x="57.88" y="584.2916">no encontrado</text></g><!--entity ReleaseMissing--><g class="entity" data-qualified-name="ReleaseMissing" data-source-line="11" id="ent0008"><rect fill="#FEE2E2" height="60.2656" rx="2.5" ry="2.5" style="stroke:#475569;stroke-width:0.5;" width="254.4429" x="285.46" y="537.0919"/><rect fill="#FEE2E2" height="10" style="stroke:#475569;stroke-width:0.5;" width="15" x="519.9029" y="542.0919"/><rect fill="#FEE2E2" height="2" style="stroke:#475569;stroke-width:0.5;" width="4" x="517.9029" y="544.0919"/><rect fill="#FEE2E2" height="2" style="stroke:#475569;stroke-width:0.5;" width="4" x="517.9029" y="548.0919"/><text fill="#1F2937" font-family="Arial" font-size="13" lengthAdjust="spacing" textLength="214.4429" x="300.46" y="569.1588">Estrategia de release versionado</text><text fill="#1F2937" font-family="Arial" font-size="13" lengthAdjust="spacing" textLength="179.8926" x="300.46" y="584.2916">no documentada en el repo</text></g><g class="entity" data-qualified-name="GMN16" data-source-line="22" id="ent0017"><path d="M134.86,657.3519 L134.86,712.7503 A0,0 0 0 0 134.86,712.7503 L690.504,712.7503 A0,0 0 0 0 690.504,712.7503 L690.504,667.3519 L680.504,657.3519 L416.68,657.3519 L412.68,597.5619 L408.68,657.3519 L134.86,657.3519 A0,0 0 0 0 134.86,657.3519" fill="#FFF7ED" style="stroke:#F97316;stroke-width:0.5;"/><path d="M680.504,657.3519 L680.504,667.3519 L690.504,667.3519 L680.504,657.3519" fill="#FFF7ED" style="stroke:#F97316;stroke-width:0.5;"/><text fill="#7C2D12" font-family="Arial" font-size="13" lengthAdjust="spacing" textLength="280.2744" x="140.86" y="674.4188">Evidencia: ../.github/workflows/maven.yml.</text><text fill="#7C2D12" font-family="Arial" font-size="13" lengthAdjust="spacing" textLength="534.644" x="140.86" y="689.5516">Solo se pueden inferir triggers sobre la rama main. No hay entornos staging/prod,</text><text fill="#7C2D12" font-family="Arial" font-size="13" lengthAdjust="spacing" textLength="386.1152" x="140.86" y="704.6844">flujo de release por tag ni documento de politica de ramas.</text></g><!--link Developer to Main--><g class="link" data-entity-1="ent0002" data-entity-2="ent0003" data-link-type="dependency" data-source-line="13" id="lnk9"><path d="M258.35,147.0019 C258.35,166.5219 258.35,183.6519 258.35,200.3819" fill="none" id="Developer-to-Main" style="stroke:#394150;stroke-width:1.2;"/><polygon fill="#394150" points="258.35,206.3819,262.35,197.3819,258.35,201.3819,254.35,197.3819,258.35,206.3819" style="stroke:#394150;stroke-width:1.2;"/><text fill="#000000" font-family="Arial" font-size="13" lengthAdjust="spacing" textLength="31.5034" x="226.35" y="172.7588">push</text></g><!--link Developer to PrCi--><g class="link" data-entity-1="ent0002" data-entity-2="ent0005" data-link-type="dependency" data-source-line="14" id="lnk10"><path d="M308.87,146.9119 C308.87,192.7919 308.87,263.1019 308.87,305.3419" fill="none" id="Developer-to-PrCi" style="stroke:#394150;stroke-width:1.2;"/><polygon fill="#394150" points="308.87,311.3419,312.87,302.3419,308.87,306.3419,304.87,302.3419,308.87,311.3419" style="stroke:#394150;stroke-width:1.2;"/><text fill="#000000" font-family="Arial" font-size="13" lengthAdjust="spacing" textLength="126.2422" x="309.87" y="225.1988">abre PR hacia main</text></g><!--link Main to PushCi--><g class="link" data-entity-1="ent0003" data-entity-2="ent0004" data-link-type="dependency" data-source-line="15" id="lnk11"><path d="M201.62,251.9319 C201.62,269.0419 201.62,286.6319 201.62,305.3519" fill="none" id="Main-to-PushCi" style="stroke:#394150;stroke-width:1.2;"/><polygon fill="#394150" points="201.62,311.3519,205.62,302.3519,201.62,306.3519,197.62,302.3519,201.62,311.3519" style="stroke:#394150;stroke-width:1.2;"/></g><!--link PushCi to Verify--><g class="link" data-entity-1="ent0004" data-entity-2="ent0006" data-link-type="dependency" data-source-line="16" id="lnk12"><path d="M220.32,372.3219 C220.32,390.9619 220.32,408.4319 220.32,425.5119" fill="none" id="PushCi-to-Verify" style="stroke:#394150;stroke-width:1.2;"/><polygon fill="#394150" points="220.32,431.5119,224.32,422.5119,220.32,426.5119,216.32,422.5119,220.32,431.5119" style="stroke:#394150;stroke-width:1.2;"/></g><!--link PrCi to Verify--><g class="link" data-entity-1="ent0005" data-entity-2="ent0006" data-link-type="dependency" data-source-line="17" id="lnk13"><path d="M329.84,372.3219 C329.84,390.9619 329.84,408.4319 329.84,425.5119" fill="none" id="PrCi-to-Verify" style="stroke:#394150;stroke-width:1.2;"/><polygon fill="#394150" points="329.84,431.5119,333.84,422.5119,329.84,426.5119,325.84,422.5119,329.84,431.5119" style="stroke:#394150;stroke-width:1.2;"/></g><!--link Verify to DeployMissing--><g class="link" data-entity-1="ent0006" data-entity-2="ent0007" data-link-type="dependency" data-source-line="18" id="lnk14"><path d="M219,477.3319 C219,494.4319 219,512.0319 219,530.7519" fill="none" id="Verify-to-DeployMissing" style="stroke:#394150;stroke-width:1.2;stroke-dasharray:7,7;"/><polygon fill="#394150" points="219,536.7519,223,527.7519,219,531.7519,215,527.7519,219,536.7519" style="stroke:#394150;stroke-width:1.2;"/><text fill="#000000" font-family="Arial" font-size="13" lengthAdjust="spacing" textLength="211.6626" x="7" y="503.1088">sin paso posterior de despliegue</text></g><!--link Verify to ReleaseMissing--><g class="link" data-entity-1="ent0006" data-entity-2="ent0008" data-link-type="dependency" data-source-line="19" id="lnk15"><path d="M328.66,477.3319 C328.66,494.4319 328.66,512.0319 328.66,530.7519" fill="none" id="Verify-to-ReleaseMissing" style="stroke:#394150;stroke-width:1.2;stroke-dasharray:7,7;"/><polygon fill="#394150" points="328.66,536.7519,332.66,527.7519,328.66,531.7519,324.66,527.7519,328.66,536.7519" style="stroke:#394150;stroke-width:1.2;"/><text fill="#000000" font-family="Arial" font-size="13" lengthAdjust="spacing" textLength="275.2407" x="52.66" y="520.1088">sin flujo declarado de artefacto de release</text></g><?plantuml-src ZLFBRjim4BppAxO-rzBTXm19RFGH937i8eSYGB2IrZ8RYikIb0FrwxkaN5KnKA2004dap3vcTZzeMvk-8IYAKfwQkuvjIR-YnuQM8Gw62jTtHgceeo7OVF-MRk3HaSUesGPOmkQa6xArHf0RZnq66C3rbT4rreAXe1JMaJqirXJGUpO66_ObBa2mQpgHOGce9BqJk8sms4aO-AGZTAXjXjtBX-H_MM-U7hVxELPWd_iAhkjSqBDrVJX2vB_KhHpSwlyb6_FYwMTF8RuFulyLuWRhLxADL7WY2oVo-Z1aobF-JAIRwzkxpSDwplhALTAheU2CfhQdqfCX3FHiBOFeoJQvm6UDdE7XNeUWRPi2xhxix-RHDa70aTgp2MEaL4kGjYHA3jfmtNS2nmOb0P0He1iJx4R6PGOrcGFBvTNemGgIm1StMPqLOEK9jZiuOXg7f9tAd0p9BgYp6Ubar4Tbxkp_B5jHN5tqlG9vWSF0u3X4WSbClTDmphreQIGVJFz3XA3QO18tiT57EgJvd2cdbEL8K76CtAbfm5TvJreTZtrLlh5_FHX-2sMNZ2-6pXHgpuP1b7Sz2GMqFKX17gBNRIjcGE2aaC6y9rcW0XvOz1h44LaHouA9s4h5fVFSV5H_AfvCTTAq8C3goT1yxzZeA2itRM6XqbIcHjHl?></g></svg>