<svg xmlns="http://www.w3.org/2000/svg" xmlns:xlink="http://www.w3.org/1999/xlink" contentStyleType="text/css" data-diagram-type="CLASS" height="603px" preserveAspectRatio="none" style="width:1563px;height:603px;background:#FFFFFF;" version="1.1" viewBox="0 0 1563 603" width="1563px" zoomAndPan="magnify"><?plantuml 1.2026.3?><defs/><g><g class="title" data-source-line="3"><text fill="#1F2937" font-family="Arial" font-size="20" font-weight="700" lengthAdjust="spacing" textLength="577.0996" x="489.6892" y="28.5645">EZTrade Base de datos - Resumen entidad-relacion</text></g><rect fill="#FFFFCC" height="16.6406" rx="2.5" ry="2.5" style="stroke:#FFDD88;stroke-width:3;" width="1547.478" x="3" y="47.2813"/><text fill="#000000" font-family="monospace" font-size="10" lengthAdjust="spacing" textLength="355.21" x="10" y="57.9219">Please&#160;use&#160;'!option&#160;handwritten&#160;true'&#160;to&#160;enable&#160;handwritten</text><!--class UserTable--><g class="entity" data-qualified-name="UserTable" data-source-line="5" id="ent0002"><rect fill="#FFFFFF" height="106.5313" rx="2.5" ry="2.5" style="stroke:#475569;stroke-width:0.5;" width="218.083" x="510.34" y="72.9219"/><ellipse cx="601.204" cy="87.9219" fill="#ADD1B2" rx="10" ry="10" style="stroke:#181818;stroke-width:1;"/><path d="M603.6728,92.4219 L597.7665,92.4219 L597.7665,82.9375 L603.6728,82.9375 L603.6728,84.5938 L599.6415,84.5938 L599.6415,86.6406 L603.2978,86.6406 L603.2978,88.2969 L599.6415,88.2969 L599.6415,90.7656 L603.6728,90.7656 L603.6728,92.4219 Z " fill="#000000"/><text fill="#334155" font-family="Arial" font-size="13" lengthAdjust="spacing" textLength="28.355" x="620.204" y="92.4224">user</text><line style="stroke:#475569;stroke-width:0.5;" x1="511.34" x2="727.423" y1="102.9219" y2="102.9219"/><g data-visibility-modifier="IE_MANDATORY"><ellipse cx="521.34" cy="115.9883" fill="#000000" rx="3" ry="3" style="stroke:#000000;stroke-width:1;"/></g><text fill="#334155" font-family="Arial" font-size="13" lengthAdjust="spacing" textLength="105.2378" x="529.34" y="118.9888">id : BIGINT &#171;PK&#187;</text><line style="stroke:#475569;stroke-width:1;" x1="511.34" x2="727.423" y1="126.0547" y2="126.0547"/><text fill="#334155" font-family="Arial" font-size="13" lengthAdjust="spacing" textLength="206.083" x="516.34" y="142.1216">username : VARCHAR &#171;unique&#187;</text><text fill="#334155" font-family="Arial" font-size="13" lengthAdjust="spacing" textLength="176.7124" x="516.34" y="157.2544">email : VARCHAR &#171;unique&#187;</text><text fill="#334155" font-family="Arial" font-size="13" lengthAdjust="spacing" textLength="101.1499" x="516.34" y="172.3872">role : VARCHAR</text></g><!--class TradeOrderTable--><g class="entity" data-qualified-name="TradeOrderTable" data-source-line="13" id="ent0003"><rect fill="#FFFFFF" height="151.9297" rx="2.5" ry="2.5" style="stroke:#475569;stroke-width:0.5;" width="176.417" x="461.18" y="239.4519"/><ellipse cx="507.3629" cy="254.4519" fill="#ADD1B2" rx="10" ry="10" style="stroke:#181818;stroke-width:1;"/><path d="M509.8316,258.9519 L503.9254,258.9519 L503.9254,249.4675 L509.8316,249.4675 L509.8316,251.1237 L505.8004,251.1237 L505.8004,253.1706 L509.4566,253.1706 L509.4566,254.8269 L505.8004,254.8269 L505.8004,257.2956 L509.8316,257.2956 L509.8316,258.9519 Z " fill="#000000"/><text fill="#334155" font-family="Arial" font-size="13" lengthAdjust="spacing" textLength="76.0513" x="526.3629" y="258.9524">trade_order</text><line style="stroke:#475569;stroke-width:0.5;" x1="462.18" x2="636.597" y1="269.4519" y2="269.4519"/><g data-visibility-modifier="IE_MANDATORY"><ellipse cx="472.18" cy="282.5183" fill="#000000" rx="3" ry="3" style="stroke:#000000;stroke-width:1;"/></g><text fill="#334155" font-family="Arial" font-size="13" lengthAdjust="spacing" textLength="105.2378" x="480.18" y="285.5188">id : BIGINT &#171;PK&#187;</text><line style="stroke:#475569;stroke-width:1;" x1="462.18" x2="636.597" y1="292.5847" y2="292.5847"/><text fill="#334155" font-family="Arial" font-size="13" lengthAdjust="spacing" textLength="116.4097" x="467.18" y="308.6516">owner : VARCHAR</text><text fill="#334155" font-family="Arial" font-size="13" lengthAdjust="spacing" textLength="149.8745" x="467.18" y="323.7844">symbol : VARCHAR(10)</text><text fill="#334155" font-family="Arial" font-size="13" lengthAdjust="spacing" textLength="102.8765" x="467.18" y="338.9172">side : VARCHAR</text><text fill="#334155" font-family="Arial" font-size="13" lengthAdjust="spacing" textLength="116.1875" x="467.18" y="354.05">status : VARCHAR</text><text fill="#334155" font-family="Arial" font-size="13" lengthAdjust="spacing" textLength="164.417" x="467.18" y="369.1828">quantity : DECIMAL(19,8)</text><text fill="#334155" font-family="Arial" font-size="13" lengthAdjust="spacing" textLength="142.5747" x="467.18" y="384.3156">price : DECIMAL(19,8)</text></g><!--class WalletAccountTable--><g class="entity" data-qualified-name="WalletAccountTable" data-source-line="24" id="ent0004"><rect fill="#FFFFFF" height="106.5313" rx="2.5" ry="2.5" style="stroke:#475569;stroke-width:0.5;" width="232.7461" x="193.01" y="262.1519"/><ellipse cx="256.779" cy="277.1519" fill="#ADD1B2" rx="10" ry="10" style="stroke:#181818;stroke-width:1;"/><path d="M259.2478,281.6519 L253.3415,281.6519 L253.3415,272.1675 L259.2478,272.1675 L259.2478,273.8238 L255.2165,273.8238 L255.2165,275.8706 L258.8728,275.8706 L258.8728,277.5269 L255.2165,277.5269 L255.2165,279.9956 L259.2478,279.9956 L259.2478,281.6519 Z " fill="#000000"/><text fill="#334155" font-family="Arial" font-size="13" lengthAdjust="spacing" textLength="97.208" x="275.779" y="281.6524">wallet_account</text><line style="stroke:#475569;stroke-width:0.5;" x1="194.01" x2="424.7561" y1="292.1519" y2="292.1519"/><g data-visibility-modifier="IE_MANDATORY"><ellipse cx="204.01" cy="305.2183" fill="#000000" rx="3" ry="3" style="stroke:#000000;stroke-width:1;"/></g><text fill="#334155" font-family="Arial" font-size="13" lengthAdjust="spacing" textLength="105.2378" x="212.01" y="308.2188">id : BIGINT &#171;PK&#187;</text><line style="stroke:#475569;stroke-width:1;" x1="194.01" x2="424.7561" y1="315.2847" y2="315.2847"/><text fill="#334155" font-family="Arial" font-size="13" lengthAdjust="spacing" textLength="181.0288" x="199.01" y="331.3516">owner : VARCHAR &#171;unique&#187;</text><text fill="#334155" font-family="Arial" font-size="13" lengthAdjust="spacing" textLength="220.7461" x="199.01" y="346.4844">availableBalance : DECIMAL(19,8)</text><text fill="#334155" font-family="Arial" font-size="13" lengthAdjust="spacing" textLength="219.4702" x="199.01" y="361.6172">reservedBalance : DECIMAL(19,8)</text></g><!--class WalletLedgerTable--><g class="entity" data-qualified-name="WalletLedgerTable" data-source-line="32" id="ent0005"><rect fill="#FFFFFF" height="136.7969" rx="2.5" ry="2.5" style="stroke:#475569;stroke-width:0.5;" width="190.4326" x="115.17" y="451.3819"/><ellipse cx="143.8787" cy="466.3819" fill="#ADD1B2" rx="10" ry="10" style="stroke:#181818;stroke-width:1;"/><path d="M146.3475,470.8819 L140.4412,470.8819 L140.4412,461.3975 L146.3475,461.3975 L146.3475,463.0538 L142.3162,463.0538 L142.3162,465.1006 L145.9725,465.1006 L145.9725,466.7569 L142.3162,466.7569 L142.3162,469.2256 L146.3475,469.2256 L146.3475,470.8819 Z " fill="#000000"/><text fill="#334155" font-family="Arial" font-size="13" lengthAdjust="spacing" textLength="127.7466" x="160.1473" y="470.8824">wallet_ledger_entry</text><line style="stroke:#475569;stroke-width:0.5;" x1="116.17" x2="304.6026" y1="481.3819" y2="481.3819"/><g data-visibility-modifier="IE_MANDATORY"><ellipse cx="126.17" cy="494.4483" fill="#000000" rx="3" ry="3" style="stroke:#000000;stroke-width:1;"/></g><text fill="#334155" font-family="Arial" font-size="13" lengthAdjust="spacing" textLength="105.2378" x="134.17" y="497.4488">id : BIGINT &#171;PK&#187;</text><line style="stroke:#475569;stroke-width:1;" x1="116.17" x2="304.6026" y1="504.5147" y2="504.5147"/><text fill="#334155" font-family="Arial" font-size="13" lengthAdjust="spacing" textLength="116.4097" x="121.17" y="520.5816">owner : VARCHAR</text><text fill="#334155" font-family="Arial" font-size="13" lengthAdjust="spacing" textLength="178.4326" x="121.17" y="535.7144">movementType : VARCHAR</text><text fill="#334155" font-family="Arial" font-size="13" lengthAdjust="spacing" textLength="170.771" x="121.17" y="550.8472">referenceType : VARCHAR</text><text fill="#334155" font-family="Arial" font-size="13" lengthAdjust="spacing" textLength="150.9727" x="121.17" y="565.98">referenceId : VARCHAR</text><text fill="#334155" font-family="Arial" font-size="13" lengthAdjust="spacing" textLength="150.3252" x="121.17" y="581.1128">occurredAt : DATETIME</text></g><!--class PositionTable--><g class="entity" data-qualified-name="PositionTable" data-source-line="42" id="ent0006"><rect fill="#FFFFFF" height="136.7969" rx="2.5" ry="2.5" style="stroke:#475569;stroke-width:0.5;" width="204.3403" x="589.21" y="451.3819"/><ellipse cx="631.2066" cy="466.3819" fill="#ADD1B2" rx="10" ry="10" style="stroke:#181818;stroke-width:1;"/><path d="M633.6753,470.8819 L627.7691,470.8819 L627.7691,461.3975 L633.6753,461.3975 L633.6753,463.0538 L629.6441,463.0538 L629.6441,465.1006 L633.3003,465.1006 L633.3003,466.7569 L629.6441,466.7569 L629.6441,469.2256 L633.6753,469.2256 L633.6753,470.8819 Z " fill="#000000"/><text fill="#334155" font-family="Arial" font-size="13" lengthAdjust="spacing" textLength="112.3472" x="650.2066" y="470.8824">portfolio_position</text><line style="stroke:#475569;stroke-width:0.5;" x1="590.21" x2="792.5503" y1="481.3819" y2="481.3819"/><g data-visibility-modifier="IE_MANDATORY"><ellipse cx="600.21" cy="494.4483" fill="#000000" rx="3" ry="3" style="stroke:#000000;stroke-width:1;"/></g><text fill="#334155" font-family="Arial" font-size="13" lengthAdjust="spacing" textLength="105.2378" x="608.21" y="497.4488">id : BIGINT &#171;PK&#187;</text><line style="stroke:#475569;stroke-width:1;" x1="590.21" x2="792.5503" y1="504.5147" y2="504.5147"/><text fill="#334155" font-family="Arial" font-size="13" lengthAdjust="spacing" textLength="116.4097" x="595.21" y="520.5816">owner : VARCHAR</text><text fill="#334155" font-family="Arial" font-size="13" lengthAdjust="spacing" textLength="149.8745" x="595.21" y="535.7144">symbol : VARCHAR(10)</text><text fill="#334155" font-family="Arial" font-size="13" lengthAdjust="spacing" textLength="164.417" x="595.21" y="550.8472">quantity : DECIMAL(19,8)</text><text fill="#334155" font-family="Arial" font-size="13" lengthAdjust="spacing" textLength="192.3403" x="595.21" y="565.98">averageCost : DECIMAL(19,8)</text><text fill="#334155" font-family="Arial" font-size="13" lengthAdjust="spacing" textLength="181.5176" x="595.21" y="581.1128">realizedPnl : DECIMAL(19,8)</text></g><!--class CashProjectionTable--><g class="entity" data-qualified-name="CashProjectionTable" data-source-line="52" id="ent0007"><rect fill="#FFFFFF" height="106.5313" rx="2.5" ry="2.5" style="stroke:#475569;stroke-width:0.5;" width="212.9541" x="340.91" y="466.5219"/><ellipse cx="364.0287" cy="481.5219" fill="#ADD1B2" rx="10" ry="10" style="stroke:#181818;stroke-width:1;"/><path d="M366.4974,486.0219 L360.5912,486.0219 L360.5912,476.5375 L366.4974,476.5375 L366.4974,478.1938 L362.4662,478.1938 L362.4662,480.2406 L366.1224,480.2406 L366.1224,481.8969 L362.4662,481.8969 L362.4662,484.3656 L366.4974,484.3656 L366.4974,486.0219 Z " fill="#000000"/><text fill="#334155" font-family="Arial" font-size="13" lengthAdjust="spacing" textLength="162.6904" x="379.055" y="486.0224">portfolio_cash_projection</text><line style="stroke:#475569;stroke-width:0.5;" x1="341.91" x2="552.8641" y1="496.5219" y2="496.5219"/><g data-visibility-modifier="IE_MANDATORY"><ellipse cx="351.91" cy="509.5883" fill="#000000" rx="3" ry="3" style="stroke:#000000;stroke-width:1;"/></g><text fill="#334155" font-family="Arial" font-size="13" lengthAdjust="spacing" textLength="105.2378" x="359.91" y="512.5888">id : BIGINT &#171;PK&#187;</text><line style="stroke:#475569;stroke-width:1;" x1="341.91" x2="552.8641" y1="519.6547" y2="519.6547"/><text fill="#334155" font-family="Arial" font-size="13" lengthAdjust="spacing" textLength="181.0288" x="346.91" y="535.7216">owner : VARCHAR &#171;unique&#187;</text><text fill="#334155" font-family="Arial" font-size="13" lengthAdjust="spacing" textLength="200.9541" x="346.91" y="550.8544">availableCash : DECIMAL(19,8)</text><text fill="#334155" font-family="Arial" font-size="13" lengthAdjust="spacing" textLength="146.9546" x="346.91" y="565.9872">updatedAt : DATETIME</text></g><!--class NotificationTable--><g class="entity" data-qualified-name="NotificationTable" data-source-line="60" id="ent0008"><rect fill="#FFFFFF" height="121.6641" rx="2.5" ry="2.5" style="stroke:#475569;stroke-width:0.5;" width="148.6143" x="964.08" y="254.5919"/><ellipse cx="979.5462" cy="269.5919" fill="#ADD1B2" rx="10" ry="10" style="stroke:#181818;stroke-width:1;"/><path d="M982.015,274.0919 L976.1087,274.0919 L976.1087,264.6075 L982.015,264.6075 L982.015,266.2638 L977.9837,266.2638 L977.9837,268.3106 L981.64,268.3106 L981.64,269.9669 L977.9837,269.9669 L977.9837,272.4356 L982.015,272.4356 L982.015,274.0919 Z " fill="#000000"/><text fill="#334155" font-family="Arial" font-size="13" lengthAdjust="spacing" textLength="115.356" x="992.8721" y="274.0924">notification_inbox</text><line style="stroke:#475569;stroke-width:0.5;" x1="965.08" x2="1111.6943" y1="284.5919" y2="284.5919"/><g data-visibility-modifier="IE_MANDATORY"><ellipse cx="975.08" cy="297.6583" fill="#000000" rx="3" ry="3" style="stroke:#000000;stroke-width:1;"/></g><text fill="#334155" font-family="Arial" font-size="13" lengthAdjust="spacing" textLength="105.2378" x="983.08" y="300.6588">id : BIGINT &#171;PK&#187;</text><line style="stroke:#475569;stroke-width:1;" x1="965.08" x2="1111.6943" y1="307.7247" y2="307.7247"/><text fill="#334155" font-family="Arial" font-size="13" lengthAdjust="spacing" textLength="133.542" x="970.08" y="323.7916">recipient : VARCHAR</text><text fill="#334155" font-family="Arial" font-size="13" lengthAdjust="spacing" textLength="131.9678" x="970.08" y="338.9244">type : VARCHAR(50)</text><text fill="#334155" font-family="Arial" font-size="13" lengthAdjust="spacing" textLength="136.6143" x="970.08" y="354.0572">title : VARCHAR(150)</text><text fill="#334155" font-family="Arial" font-size="13" lengthAdjust="spacing" textLength="122.5479" x="970.08" y="369.19">is_read : BOOLEAN</text></g><g class="entity" data-qualified-name="GMN19" data-source-line="81" id="ent0020"><path d="M828.29,499.6519 L828.29,539.9175 A0,0 0 0 0 828.29,539.9175 L1548.478,539.9175 A0,0 0 0 0 1548.478,539.9175 L1548.478,509.6519 L1538.478,499.6519 L1042.38,499.6519 L1038.38,376.7319 L1034.38,499.6519 L828.29,499.6519 A0,0 0 0 0 828.29,499.6519" fill="#FFF7ED" style="stroke:#F97316;stroke-width:0.5;"/><path d="M1538.478,499.6519 L1538.478,509.6519 L1548.478,509.6519 L1538.478,499.6519" fill="#FFF7ED" style="stroke:#F97316;stroke-width:0.5;"/><text fill="#7C2D12" font-family="Arial" font-size="13" lengthAdjust="spacing" textLength="492.1719" x="834.29" y="516.7188">No se declaran claves foraneas fisicas en las entidades JPA inspeccionadas.</text><text fill="#7C2D12" font-family="Arial" font-size="13" lengthAdjust="spacing" textLength="699.188" x="834.29" y="531.8516">Las relaciones discontinuas son enlaces logicos inferidos desde campos, eventos y metodos de repositorio.</text></g><!--link UserTable to TradeOrderTable--><g class="link" data-entity-1="ent0002" data-entity-2="ent0003" data-link-type="crowfoot" data-source-line="69" id="lnk9"><path codeLine="69" d="M573.97,187.9119 C573.97,206.2619 573.97,201.1619 573.97,220.9619" fill="none" id="UserTable-TradeOrderTable" style="stroke:#394150;stroke-width:1.2;stroke-dasharray:7,7;"/><line style="stroke:#394150;stroke-width:1.2;" x1="569.97" x2="577.97" y1="183.9119" y2="183.9119"/><line style="stroke:#394150;stroke-width:1.2;" x1="569.97" x2="577.97" y1="186.9119" y2="186.9119"/><line style="stroke:#394150;stroke-width:1.2;" x1="573.97" x2="573.97" y1="187.9119" y2="179.9119"/><line style="stroke:#394150;stroke-width:1.2;" x1="573.97" x2="579.97" y1="230.9619" y2="238.9619"/><line style="stroke:#394150;stroke-width:1.2;" x1="573.97" x2="567.97" y1="230.9619" y2="238.9619"/><line style="stroke:#394150;stroke-width:1.2;" x1="573.97" x2="573.97" y1="230.9619" y2="238.9619"/><ellipse cx="573.97" cy="224.9619" fill="none" rx="4" ry="4" style="stroke:#394150;stroke-width:1.2;"/><text fill="#000000" font-family="Arial" font-size="13" lengthAdjust="spacing" textLength="148.9287" x="424.97" y="205.4988">logical owner identifier</text></g><!--link UserTable to WalletAccountTable--><g class="link" data-entity-1="ent0002" data-entity-2="ent0004" data-link-type="association" data-source-line="70" id="lnk10"><path codeLine="70" d="M502.09,126.1819 C412.84,126.1819 309.38,126.1819 309.38,126.1819 C309.38,126.1819 309.38,190.7519 309.38,246.7019" fill="none" id="UserTable-WalletAccountTable" style="stroke:#394150;stroke-width:1.2;stroke-dasharray:7,7;"/><line style="stroke:#394150;stroke-width:1.2;" x1="506.09" x2="506.09" y1="122.1819" y2="130.1819"/><line style="stroke:#394150;stroke-width:1.2;" x1="503.09" x2="503.09" y1="122.1819" y2="130.1819"/><line style="stroke:#394150;stroke-width:1.2;" x1="502.09" x2="510.09" y1="126.1819" y2="126.1819"/><line style="stroke:#394150;stroke-width:1.2;" x1="309.38" x2="309.38" y1="250.5019" y2="261.7019"/><ellipse cx="309.38" cy="250.5019" fill="none" rx="4.2" ry="4.2" style="stroke:#394150;stroke-width:1.2;"/><line style="stroke:#394150;stroke-width:1.2;" x1="313.58" x2="305.18" y1="257.7019" y2="257.7019"/><text fill="#000000" font-family="Arial" font-size="13" lengthAdjust="spacing" textLength="148.9287" x="192.98" y="122.2488">logical owner identifier</text></g><!--link UserTable to WalletLedgerTable--><g class="link" data-entity-1="ent0002" data-entity-2="ent0005" data-link-type="crowfoot" data-source-line="71" id="lnk11"><path codeLine="71" d="M502,99.1819 C364.45,99.1819 154.09,99.1819 154.09,99.1819 C154.09,99.1819 154.09,314.0919 154.09,433.2719" fill="none" id="UserTable-WalletLedgerTable" style="stroke:#394150;stroke-width:1.2;stroke-dasharray:7,7;"/><line style="stroke:#394150;stroke-width:1.2;" x1="506" x2="506" y1="95.1819" y2="103.1819"/><line style="stroke:#394150;stroke-width:1.2;" x1="503" x2="503" y1="95.1819" y2="103.1819"/><line style="stroke:#394150;stroke-width:1.2;" x1="502" x2="510" y1="99.1819" y2="99.1819"/><line style="stroke:#394150;stroke-width:1.2;" x1="154.09" x2="160.09" y1="443.2719" y2="451.2719"/><line style="stroke:#394150;stroke-width:1.2;" x1="154.09" x2="148.09" y1="443.2719" y2="451.2719"/><line style="stroke:#394150;stroke-width:1.2;" x1="154.09" x2="154.09" y1="443.2719" y2="451.2719"/><ellipse cx="154.09" cy="437.2719" fill="none" rx="4" ry="4" style="stroke:#394150;stroke-width:1.2;"/><text fill="#000000" font-family="Arial" font-size="13" lengthAdjust="spacing" textLength="148.9287" x="7" y="95.2488">logical owner identifier</text></g><!--link UserTable to PositionTable--><g class="link" data-entity-1="ent0002" data-entity-2="ent0006" data-link-type="crowfoot" data-source-line="72" id="lnk12"><path codeLine="72" d="M667.87,187.6819 C667.87,258.0919 667.87,355.9619 667.87,433.1919" fill="none" id="UserTable-PositionTable" style="stroke:#394150;stroke-width:1.2;stroke-dasharray:7,7;"/><line style="stroke:#394150;stroke-width:1.2;" x1="663.87" x2="671.87" y1="183.6819" y2="183.6819"/><line style="stroke:#394150;stroke-width:1.2;" x1="663.87" x2="671.87" y1="186.6819" y2="186.6819"/><line style="stroke:#394150;stroke-width:1.2;" x1="667.87" x2="667.87" y1="187.6819" y2="179.6819"/><line style="stroke:#394150;stroke-width:1.2;" x1="667.87" x2="673.87" y1="443.1919" y2="451.1919"/><line style="stroke:#394150;stroke-width:1.2;" x1="667.87" x2="661.87" y1="443.1919" y2="451.1919"/><line style="stroke:#394150;stroke-width:1.2;" x1="667.87" x2="667.87" y1="443.1919" y2="451.1919"/><ellipse cx="667.87" cy="437.1919" fill="none" rx="4" ry="4" style="stroke:#394150;stroke-width:1.2;"/><text fill="#000000" font-family="Arial" font-size="13" lengthAdjust="spacing" textLength="148.9287" x="668.87" y="328.5088">logical owner identifier</text></g><!--link UserTable to CashProjectionTable--><g class="link" data-entity-1="ent0002" data-entity-2="ent0007" data-link-type="association" data-source-line="73" id="lnk13"><path codeLine="73" d="M501.97,153.1819 C466.2,153.1819 443.47,153.1819 443.47,153.1819 C443.47,153.1819 443.47,349.2519 443.47,451.0819" fill="none" id="UserTable-CashProjectionTable" style="stroke:#394150;stroke-width:1.2;stroke-dasharray:7,7;"/><line style="stroke:#394150;stroke-width:1.2;" x1="505.97" x2="505.97" y1="149.1819" y2="157.1819"/><line style="stroke:#394150;stroke-width:1.2;" x1="502.97" x2="502.97" y1="149.1819" y2="157.1819"/><line style="stroke:#394150;stroke-width:1.2;" x1="501.97" x2="509.97" y1="153.1819" y2="153.1819"/><line style="stroke:#394150;stroke-width:1.2;" x1="443.47" x2="443.47" y1="454.8819" y2="466.0819"/><ellipse cx="443.47" cy="454.8819" fill="none" rx="4.2" ry="4.2" style="stroke:#394150;stroke-width:1.2;"/><line style="stroke:#394150;stroke-width:1.2;" x1="447.67" x2="439.27" y1="462.0819" y2="462.0819"/><text fill="#000000" font-family="Arial" font-size="13" lengthAdjust="spacing" textLength="148.9287" x="294.47" y="272.4488">logical owner identifier</text></g><!--link UserTable to NotificationTable--><g class="link" data-entity-1="ent0002" data-entity-2="ent0008" data-link-type="crowfoot" data-source-line="74" id="lnk14"><path codeLine="74" d="M698.15,187.8419 C698.15,243.7119 698.15,315.1819 698.15,315.1819 C698.15,315.1819 845.56,315.1819 945.72,315.1819" fill="none" id="UserTable-NotificationTable" style="stroke:#394150;stroke-width:1.2;stroke-dasharray:7,7;"/><line style="stroke:#394150;stroke-width:1.2;" x1="694.15" x2="702.15" y1="183.8419" y2="183.8419"/><line style="stroke:#394150;stroke-width:1.2;" x1="694.15" x2="702.15" y1="186.8419" y2="186.8419"/><line style="stroke:#394150;stroke-width:1.2;" x1="698.15" x2="698.15" y1="187.8419" y2="179.8419"/><line style="stroke:#394150;stroke-width:1.2;" x1="955.72" x2="963.72" y1="315.1819" y2="309.1819"/><line style="stroke:#394150;stroke-width:1.2;" x1="955.72" x2="963.72" y1="315.1819" y2="321.1819"/><line style="stroke:#394150;stroke-width:1.2;" x1="955.72" x2="963.72" y1="315.1819" y2="315.1819"/><ellipse cx="949.72" cy="315.1819" fill="none" rx="4" ry="4" style="stroke:#394150;stroke-width:1.2;"/><text fill="#000000" font-family="Arial" font-size="13" lengthAdjust="spacing" textLength="57.3003" x="705.26" y="311.2488">recipient</text></g><!--link TradeOrderTable to WalletLedgerTable--><g class="link" data-entity-1="ent0003" data-entity-2="ent0005" data-link-type="crowfoot" data-source-line="75" id="lnk15"><path codeLine="75" d="M507.52,399.5119 C507.52,433.9919 507.52,459.1819 507.52,459.1819 C507.52,459.1819 410.9,459.1819 324.03,459.1819" fill="none" id="TradeOrderTable-WalletLedgerTable" style="stroke:#394150;stroke-width:1.2;stroke-dasharray:7,7;"/><line style="stroke:#394150;stroke-width:1.2;" x1="503.52" x2="511.52" y1="395.5119" y2="395.5119"/><line style="stroke:#394150;stroke-width:1.2;" x1="503.52" x2="511.52" y1="398.5119" y2="398.5119"/><line style="stroke:#394150;stroke-width:1.2;" x1="507.52" x2="507.52" y1="399.5119" y2="391.5119"/><line style="stroke:#394150;stroke-width:1.2;" x1="314.03" x2="306.03" y1="459.1819" y2="465.1819"/><line style="stroke:#394150;stroke-width:1.2;" x1="314.03" x2="306.03" y1="459.1819" y2="453.1819"/><line style="stroke:#394150;stroke-width:1.2;" x1="314.03" x2="306.03" y1="459.1819" y2="459.1819"/><ellipse cx="320.03" cy="459.1819" fill="none" rx="4" ry="4" style="stroke:#394150;stroke-width:1.2;"/><text fill="#000000" font-family="Arial" font-size="13" lengthAdjust="spacing" textLength="151.9438" x="441.61" y="440.2488">referenceType=ORDER</text><text fill="#000000" font-family="Arial" font-size="13" lengthAdjust="spacing" textLength="136.5127" x="449.3256" y="455.3816">referenceId=order id</text></g><!--link TradeOrderTable to PositionTable--><g class="link" data-entity-1="ent0003" data-entity-2="ent0006" data-link-type="crowfoot" data-source-line="76" id="lnk16"><path codeLine="76" d="M613.4,399.8119 C613.4,419.1919 613.4,413.9019 613.4,432.8919" fill="none" id="TradeOrderTable-PositionTable" style="stroke:#394150;stroke-width:1.2;stroke-dasharray:7,7;"/><line style="stroke:#394150;stroke-width:1.2;" x1="609.4" x2="617.4" y1="395.8119" y2="395.8119"/><line style="stroke:#394150;stroke-width:1.2;" x1="609.4" x2="617.4" y1="398.8119" y2="398.8119"/><line style="stroke:#394150;stroke-width:1.2;" x1="613.4" x2="613.4" y1="399.8119" y2="391.8119"/><line style="stroke:#394150;stroke-width:1.2;" x1="613.4" x2="619.4" y1="442.8919" y2="450.8919"/><line style="stroke:#394150;stroke-width:1.2;" x1="613.4" x2="607.4" y1="442.8919" y2="450.8919"/><line style="stroke:#394150;stroke-width:1.2;" x1="613.4" x2="613.4" y1="442.8919" y2="450.8919"/><ellipse cx="613.4" cy="436.8919" fill="none" rx="4" ry="4" style="stroke:#394150;stroke-width:1.2;"/><text fill="#000000" font-family="Arial" font-size="13" lengthAdjust="spacing" textLength="106.2725" x="664.1974" y="402.4188">owner + symbol</text><text fill="#000000" font-family="Arial" font-size="13" lengthAdjust="spacing" textLength="205.8672" x="614.4" y="417.5516">via eventos de orden ejecutada</text></g><!--link WalletAccountTable to WalletLedgerTable--><g class="link" data-entity-1="ent0004" data-entity-2="ent0005" data-link-type="crowfoot" data-source-line="77" id="lnk17"><path codeLine="77" d="M249.31,377.1119 C249.31,402.1819 249.31,406.3219 249.31,433.0419" fill="none" id="WalletAccountTable-WalletLedgerTable" style="stroke:#394150;stroke-width:1.2;stroke-dasharray:7,7;"/><line style="stroke:#394150;stroke-width:1.2;" x1="245.31" x2="253.31" y1="373.1119" y2="373.1119"/><line style="stroke:#394150;stroke-width:1.2;" x1="245.31" x2="253.31" y1="376.1119" y2="376.1119"/><line style="stroke:#394150;stroke-width:1.2;" x1="249.31" x2="249.31" y1="377.1119" y2="369.1119"/><line style="stroke:#394150;stroke-width:1.2;" x1="249.31" x2="255.31" y1="443.0419" y2="451.0419"/><line style="stroke:#394150;stroke-width:1.2;" x1="249.31" x2="243.31" y1="443.0419" y2="451.0419"/><line style="stroke:#394150;stroke-width:1.2;" x1="249.31" x2="249.31" y1="443.0419" y2="451.0419"/><ellipse cx="249.31" cy="437.0419" fill="none" rx="4" ry="4" style="stroke:#394150;stroke-width:1.2;"/><text fill="#000000" font-family="Arial" font-size="13" lengthAdjust="spacing" textLength="154.3369" x="94.31" y="406.1488">owner + balance deltas</text></g><!--link WalletAccountTable to CashProjectionTable--><g class="link" data-entity-1="ent0004" data-entity-2="ent0007" data-link-type="association" data-source-line="78" id="lnk18"><path codeLine="78" d="M383.33,377.1119 C383.33,407.0319 383.33,421.1719 383.33,451.0919" fill="none" id="WalletAccountTable-CashProjectionTable" style="stroke:#394150;stroke-width:1.2;stroke-dasharray:7,7;"/><line style="stroke:#394150;stroke-width:1.2;" x1="379.33" x2="387.33" y1="373.1119" y2="373.1119"/><line style="stroke:#394150;stroke-width:1.2;" x1="379.33" x2="387.33" y1="376.1119" y2="376.1119"/><line style="stroke:#394150;stroke-width:1.2;" x1="383.33" x2="383.33" y1="377.1119" y2="369.1119"/><line style="stroke:#394150;stroke-width:1.2;" x1="383.33" x2="383.33" y1="454.8919" y2="466.0919"/><ellipse cx="383.33" cy="454.8919" fill="none" rx="4.2" ry="4.2" style="stroke:#394150;stroke-width:1.2;"/><line style="stroke:#394150;stroke-width:1.2;" x1="387.53" x2="379.13" y1="462.0919" y2="462.0919"/><text fill="#000000" font-family="Arial" font-size="13" lengthAdjust="spacing" textLength="184.2344" x="198.33" y="430.6688">AvailableCashUpdatedEvent</text></g><?plantuml-src hLPjJnf14Fv-lsBh9ziArWzDMg8c9vAM5e4GR9F6X2oxWzrcR-VStSEYzhztTa6vavUeCI4S--pCt3Fll556w482gzVtwICmoz3imustN4BD-Pc6UbvaEacyyXfOwzSmtB0Jxe3HKtAFZjNO05oHWM5Wl99SrYneBXIQ90c8dx6Tme7TOTonS_env6CoTfimzeufoHhifFsbtHsomyF-z-DZWcir-WegXcT0zp_IGVDhEY21mgYh0g8GP5pfJPSMTKan-RTa4dqRePKBGj6ZNZW-ZHPU6x0bquovMJR64fFTWmzl0wmaLEKyzuMhG5S5dzDgiDDMitsMTdOFFkzz2kgvLG9My98Zrrnhy2Ck11R6Hrz-HYYT8ozofnf5FgKG1pCdN7EpXWu56YXDKv2R95O9Qv2NO4U4sbc9TIV2Byr1XbEW2lJ3MLuDkeK9M21ccs_QieAZ48Mr85CVd4c7hM7xh5Ns8qVh9wWLZd9qobETHpVwYyChbz6M4k5JiFmIckZysinmhMv0zetUbfMbDuAxtwFSuXyG3qur2Ui_GAzPKi7o6jP5JaDbI_0DUZLHWWSw8sN6-3Vox9RWfx6q85Iko6mb2RvI9RiVOmhcmw-Kc3cit8XY75_GwtLQQJVmNCwtkxjw7MzNvak3QRmafdeH9veI9d07-rZtRbq_FrtzTarZFKUxMi_FeRskQ9xpvjLaDfRfIXu7T8kpbUO_wWrEMuCBK-hxexW6YCiceuzZCEV-Vj6h5sQgE8CfiQ8rIDC-cACjI8uNdakUhCdV5hRtniUBKIf1U-us6jaKvxJSOUVpTce5Zab2pGDiZDvZbdIHnIKkDBVSC7fCmR49qW6eeIRAKGOShNIcuoDkTfBura-PCYu74JOyUUdgIOSaxdS-YKZb19A2AGXt6FuNq1rTn1AWK2b3AL0o1irHt0JFQ9JkFOHonZBmEBydmt7CebLOfp4WMV0Y-Gy0?></g></svg>