<svg xmlns="http://www.w3.org/2000/svg" xmlns:xlink="http://www.w3.org/1999/xlink" contentStyleType="text/css" data-diagram-type="DESCRIPTION" height="823px" preserveAspectRatio="none" style="width:989px;height:823px;background:#FFFFFF;" version="1.1" viewBox="0 0 989 823" width="989px" zoomAndPan="magnify"><?plantuml 1.2026.6?><defs/><g><g class="title" data-source-line="3"><text fill="#1F2937" font-family="Arial" font-size="20" font-weight="700" lengthAdjust="spacing" textLength="554.5898" x="214.0166" y="28.7598">EZTrade DevOps - Backend Build, Test, and Package Flow</text></g><rect fill="#FFFFCC" height="18.0566" rx="2.5" ry="2.5" style="stroke:#FFDD88;stroke-width:3;" width="973.623" x="3" y="46.998"/><text fill="#000000" font-family="monospace" font-size="10" lengthAdjust="spacing" textLength="354.0576" x="10" y="59.0547">Please&#160;use&#160;'!option&#160;handwritten&#160;true'&#160;to&#160;enable&#160;handwritten</text><!--entity Maven--><g class="entity" data-qualified-name="Maven" data-source-line="5" id="ent0001"><rect fill="#EDE9FE" height="44.9487" rx="2.5" ry="2.5" style="stroke:#475569;stroke-width:0.5;" width="150.5317" x="350.5" y="74.0547"/><rect fill="#EDE9FE" height="10" style="stroke:#475569;stroke-width:0.5;" width="15" x="481.0317" y="79.0547"/><rect fill="#EDE9FE" height="2" style="stroke:#475569;stroke-width:0.5;" width="4" x="479.0317" y="81.0547"/><rect fill="#EDE9FE" height="2" style="stroke:#475569;stroke-width:0.5;" width="4" x="479.0317" y="85.0547"/><text fill="#1F2937" font-family="Arial" font-size="13" lengthAdjust="spacing" textLength="110.5317" x="365.5" y="106.2485">mvn -B clean verify</text></g><!--entity Clean--><g class="entity" data-qualified-name="Clean" data-source-line="6" id="ent0002"><rect fill="#F8FAFC" height="59.8975" rx="2.5" ry="2.5" style="stroke:#475569;stroke-width:0.5;" width="126.7026" x="362.5" y="179.0547"/><rect fill="#F8FAFC" height="10" style="stroke:#475569;stroke-width:0.5;" width="15" x="469.2026" y="184.0547"/><rect fill="#F8FAFC" height="2" style="stroke:#475569;stroke-width:0.5;" width="4" x="467.2026" y="186.0547"/><rect fill="#F8FAFC" height="2" style="stroke:#475569;stroke-width:0.5;" width="4" x="467.2026" y="190.0547"/><text fill="#1F2937" font-family="Arial" font-size="13" lengthAdjust="spacing" textLength="31.0781" x="377.5" y="211.2485">clean</text><text fill="#1F2937" font-family="Arial" font-size="13" lengthAdjust="spacing" textLength="86.7026" x="377.5" y="226.1973">removes target</text></g><!--entity Compile--><g class="entity" data-qualified-name="Compile" data-source-line="7" id="ent0003"><rect fill="#F8FAFC" height="59.8975" rx="2.5" ry="2.5" style="stroke:#475569;stroke-width:0.5;" width="131.7808" x="360" y="299.0547"/><rect fill="#F8FAFC" height="10" style="stroke:#475569;stroke-width:0.5;" width="15" x="471.7808" y="304.0547"/><rect fill="#F8FAFC" height="2" style="stroke:#475569;stroke-width:0.5;" width="4" x="469.7808" y="306.0547"/><rect fill="#F8FAFC" height="2" style="stroke:#475569;stroke-width:0.5;" width="4" x="469.7808" y="310.0547"/><text fill="#1F2937" font-family="Arial" font-size="13" lengthAdjust="spacing" textLength="44.7954" x="375" y="331.2485">compile</text><text fill="#1F2937" font-family="Arial" font-size="13" lengthAdjust="spacing" textLength="91.7808" x="375" y="346.1973">Java release 21</text></g><!--entity TestCompile--><g class="entity" data-qualified-name="TestCompile" data-source-line="8" id="ent0004"><rect fill="#F8FAFC" height="44.9487" rx="2.5" ry="2.5" style="stroke:#475569;stroke-width:0.5;" width="110.0781" x="318" y="419.0547"/><rect fill="#F8FAFC" height="10" style="stroke:#475569;stroke-width:0.5;" width="15" x="408.0781" y="424.0547"/><rect fill="#F8FAFC" height="2" style="stroke:#475569;stroke-width:0.5;" width="4" x="406.0781" y="426.0547"/><rect fill="#F8FAFC" height="2" style="stroke:#475569;stroke-width:0.5;" width="4" x="406.0781" y="430.0547"/><text fill="#1F2937" font-family="Arial" font-size="13" lengthAdjust="spacing" textLength="70.0781" x="333" y="451.2485">test-compile</text></g><!--entity Test--><g class="entity" data-qualified-name="Test" data-source-line="9" id="ent0005"><rect fill="#F8FAFC" height="59.8975" rx="2.5" ry="2.5" style="stroke:#475569;stroke-width:0.5;" width="190.2744" x="278" y="524.0547"/><rect fill="#F8FAFC" height="10" style="stroke:#475569;stroke-width:0.5;" width="15" x="448.2744" y="529.0547"/><rect fill="#F8FAFC" height="2" style="stroke:#475569;stroke-width:0.5;" width="4" x="446.2744" y="531.0547"/><rect fill="#F8FAFC" height="2" style="stroke:#475569;stroke-width:0.5;" width="4" x="446.2744" y="535.0547"/><text fill="#1F2937" font-family="Arial" font-size="13" lengthAdjust="spacing" textLength="20.9536" x="293" y="556.2485">test</text><text fill="#1F2937" font-family="Arial" font-size="13" lengthAdjust="spacing" textLength="150.2744" x="293" y="571.1973">JUnit/Mockito/Spring tests</text></g><!--entity Verify--><g class="entity" data-qualified-name="Verify" data-source-line="10" id="ent0006"><rect fill="#F8FAFC" height="59.8975" rx="2.5" ry="2.5" style="stroke:#475569;stroke-width:0.5;" width="151.9854" x="88" y="644.0547"/><rect fill="#F8FAFC" height="10" style="stroke:#475569;stroke-width:0.5;" width="15" x="219.9854" y="649.0547"/><rect fill="#F8FAFC" height="2" style="stroke:#475569;stroke-width:0.5;" width="4" x="217.9854" y="651.0547"/><rect fill="#F8FAFC" height="2" style="stroke:#475569;stroke-width:0.5;" width="4" x="217.9854" y="655.0547"/><text fill="#1F2937" font-family="Arial" font-size="13" lengthAdjust="spacing" textLength="31.0591" x="103" y="676.2485">verify</text><text fill="#1F2937" font-family="Arial" font-size="13" lengthAdjust="spacing" textLength="111.9854" x="103" y="691.1973">lifecycle verification</text></g><!--entity BootPlugin--><g class="entity" data-qualified-name="BootPlugin" data-source-line="11" id="ent0007"><rect fill="#F8FAFC" height="44.9487" rx="2.5" ry="2.5" style="stroke:#475569;stroke-width:0.5;" width="187.4116" x="70.5" y="764.0547"/><rect fill="#F8FAFC" height="10" style="stroke:#475569;stroke-width:0.5;" width="15" x="237.9116" y="769.0547"/><rect fill="#F8FAFC" height="2" style="stroke:#475569;stroke-width:0.5;" width="4" x="235.9116" y="771.0547"/><rect fill="#F8FAFC" height="2" style="stroke:#475569;stroke-width:0.5;" width="4" x="235.9116" y="775.0547"/><text fill="#1F2937" font-family="Arial" font-size="13" lengthAdjust="spacing" textLength="147.4116" x="85.5" y="796.2485">spring-boot-maven-plugin</text></g><!--entity ModulithTest--><g class="entity" data-qualified-name="ModulithTest" data-source-line="12" id="ent0008"><rect fill="#F8FAFC" height="59.8975" rx="2.5" ry="2.5" style="stroke:#475569;stroke-width:0.5;" width="196.0635" x="275" y="644.0547"/><rect fill="#F8FAFC" height="10" style="stroke:#475569;stroke-width:0.5;" width="15" x="451.0635" y="649.0547"/><rect fill="#F8FAFC" height="2" style="stroke:#475569;stroke-width:0.5;" width="4" x="449.0635" y="651.0547"/><rect fill="#F8FAFC" height="2" style="stroke:#475569;stroke-width:0.5;" width="4" x="449.0635" y="655.0547"/><text fill="#1F2937" font-family="Arial" font-size="13" lengthAdjust="spacing" textLength="155.3271" x="290" y="676.2485">spring-modulith-starter-test</text><text fill="#1F2937" font-family="Arial" font-size="13" lengthAdjust="spacing" textLength="156.0635" x="290" y="691.1973">ApplicationModules.verify()</text></g><!--entity TestSuite--><g class="entity" data-qualified-name="TestSuite" data-source-line="13" id="ent0009"><rect fill="#F8FAFC" height="44.9487" rx="2.5" ry="2.5" style="stroke:#475569;stroke-width:0.5;" width="305.1606" x="506.5" y="651.5547"/><rect fill="#F8FAFC" height="10" style="stroke:#475569;stroke-width:0.5;" width="15" x="791.6606" y="656.5547"/><rect fill="#F8FAFC" height="2" style="stroke:#475569;stroke-width:0.5;" width="4" x="789.6606" y="658.5547"/><rect fill="#F8FAFC" height="2" style="stroke:#475569;stroke-width:0.5;" width="4" x="789.6606" y="662.5547"/><text fill="#1F2937" font-family="Arial" font-size="13" lengthAdjust="spacing" textLength="265.1606" x="521.5" y="683.7485">Controller/service/domain/security/cache tests</text></g><g class="entity" data-qualified-name="GMN18" data-source-line="25" id="ent0019"><path d="M553.5,301.5547 L553.5,356.4009 L830.666,356.4009 L830.666,311.5547 L820.666,301.5547 L553.5,301.5547" fill="#FFF7ED" style="stroke:#F97316;stroke-width:0.5;"/><path d="M820.666,301.5547 L820.666,311.5547 L830.666,311.5547 L820.666,301.5547" fill="#FFF7ED" style="stroke:#F97316;stroke-width:1;"/><text fill="#7C2D12" font-family="Arial" font-size="13" lengthAdjust="spacing" textLength="200.5098" x="559.5" y="318.7485">pom.xml declares java.version=23,</text><text fill="#7C2D12" font-family="Arial" font-size="13" lengthAdjust="spacing" textLength="256.166" x="559.5" y="333.6973">but maven-compiler-plugin uses release=21.</text><text fill="#7C2D12" font-family="Arial" font-size="13" lengthAdjust="spacing" textLength="106.2026" x="559.5" y="348.646">CI installs JDK 23.</text></g><g class="entity" data-qualified-name="GMN21" data-source-line="31" id="ent0022"><path d="M463,421.5547 L463,461.4521 L974.623,461.4521 L974.623,431.5547 L964.623,421.5547 L463,421.5547" fill="#FFF7ED" style="stroke:#F97316;stroke-width:0.5;"/><path d="M964.623,421.5547 L964.623,431.5547 L974.623,431.5547 L964.623,421.5547" fill="#FFF7ED" style="stroke:#F97316;stroke-width:1;"/><text fill="#7C2D12" font-family="Arial" font-size="13" lengthAdjust="spacing" textLength="490.623" x="469" y="438.7485">Evidence: backend/pom.xml, backend/src/test/java, and the GitHub Actions workflow.</text><text fill="#7C2D12" font-family="Arial" font-size="13" lengthAdjust="spacing" textLength="429.2158" x="469" y="453.6973">No Maven phase for Docker image build or deployment is configured in CI.</text></g><!--link Maven to Clean--><g class="link" data-entity-1="ent0001" data-entity-2="ent0002" data-link-type="dependency" data-source-line="15" id="lnk10"><path d="M426,119.3247 C426,136.3947 426,154.9547 426,173.6447" fill="none" id="Maven-to-Clean" style="stroke:#394150;stroke-width:1.2;"/><polygon fill="#394150" points="426,178.6447,430,169.6447,426,173.6447,422,169.6447,426,178.6447" style="stroke:#394150;stroke-width:1.2;stroke-linejoin:miter;stroke-miterlimit:10;"/></g><!--link Clean to Compile--><g class="link" data-entity-1="ent0002" data-entity-2="ent0003" data-link-type="dependency" data-source-line="16" id="lnk11"><path d="M426,239.3347 C426,257.5247 426,275.5947 426,293.7847" fill="none" id="Clean-to-Compile" style="stroke:#394150;stroke-width:1.2;"/><polygon fill="#394150" points="426,298.7847,430,289.7847,426,293.7847,422,289.7847,426,298.7847" style="stroke:#394150;stroke-width:1.2;stroke-linejoin:miter;stroke-miterlimit:10;"/></g><!--link Compile to TestCompile--><g class="link" data-entity-1="ent0003" data-entity-2="ent0004" data-link-type="dependency" data-source-line="17" id="lnk12"><path d="M394,359.2047 C394,377.9447 394,396.6647 394,413.8247" fill="none" id="Compile-to-TestCompile" style="stroke:#394150;stroke-width:1.2;"/><polygon fill="#394150" points="394,418.8247,398,409.8247,394,413.8247,390,409.8247,394,418.8247" style="stroke:#394150;stroke-width:1.2;stroke-linejoin:miter;stroke-miterlimit:10;"/></g><!--link TestCompile to Test--><g class="link" data-entity-1="ent0004" data-entity-2="ent0005" data-link-type="dependency" data-source-line="18" id="lnk13"><path d="M373,464.3247 C373,481.3947 373,499.9547 373,518.6447" fill="none" id="TestCompile-to-Test" style="stroke:#394150;stroke-width:1.2;"/><polygon fill="#394150" points="373,523.6447,377,514.6447,373,518.6447,369,514.6447,373,523.6447" style="stroke:#394150;stroke-width:1.2;stroke-linejoin:miter;stroke-miterlimit:10;"/></g><!--link Test to TestSuite--><g class="link" data-entity-1="ent0005" data-entity-2="ent0009" data-link-type="dependency" data-source-line="19" id="lnk14"><path d="M468.23,554.0547 C551.43,554.0547 659,554.0547 659,554.0547 C659,554.0547 659,611.7247 659,646.4847" fill="none" id="Test-to-TestSuite" style="stroke:#394150;stroke-width:1.2;"/><polygon fill="#394150" points="659,651.4847,663,642.4847,659,646.4847,655,642.4847,659,651.4847" style="stroke:#394150;stroke-width:1.2;stroke-linejoin:miter;stroke-miterlimit:10;"/></g><!--link Test to ModulithTest--><g class="link" data-entity-1="ent0005" data-entity-2="ent0008" data-link-type="dependency" data-source-line="20" id="lnk15"><path d="M373,584.3347 C373,602.5247 373,620.5947 373,638.7847" fill="none" id="Test-to-ModulithTest" style="stroke:#394150;stroke-width:1.2;"/><polygon fill="#394150" points="373,643.7847,377,634.7847,373,638.7847,369,634.7847,373,643.7847" style="stroke:#394150;stroke-width:1.2;stroke-linejoin:miter;stroke-miterlimit:10;"/></g><!--link Test to Verify--><g class="link" data-entity-1="ent0005" data-entity-2="ent0006" data-link-type="dependency" data-source-line="21" id="lnk16"><path d="M277.98,554.0547 C222.77,554.0547 164,554.0547 164,554.0547 C164,554.0547 164,603.2247 164,638.7747" fill="none" id="Test-to-Verify" style="stroke:#394150;stroke-width:1.2;"/><polygon fill="#394150" points="164,643.7747,168,634.7747,164,638.7747,160,634.7747,164,643.7747" style="stroke:#394150;stroke-width:1.2;stroke-linejoin:miter;stroke-miterlimit:10;"/></g><!--link Verify to BootPlugin--><g class="link" data-entity-1="ent0006" data-entity-2="ent0007" data-link-type="dependency" data-source-line="22" id="lnk17"><path d="M164,704.2047 C164,722.9447 164,741.6647 164,758.8247" fill="none" id="Verify-to-BootPlugin" style="stroke:#394150;stroke-width:1.2;"/><polygon fill="#394150" points="164,763.8247,168,754.8247,164,758.8247,160,754.8247,164,763.8247" style="stroke:#394150;stroke-width:1.2;stroke-linejoin:miter;stroke-miterlimit:10;"/><text fill="#000000" font-family="Arial" font-size="13" lengthAdjust="spacing" textLength="156.1143" x="7" y="731.2085">plugin available in the build</text></g><!--link Compile to GMN18--><g class="link" data-entity-1="ent0003" data-entity-2="ent0019" data-link-type="association" data-source-line="25" id="lnk20"><path d="M492.09,329.0547 C510.87,329.0547 532.04,329.0547 553.41,329.0547" fill="none" id="Compile-GMN18" style="stroke:#394150;stroke-width:1.2;stroke-dasharray:7,7;"/></g><!--link GMN18 to GMN21--><g class="link" data-entity-1="ent0019" data-entity-2="ent0022" data-link-type="association" data-source-line="31" id="lnk23"><path d="M692,356.5747 C692,376.6147 692,403.2947 692,421.3747" fill="none" id="GMN18-GMN21" style="stroke:#394150;stroke-width:1.2;stroke-dasharray:7,7;"/></g><?plantuml-src TLFRRjim37tNLt1zse3OHjEt0XtGNBQrGzO0xVem51XacKcqw698ihliwqjPWkSM6s3O5dcEI1wIxwGHgciGohAYHrYjhQdmJt2ymSA7ayAoxRHYBCYW4DO_7g87LjZVjHuAM71nHDF0efEgcS43-Z03JeOjEVWUuPEopupHnQqrQ0ASwTv0iG2Xa1leqSdTwGouXmtlqL20dwlruztsVaePi4_6eROzUWZSxJ4Cf6Nql8BIhrJuP6vvpy4X-Jt2_3oXatEA3vHmaKa39bRm7nnT-jt8K6siECfWg_lMIRE7wF8ZTqfArJqP9NSeJbH5gbSA7gGr0-LnW4n9VhYrgAqDXOwQ5AtgzZB15sJT3iT_KBHjEYN3WVh6NK1NfAIlsrRba9k8G5-cnDv_IC9dsjlibzO4PvL2LtbqlHHODLPpQUWeEYV3gH9S7F2D0FUT3CXOQcTHVCmz6jxfdDNDty4sLNtoF_e6utXA8KRJgm96QrOsVGRBN_7W4fAeG5CY5Qyf51q25LF7GMRCs83WvFuGmEx6b5khozzQGOD2SKUZ-8luKKrFubxDBsQixWAahkMXShbzq7d2vu6ycf-NR7b3CQbLIdcuNNs5-KN9uYh5q3c1sePWDLltia4Zy1Bgj6vLJcGs6hmJLUn35JDA6nYh-Ip3bww6Qn6xx-7PkkEE5h9atsnUkFOG5sHd7QnehD61r75j1nc0h0ssofvqd0ZfGLYpa_lEOHFrMjvCCdu1?></g></svg>