<svg xmlns="http://www.w3.org/2000/svg" xmlns:xlink="http://www.w3.org/1999/xlink" contentStyleType="text/css" data-diagram-type="ACTIVITY" height="811px" preserveAspectRatio="none" style="width:570px;height:811px;background:#FFFFFF;" version="1.1" viewBox="0 0 570 811" width="570px" zoomAndPan="magnify"><?plantuml 1.2026.6?><defs/><g><g class="title" data-source-line="3"><text fill="#1F2937" font-family="Arial" font-size="20" font-weight="700" lengthAdjust="spacing" textLength="480.0879" x="44.371" y="38.7598">EZTrade DevOps - Real GitHub Actions CI Pipeline</text></g><rect fill="#FFFFCC" height="18.0566" rx="2.5" ry="2.5" style="stroke:#FFDD88;stroke-width:3;" width="539.8298" x="13" y="56.998"/><text fill="#000000" font-family="monospace" font-size="10" lengthAdjust="spacing" textLength="354.0576" x="20" y="69.0547">Please&#160;use&#160;'!option&#160;handwritten&#160;true'&#160;to&#160;enable&#160;handwritten</text><ellipse cx="161.804" cy="92.0547" fill="#222222" rx="10" ry="10" style="stroke:#222222;stroke-width:1;"/><rect fill="#F1F1F1" height="49.8975" rx="12.5" ry="12.5" style="stroke:#181818;stroke-width:0.5;" width="191.2725" x="66.1677" y="122.0547"/><text fill="#000000" font-family="Arial" font-size="13" lengthAdjust="spacing" textLength="151.0298" x="76.1677" y="144.2485">Developer pushes to main</text><text fill="#000000" font-family="Arial" font-size="13" lengthAdjust="spacing" textLength="171.2725" x="76.1677" y="159.1973">or opens pull_request to main</text><rect fill="#F1F1F1" height="49.8975" rx="12.5" ry="12.5" style="stroke:#181818;stroke-width:0.5;" width="142.6621" x="90.4729" y="191.9521"/><text fill="#000000" font-family="Arial" font-size="13" lengthAdjust="spacing" textLength="122.0972" x="100.4729" y="214.146">GitHub Actions starts</text><text fill="#000000" font-family="Arial" font-size="13" lengthAdjust="spacing" textLength="122.6621" x="100.4729" y="229.0947">"Java CI with Maven"</text><rect fill="#F1F1F1" height="34.9487" rx="12.5" ry="12.5" style="stroke:#181818;stroke-width:0.5;" width="141.4116" x="91.0981" y="261.8496"/><text fill="#000000" font-family="Arial" font-size="13" lengthAdjust="spacing" textLength="121.4116" x="101.0981" y="284.0435">Runner ubuntu-latest</text><rect fill="#F1F1F1" height="34.9487" rx="12.5" ry="12.5" style="stroke:#181818;stroke-width:0.5;" width="143.7603" x="89.9238" y="316.7983"/><text fill="#000000" font-family="Arial" font-size="13" lengthAdjust="spacing" textLength="123.7603" x="99.9238" y="338.9922">actions/checkout@v4</text><rect fill="#F1F1F1" height="79.7949" rx="12.5" ry="12.5" style="stroke:#181818;stroke-width:0.5;" width="151.7075" x="85.9502" y="371.7471"/><text fill="#000000" font-family="Arial" font-size="13" lengthAdjust="spacing" textLength="131.7075" x="95.9502" y="393.9409">actions/setup-java@v4</text><text fill="#000000" font-family="Arial" font-size="13" lengthAdjust="spacing" textLength="88.1563" x="95.9502" y="408.8896">java-version 23</text><text fill="#000000" font-family="Arial" font-size="13" lengthAdjust="spacing" textLength="101.8862" x="95.9502" y="423.8384">distribution oracle</text><text fill="#000000" font-family="Arial" font-size="13" lengthAdjust="spacing" textLength="77.3208" x="95.9502" y="438.7871">cache maven</text><rect fill="#F1F1F1" height="49.8975" rx="12.5" ry="12.5" style="stroke:#181818;stroke-width:0.5;" width="123.3335" x="100.1372" y="471.542"/><text fill="#000000" font-family="Arial" font-size="13" lengthAdjust="spacing" textLength="101.1372" x="110.1372" y="493.7358">Working directory</text><text fill="#000000" font-family="Arial" font-size="13" lengthAdjust="spacing" textLength="103.3335" x="110.1372" y="508.6846">EZTrade/backend</text><rect fill="#F1F1F1" height="34.9487" rx="12.5" ry="12.5" style="stroke:#181818;stroke-width:0.5;" width="164.4917" x="79.5581" y="541.4395"/><text fill="#000000" font-family="Arial" font-size="13" lengthAdjust="spacing" textLength="144.4917" x="89.5581" y="563.6333">Runs mvn -B clean verify</text><polygon fill="#F1F1F1" points="92.0781,596.3882,231.5298,596.3882,243.5298,608.3882,231.5298,620.3882,92.0781,620.3882,80.0781,608.3882,92.0781,596.3882" style="stroke:#181818;stroke-width:0.5;stroke-linejoin:miter;stroke-miterlimit:10;"/><text fill="#000000" font-family="Arial" font-size="13" lengthAdjust="spacing" textLength="139.4517" x="92.0781" y="613.1077">Maven verify succeeds?</text><text fill="#000000" font-family="Arial" font-size="13" lengthAdjust="spacing" textLength="20.23" x="59.8481" y="605.6333">yes</text><text fill="#000000" font-family="Arial" font-size="13" lengthAdjust="spacing" textLength="14.46" x="243.5298" y="605.6333">no</text><rect fill="#F1F1F1" height="34.9487" rx="12.5" ry="12.5" style="stroke:#181818;stroke-width:0.5;" width="108.1563" x="16" y="630.3882"/><text fill="#000000" font-family="Arial" font-size="13" lengthAdjust="spacing" textLength="88.1563" x="26" y="652.582">CI status green</text><rect fill="#F1F1F1" height="34.9487" rx="12.5" ry="12.5" style="stroke:#181818;stroke-width:0.5;" width="105.9854" x="200.5371" y="630.3882"/><text fill="#000000" font-family="Arial" font-size="13" lengthAdjust="spacing" textLength="85.9854" x="210.5371" y="652.582">CI status failed</text><polygon fill="#F1F1F1" points="161.804,671.3369,173.804,683.3369,161.804,695.3369,149.804,683.3369,161.804,671.3369" style="stroke:#181818;stroke-width:0.5;stroke-linejoin:miter;stroke-miterlimit:10;"/><path d="M192.804,705.3369 L192.804,743.7087 L172.804,747.7087 L192.804,751.7087 L192.804,790.0806 A0,0 0 0 0 192.804,790.0806 L549.8298,790.0806 A0,0 0 0 0 549.8298,790.0806 L549.8298,715.3369 L539.8298,705.3369 L192.804,705.3369 A0,0 0 0 0 192.804,705.3369" fill="#FFF7ED" style="stroke:#F97316;stroke-width:0.5;"/><path d="M539.8298,705.3369 L539.8298,715.3369 L549.8298,715.3369 L539.8298,705.3369" fill="#FFF7ED" style="stroke:#F97316;stroke-width:0.5;"/><text fill="#7C2D12" font-family="Arial" font-size="13" lengthAdjust="spacing" textLength="241.3188" x="198.804" y="722.5308">Evidence: ../.github/workflows/maven.yml.</text><text fill="#7C2D12" font-family="Arial" font-size="13" lengthAdjust="spacing" textLength="293.3696" x="198.804" y="737.4795">The workflow compiles and tests the backend only.</text><text fill="#7C2D12" font-family="Arial" font-size="13" lengthAdjust="spacing" textLength="300.5933" x="198.804" y="752.4282">There is Docker configuration for local development,</text><text fill="#7C2D12" font-family="Arial" font-size="13" lengthAdjust="spacing" textLength="336.0259" x="198.804" y="767.377">but no CI Docker build, image publication, deployment job,</text><text fill="#7C2D12" font-family="Arial" font-size="13" lengthAdjust="spacing" textLength="224.0215" x="198.804" y="782.3257">or frontend build/lint/test step declared.</text><ellipse cx="161.804" cy="747.7087" fill="none" rx="11" ry="11" style="stroke:#222222;stroke-width:1;"/><ellipse cx="161.804" cy="747.7087" fill="#222222" rx="6" ry="6" style="stroke:#222222;stroke-width:1;"/><line style="stroke:#394150;stroke-width:1.2;" x1="161.804" x2="161.804" y1="102.0547" y2="122.0547"/><polygon fill="#394150" points="157.804,112.0547,161.804,122.0547,165.804,112.0547,161.804,116.0547" style="stroke:#394150;stroke-width:1;stroke-linejoin:miter;stroke-miterlimit:10;"/><line style="stroke:#394150;stroke-width:1.2;" x1="161.804" x2="161.804" y1="171.9521" y2="191.9521"/><polygon fill="#394150" points="157.804,181.9521,161.804,191.9521,165.804,181.9521,161.804,185.9521" style="stroke:#394150;stroke-width:1;stroke-linejoin:miter;stroke-miterlimit:10;"/><line style="stroke:#394150;stroke-width:1.2;" x1="161.804" x2="161.804" y1="241.8496" y2="261.8496"/><polygon fill="#394150" points="157.804,251.8496,161.804,261.8496,165.804,251.8496,161.804,255.8496" style="stroke:#394150;stroke-width:1;stroke-linejoin:miter;stroke-miterlimit:10;"/><line style="stroke:#394150;stroke-width:1.2;" x1="161.804" x2="161.804" y1="296.7983" y2="316.7983"/><polygon fill="#394150" points="157.804,306.7983,161.804,316.7983,165.804,306.7983,161.804,310.7983" style="stroke:#394150;stroke-width:1;stroke-linejoin:miter;stroke-miterlimit:10;"/><line style="stroke:#394150;stroke-width:1.2;" x1="161.804" x2="161.804" y1="351.7471" y2="371.7471"/><polygon fill="#394150" points="157.804,361.7471,161.804,371.7471,165.804,361.7471,161.804,365.7471" style="stroke:#394150;stroke-width:1;stroke-linejoin:miter;stroke-miterlimit:10;"/><line style="stroke:#394150;stroke-width:1.2;" x1="161.804" x2="161.804" y1="451.542" y2="471.542"/><polygon fill="#394150" points="157.804,461.542,161.804,471.542,165.804,461.542,161.804,465.542" style="stroke:#394150;stroke-width:1;stroke-linejoin:miter;stroke-miterlimit:10;"/><line style="stroke:#394150;stroke-width:1.2;" x1="161.804" x2="161.804" y1="521.4395" y2="541.4395"/><polygon fill="#394150" points="157.804,531.4395,161.804,541.4395,165.804,531.4395,161.804,535.4395" style="stroke:#394150;stroke-width:1;stroke-linejoin:miter;stroke-miterlimit:10;"/><line style="stroke:#394150;stroke-width:1.2;" x1="80.0781" x2="70.0781" y1="608.3882" y2="608.3882"/><line style="stroke:#394150;stroke-width:1.2;" x1="70.0781" x2="70.0781" y1="608.3882" y2="630.3882"/><polygon fill="#394150" points="66.0781,620.3882,70.0781,630.3882,74.0781,620.3882,70.0781,624.3882" style="stroke:#394150;stroke-width:1;stroke-linejoin:miter;stroke-miterlimit:10;"/><line style="stroke:#394150;stroke-width:1.2;" x1="243.5298" x2="253.5298" y1="608.3882" y2="608.3882"/><line style="stroke:#394150;stroke-width:1.2;" x1="253.5298" x2="253.5298" y1="608.3882" y2="630.3882"/><polygon fill="#394150" points="249.5298,620.3882,253.5298,630.3882,257.5298,620.3882,253.5298,624.3882" style="stroke:#394150;stroke-width:1;stroke-linejoin:miter;stroke-miterlimit:10;"/><line style="stroke:#394150;stroke-width:1.2;" x1="70.0781" x2="70.0781" y1="665.3369" y2="683.3369"/><line style="stroke:#394150;stroke-width:1.2;" x1="70.0781" x2="149.804" y1="683.3369" y2="683.3369"/><polygon fill="#394150" points="139.804,679.3369,149.804,683.3369,139.804,687.3369,143.804,683.3369" style="stroke:#394150;stroke-width:1;stroke-linejoin:miter;stroke-miterlimit:10;"/><line style="stroke:#394150;stroke-width:1.2;" x1="253.5298" x2="253.5298" y1="665.3369" y2="683.3369"/><line style="stroke:#394150;stroke-width:1.2;" x1="253.5298" x2="173.804" y1="683.3369" y2="683.3369"/><polygon fill="#394150" points="183.804,679.3369,173.804,683.3369,183.804,687.3369,179.804,683.3369" style="stroke:#394150;stroke-width:1;stroke-linejoin:miter;stroke-miterlimit:10;"/><line style="stroke:#394150;stroke-width:1.2;" x1="161.804" x2="161.804" y1="576.3882" y2="596.3882"/><polygon fill="#394150" points="157.804,586.3882,161.804,596.3882,165.804,586.3882,161.804,590.3882" style="stroke:#394150;stroke-width:1;stroke-linejoin:miter;stroke-miterlimit:10;"/><line style="stroke:#394150;stroke-width:1.2;" x1="161.804" x2="161.804" y1="695.3369" y2="736.7087"/><polygon fill="#394150" points="157.804,726.7087,161.804,736.7087,165.804,726.7087,161.804,730.7087" style="stroke:#394150;stroke-width:1;stroke-linejoin:miter;stroke-miterlimit:10;"/><?plantuml-src NL9DQzn03BtFhr1psi3QXhQdpQ5V2Vs0qX82WM8eux6yg-nOuyvelBY_lXhl1ah01_CqxptfIQ-8dSyzGbqt-hamZe4R_2lHzbWbMJpMKnwzCKBY4Uv-FPGAtEByOqfGmJrQ3vz9lkGEFZYXm0a-VOMVDA4dHcEIs2XcfmJqOS88Kqu7J201HalSSeYWkDAcxFtlY7yo9daktvZT2_5LBxLyzStEjbYTI0xmtSx8L_hwFZEhIUuoIwwy5HLJs9xPZJkWEuOix-Ut_w499K_LamegtdBvgMQCIOlm-atBFIM9rENo6aAqpcFBpggODgd6AlKOuf5u3pr5T1BYql8bgwQpxeZSdvjBCCuCrKTG3SkWBZGiDuO6sAmpN118sJd4Fhsx1Zael5amNHk0dKwi4KXEi8zOhD4dX0s75zN1aaSrLMSQT0jXCeQ384JQ7yJSpTGZEzojczzhXhbhJZh4uCCfDUjOzJBwsZpebCy5q0EPL3U1vHvAjgcq1vSH8R1VLaP4e0ItGU6e91vedwDTynjquJuuFPl-V1CZicoDfWiSoa8lh2wJxxT0ezsZtaRdoQq2M-LDFYo51a-XsneL769WAHsih4PFJvhIdgQ1anASjn7xkgG19GNp3m00?></g></svg>