<svg xmlns="http://www.w3.org/2000/svg" xmlns:xlink="http://www.w3.org/1999/xlink" contentStyleType="text/css" data-diagram-type="DESCRIPTION" height="376px" preserveAspectRatio="none" style="width:1741px;height:376px;background:#FFFFFF;" version="1.1" viewBox="0 0 1741 376" width="1741px" zoomAndPan="magnify"><?plantuml 1.2026.3?><defs/><g><g class="title" data-source-line="3"><text fill="#1F2937" font-family="Arial" font-size="20" font-weight="700" lengthAdjust="spacing" textLength="739.1211" x="497.6542" y="28.5645">EZTrade DevOps - Observabilidad, logging y senales de ejecucion</text></g><rect fill="#FFFFCC" height="16.6406" rx="2.5" ry="2.5" style="stroke:#FFDD88;stroke-width:3;" width="1725.4295" x="3" y="47.2813"/><text fill="#000000" font-family="monospace" font-size="10" lengthAdjust="spacing" textLength="355.21" x="10" y="57.9219">Please&#160;use&#160;'!option&#160;handwritten&#160;true'&#160;to&#160;enable&#160;handwritten</text><!--entity Actuator--><g class="entity" data-qualified-name="Actuator" data-source-line="5" id="ent0002"><rect fill="#DCFCE7" height="45.1328" rx="2.5" ry="2.5" style="stroke:#475569;stroke-width:0.5;" width="265.7227" x="251.94" y="80.4919"/><rect fill="#DCFCE7" height="10" style="stroke:#475569;stroke-width:0.5;" width="15" x="497.6627" y="85.4919"/><rect fill="#DCFCE7" height="2" style="stroke:#475569;stroke-width:0.5;" width="4" x="495.6627" y="87.4919"/><rect fill="#DCFCE7" height="2" style="stroke:#475569;stroke-width:0.5;" width="4" x="495.6627" y="91.4919"/><text fill="#1F2937" font-family="Arial" font-size="13" lengthAdjust="spacing" textLength="225.7227" x="266.94" y="112.5588">Dependencia Spring Boot Actuator</text></g><!--entity ModulithObs--><g class="entity" data-qualified-name="ModulithObs" data-source-line="6" id="ent0003"><rect fill="#DCFCE7" height="45.1328" rx="2.5" ry="2.5" style="stroke:#475569;stroke-width:0.5;" width="352.2031" x="552.7" y="80.4919"/><rect fill="#DCFCE7" height="10" style="stroke:#475569;stroke-width:0.5;" width="15" x="884.9031" y="85.4919"/><rect fill="#DCFCE7" height="2" style="stroke:#475569;stroke-width:0.5;" width="4" x="882.9031" y="87.4919"/><rect fill="#DCFCE7" height="2" style="stroke:#475569;stroke-width:0.5;" width="4" x="882.9031" y="91.4919"/><text fill="#1F2937" font-family="Arial" font-size="13" lengthAdjust="spacing" textLength="312.2031" x="567.7" y="112.5588">Dependencia de observabilidad Spring Modulith</text></g><!--entity AccessLogs--><g class="entity" data-qualified-name="AccessLogs" data-source-line="7" id="ent0004"><rect fill="#DCFCE7" height="60.2656" rx="2.5" ry="2.5" style="stroke:#475569;stroke-width:0.5;" width="209.5967" x="7" y="72.9219"/><rect fill="#DCFCE7" height="10" style="stroke:#475569;stroke-width:0.5;" width="15" x="196.5967" y="77.9219"/><rect fill="#DCFCE7" height="2" style="stroke:#475569;stroke-width:0.5;" width="4" x="194.5967" y="79.9219"/><rect fill="#DCFCE7" height="2" style="stroke:#475569;stroke-width:0.5;" width="4" x="194.5967" y="83.9219"/><text fill="#1F2937" font-family="Arial" font-size="13" lengthAdjust="spacing" textLength="152.623" x="22" y="104.9888">Logs de acceso Tomcat</text><text fill="#1F2937" font-family="Arial" font-size="13" lengthAdjust="spacing" textLength="169.5967" x="22" y="120.1216">server.tomcat.accesslog.*</text></g><!--entity RequestLogging--><g class="entity" data-qualified-name="RequestLogging" data-source-line="8" id="ent0005"><rect fill="#DCFCE7" height="60.2656" rx="2.5" ry="2.5" style="stroke:#475569;stroke-width:0.5;" width="243.6582" x="939.97" y="72.9219"/><rect fill="#DCFCE7" height="10" style="stroke:#475569;stroke-width:0.5;" width="15" x="1163.6282" y="77.9219"/><rect fill="#DCFCE7" height="2" style="stroke:#475569;stroke-width:0.5;" width="4" x="1161.6282" y="79.9219"/><rect fill="#DCFCE7" height="2" style="stroke:#475569;stroke-width:0.5;" width="4" x="1161.6282" y="83.9219"/><text fill="#1F2937" font-family="Arial" font-size="13" lengthAdjust="spacing" textLength="203.6582" x="954.97" y="104.9888">CommonsRequestLoggingFilter</text><text fill="#1F2937" font-family="Arial" font-size="13" lengthAdjust="spacing" textLength="159.0532" x="954.97" y="120.1216">incluye query + payload</text></g><!--entity AppLogs--><g class="entity" data-qualified-name="AppLogs" data-source-line="9" id="ent0006"><rect fill="#DCFCE7" height="60.2656" rx="2.5" ry="2.5" style="stroke:#475569;stroke-width:0.5;" width="160.2437" x="981.68" y="197.1919"/><rect fill="#DCFCE7" height="10" style="stroke:#475569;stroke-width:0.5;" width="15" x="1121.9237" y="202.1919"/><rect fill="#DCFCE7" height="2" style="stroke:#475569;stroke-width:0.5;" width="4" x="1119.9237" y="204.1919"/><rect fill="#DCFCE7" height="2" style="stroke:#475569;stroke-width:0.5;" width="4" x="1119.9237" y="208.1919"/><text fill="#1F2937" font-family="Arial" font-size="13" lengthAdjust="spacing" textLength="120.2437" x="996.68" y="229.2588">Logs de aplicacion</text><text fill="#1F2937" font-family="Arial" font-size="13" lengthAdjust="spacing" textLength="87.3945" x="996.68" y="244.3916">loggers SLF4J</text></g><!--entity NotificationLogs--><g class="entity" data-qualified-name="NotificationLogs" data-source-line="10" id="ent0007"><rect fill="#DCFCE7" height="60.2656" rx="2.5" ry="2.5" style="stroke:#475569;stroke-width:0.5;" width="251.269" x="1218.16" y="72.9219"/><rect fill="#DCFCE7" height="10" style="stroke:#475569;stroke-width:0.5;" width="15" x="1449.429" y="77.9219"/><rect fill="#DCFCE7" height="2" style="stroke:#475569;stroke-width:0.5;" width="4" x="1447.429" y="79.9219"/><rect fill="#DCFCE7" height="2" style="stroke:#475569;stroke-width:0.5;" width="4" x="1447.429" y="83.9219"/><text fill="#1F2937" font-family="Arial" font-size="13" lengthAdjust="spacing" textLength="211.269" x="1233.16" y="104.9888">Fallos en canales de notificacion</text><text fill="#1F2937" font-family="Arial" font-size="13" lengthAdjust="spacing" textLength="56.1323" x="1233.16" y="120.1216">log.warn</text></g><!--entity MarketErrors--><g class="entity" data-qualified-name="MarketErrors" data-source-line="11" id="ent0008"><rect fill="#DCFCE7" height="60.2656" rx="2.5" ry="2.5" style="stroke:#475569;stroke-width:0.5;" width="223.2695" x="1504.16" y="72.9219"/><rect fill="#DCFCE7" height="10" style="stroke:#475569;stroke-width:0.5;" width="15" x="1707.4295" y="77.9219"/><rect fill="#DCFCE7" height="2" style="stroke:#475569;stroke-width:0.5;" width="4" x="1705.4295" y="79.9219"/><rect fill="#DCFCE7" height="2" style="stroke:#475569;stroke-width:0.5;" width="4" x="1705.4295" y="83.9219"/><text fill="#1F2937" font-family="Arial" font-size="13" lengthAdjust="spacing" textLength="183.2695" x="1519.16" y="104.9888">Errores de mercado externo</text><text fill="#1F2937" font-family="Arial" font-size="13" lengthAdjust="spacing" textLength="139.1279" x="1519.16" y="120.1216">ExternalApiException</text></g><!--entity LogsFolder--><g class="entity" data-qualified-name="LogsFolder" data-source-line="13" id="ent0009"><path d="M62.17,193.1919 L103.17,193.1919 A3.75,3.75 0 0 1 105.67,195.6919 L112.67,214.1919 L161.4249,214.1919 A2.5,2.5 0 0 1 163.9249,216.6919 L163.9249,258.9575 A2.5,2.5 0 0 1 161.4249,261.4575 L62.17,261.4575 A2.5,2.5 0 0 1 59.67,258.9575 L59.67,195.6919 A2.5,2.5 0 0 1 62.17,193.1919" fill="#ECFEFF" style="stroke:#181818;stroke-width:0.5;"/><line style="stroke:#181818;stroke-width:0.5;" x1="59.67" x2="112.67" y1="214.1919" y2="214.1919"/><text fill="#000000" font-family="Arial" font-size="13" lengthAdjust="spacing" textLength="30.9702" x="69.67" y="233.2588">logs/</text><text fill="#000000" font-family="Arial" font-size="13" lengthAdjust="spacing" textLength="74.2549" x="69.67" y="248.3916">access*.log</text></g><g class="entity" data-qualified-name="GMN16" data-source-line="23" id="ent0017"><path d="M199.22,199.6219 L199.22,255.0203 L540.3767,255.0203 L540.3767,209.6219 L530.3767,199.6219 L199.22,199.6219" fill="#FFF7ED" style="stroke:#F97316;stroke-width:0.5;"/><path d="M530.3767,199.6219 L530.3767,209.6219 L540.3767,209.6219 L530.3767,199.6219" fill="#FFF7ED" style="stroke:#F97316;stroke-width:1;"/><text fill="#7C2D12" font-family="Arial" font-size="13" lengthAdjust="spacing" textLength="320.1567" x="205.22" y="216.6888">No hay registro Prometheus, dashboard Grafana,</text><text fill="#7C2D12" font-family="Arial" font-size="13" lengthAdjust="spacing" textLength="307.7661" x="205.22" y="231.8216">OpenTelemetry tracing, centralized log shipper</text><text fill="#7C2D12" font-family="Arial" font-size="13" lengthAdjust="spacing" textLength="177.6709" x="205.22" y="246.9544">ni configuracion de alertas.</text></g><g class="entity" data-qualified-name="GMN19" data-source-line="29" id="ent0020"><path d="M119.91,321.4519 L119.91,361.7175 L619.6947,361.7175 L619.6947,331.4519 L609.6947,321.4519 L119.91,321.4519" fill="#FFF7ED" style="stroke:#F97316;stroke-width:0.5;"/><path d="M609.6947,321.4519 L609.6947,331.4519 L619.6947,331.4519 L609.6947,321.4519" fill="#FFF7ED" style="stroke:#F97316;stroke-width:1;"/><text fill="#7C2D12" font-family="Arial" font-size="13" lengthAdjust="spacing" textLength="478.7847" x="125.91" y="338.5188">Evidencia: application.properties, HttpObservabilityConfig.java, pom.xml,</text><text fill="#7C2D12" font-family="Arial" font-size="13" lengthAdjust="spacing" textLength="317.4082" x="125.91" y="353.6516">NotificationService.java y AlphaVantageAPI.java.</text></g><!--link AccessLogs to LogsFolder--><g class="link" data-entity-1="ent0004" data-entity-2="ent0009" data-link-type="dependency" data-source-line="15" id="lnk10"><path d="M111.8,133.4519 C111.8,151.4219 111.8,187.9169 111.8,206.5469" fill="none" id="AccessLogs-to-LogsFolder" style="stroke:#394150;stroke-width:1.2;"/><polygon fill="#394150" points="111.8,212.5469,115.8,203.5469,111.8,207.5469,107.8,203.5469,111.8,212.5469" style="stroke:#394150;stroke-width:1.2;"/></g><!--link RequestLogging to AppLogs--><g class="link" data-entity-1="ent0005" data-entity-2="ent0006" data-link-type="dependency" data-source-line="16" id="lnk11"><path d="M1061.8,133.4519 C1061.8,152.7119 1061.8,171.5319 1061.8,190.8119" fill="none" id="RequestLogging-to-AppLogs" style="stroke:#394150;stroke-width:1.2;"/><polygon fill="#394150" points="1061.8,196.8119,1065.8,187.8119,1061.8,191.8119,1057.8,187.8119,1061.8,196.8119" style="stroke:#394150;stroke-width:1.2;"/></g><!--link NotificationLogs to AppLogs--><g class="link" data-entity-1="ent0007" data-entity-2="ent0006" data-link-type="dependency" data-source-line="17" id="lnk12"><path d="M1343.8,133.4819 C1343.8,167.4519 1343.8,217.7219 1343.8,217.7219 C1343.8,217.7219 1231.58,217.7219 1148.23,217.7219" fill="none" id="NotificationLogs-to-AppLogs" style="stroke:#394150;stroke-width:1.2;"/><polygon fill="#394150" points="1142.23,217.7219,1151.23,221.7219,1147.23,217.7219,1151.23,213.7219,1142.23,217.7219" style="stroke:#394150;stroke-width:1.2;"/></g><!--link MarketErrors to AppLogs--><g class="link" data-entity-1="ent0008" data-entity-2="ent0006" data-link-type="dependency" data-source-line="18" id="lnk13"><path d="M1615.8,133.6119 C1615.8,173.3419 1615.8,237.7219 1615.8,237.7219 C1615.8,237.7219 1302.01,237.7219 1148.35,237.7219" fill="none" id="MarketErrors-to-AppLogs" style="stroke:#394150;stroke-width:1.2;"/><polygon fill="#394150" points="1142.35,237.7219,1151.35,241.7219,1147.35,237.7219,1151.35,233.7219,1142.35,237.7219" style="stroke:#394150;stroke-width:1.2;"/></g><!--link Actuator to AppLogs--><g class="link" data-entity-1="ent0002" data-entity-2="ent0006" data-link-type="dependency" data-source-line="19" id="lnk14"><path d="M517.99,102.7219 C534.96,102.7219 546.54,102.7219 546.54,102.7219 C546.54,102.7219 546.54,236.7219 546.54,236.7219 C546.54,236.7219 830.37,236.7219 975.29,236.7219" fill="none" id="Actuator-to-AppLogs" style="stroke:#394150;stroke-width:1.2;stroke-dasharray:7,7;"/><polygon fill="#394150" points="981.29,236.7219,972.29,232.7219,976.29,236.7219,972.29,240.7219,981.29,236.7219" style="stroke:#394150;stroke-width:1.2;"/><text fill="#000000" font-family="Arial" font-size="13" lengthAdjust="spacing" textLength="145.7866" x="683.64" y="232.7888">dependencia presente</text></g><!--link ModulithObs to AppLogs--><g class="link" data-entity-1="ent0003" data-entity-2="ent0006" data-link-type="dependency" data-source-line="20" id="lnk15"><path d="M762.3,125.9819 C762.3,159.4519 762.3,217.7219 762.3,217.7219 C762.3,217.7219 886.82,217.7219 975.54,217.7219" fill="none" id="ModulithObs-to-AppLogs" style="stroke:#394150;stroke-width:1.2;stroke-dasharray:7,7;"/><polygon fill="#394150" points="981.54,217.7219,972.54,213.7219,976.54,217.7219,972.54,221.7219,981.54,217.7219" style="stroke:#394150;stroke-width:1.2;"/><text fill="#000000" font-family="Arial" font-size="13" lengthAdjust="spacing" textLength="145.7866" x="680.05" y="213.7888">dependencia presente</text></g><!--link LogsFolder to GMN16--><g class="link" data-entity-1="ent0009" data-entity-2="ent0017" data-link-type="association" data-source-line="23" id="lnk18"><path d="M164.32,227.7219 C174.93,227.7219 186.62,227.7219 198.87,227.7219" fill="none" id="LogsFolder-GMN16" style="stroke:#394150;stroke-width:1.2;stroke-dasharray:7,7;"/></g><!--link GMN16 to GMN19--><g class="link" data-entity-1="ent0017" data-entity-2="ent0020" data-link-type="association" data-source-line="29" id="lnk21"><path d="M369.8,255.2719 C369.8,275.6219 369.8,302.7319 369.8,321.0919" fill="none" id="GMN16-GMN19" style="stroke:#394150;stroke-width:1.2;stroke-dasharray:7,7;"/></g><?plantuml-src ZLHDRzim3BthLt0zTebxsQc70McJxAjhYpNOOGWmC39ZgvD5JPApkhz-jDncphPs0tmmJVBfyJtABupJjYq9Yk947irDm-w4xbF0agOnTPOAtpPMgMII9LXyMVKPcDFkoaUOmjKcKjZXnbXJOZa1orLbN0KTH79eAO9KqotfLXjsIia9dXsv14TpykHASjeWtFZGTvqn9vZfr6BYS0GOzu6S_FLiTlvXSJb_2aCEuWCsZwWVkMojINK6V0o4-1EO5rnbrgWrHOOLDnhJslN858gKmo8deqnR73_mxEFS-dVKyonj_4JVMuhfOf1fQMoYi7RPXOv0Sg63b-2niunbHZxi-1TdRut6NkgrwwsW4E7cOldg_K3I-sSOBj5QZa0EDEwjSvpCTWnP_C3WCjhbGof9wXdOHGWS1h26WiQIWUvaQiThjyWlQ6VUBEuq-HvgS0d3DqgvzG1NRTcM5E18cCIJjHjiE2uap7qzZ-LG8btpCwL6naodhqS5wZTX--o3GEgFqSR90sxZn7vNYsB_4Kvby5yxwaK9KONKU0t_ero93mJ1L7KISb1Z1u4g4rDWk0xSKAgfZHCeCTORnb32cu1RiN6YhWHkHPQaHdPBBhQMQIUW1JUWDVTKzfSMOcsy5rMS0SrkQwesPDFpLbaA2MEXX5Y_4OzyDfpaEgZ5pWnyJsN_yWBskXK-i00cGyBhRKf-zAj8tNa-exZ57Kx0SrFSDNPoeFkD51jDkKH-9pFhQ_oCBc55i-jt-VE8q4y0?></g></svg>